{"glyphs":{"0":{"ha":749,"x_min":82,"x_max":869,"o":"m 648 607 q 649 643 652 626 q 636 673 646 660 q 612 693 627 686 q 579 700 597 700 l 464 700 q 428 693 446 700 q 396 673 411 686 q 371 643 382 660 q 357 607 361 626 l 306 364 q 305 329 302 345 q 318 299 309 312 q 341 279 327 287 q 374 272 355 272 l 490 272 q 526 279 509 272 q 558 299 544 286 q 583 328 573 311 q 597 364 593 345 l 648 607 m 743 243 q 701 138 730 185 q 627 50 673 90 q 530 -10 579 9 q 425 -29 480 -29 l 310 -29 q 214 -10 255 -29 q 143 50 172 9 q 110 243 82 130 l 212 729 q 328 921 235 841 q 529 1002 420 1002 l 644 1002 q 810 921 752 1002 q 846 729 869 842 l 743 243 m 714 243 l 818 729 q 786 900 837 829 q 723 954 760 936 q 637 972 686 972 l 522 972 q 345 900 427 972 q 276 822 302 864 q 240 729 251 780 l 138 243 q 167 71 114 143 q 231 18 193 35 q 315 0 269 0 l 432 0 q 525 18 481 0 q 610 71 569 35 q 714 243 693 142 m 625 364 q 606 316 619 338 q 573 278 592 294 q 531 252 554 262 q 484 243 508 243 l 368 243 q 326 252 345 243 q 294 278 307 262 q 277 317 282 295 q 278 364 273 339 l 329 607 q 349 654 335 632 q 382 693 363 677 q 424 720 401 710 q 471 729 447 729 l 587 729 q 630 720 612 729 q 661 693 649 710 q 677 654 673 677 q 675 607 681 632 l 625 364 z "},"1":{"ha":749,"x_min":229,"x_max":669,"o":"m 253 -29 q 235 -20 241 -29 q 231 0 229 -12 l 283 243 q 295 263 286 254 q 317 272 305 272 l 347 272 l 437 700 l 407 700 q 390 709 395 700 q 386 729 384 718 l 437 972 q 450 993 441 984 q 471 1002 459 1002 l 644 1002 q 662 993 656 1002 q 665 972 669 984 l 518 272 l 549 272 q 565 263 559 272 q 570 243 572 254 l 518 0 q 505 -20 515 -12 q 484 -29 495 -29 l 253 -29 m 490 0 l 542 243 l 484 243 l 637 972 l 465 972 l 414 729 l 471 729 l 368 243 l 311 243 l 258 0 l 490 0 z "},"2":{"ha":749,"x_min":54,"x_max":869,"o":"m 79 -29 q 61 -20 68 -29 q 57 0 54 -12 l 121 304 q 239 496 146 415 q 335 556 286 536 q 439 576 385 576 l 526 576 q 550 581 538 576 q 571 594 562 586 q 588 614 581 603 q 597 637 595 625 q 598 662 600 650 q 590 682 596 673 q 573 695 583 690 q 551 700 564 700 l 233 700 q 215 709 222 700 q 212 729 209 718 l 264 972 q 276 993 266 984 q 297 1002 287 1002 l 644 1002 q 810 921 752 1002 q 846 729 869 842 l 832 668 q 714 476 808 555 q 620 416 669 435 q 515 396 570 396 l 372 396 q 348 391 360 396 q 326 378 336 387 q 308 358 315 370 q 298 335 301 347 l 286 272 l 721 272 q 739 263 732 272 q 743 243 745 254 l 690 0 q 677 -20 687 -12 q 656 -29 668 -29 l 79 -29 m 663 0 l 714 243 l 253 243 l 271 335 q 286 370 275 353 q 311 398 296 386 q 343 418 326 410 q 378 425 360 425 l 521 425 q 614 444 570 425 q 700 497 659 462 q 767 575 741 533 q 804 668 793 618 l 818 729 q 786 900 837 829 q 723 954 760 936 q 637 972 686 972 l 292 972 l 240 729 l 558 729 q 590 722 576 729 q 614 702 604 715 q 627 673 623 690 q 627 637 630 656 q 612 602 623 618 q 586 574 601 586 q 554 554 572 562 q 519 547 537 547 l 432 547 q 254 475 337 547 q 150 304 172 405 l 85 0 l 663 0 z "},"3":{"ha":749,"x_min":54,"x_max":869,"o":"m 743 243 q 701 139 730 186 q 625 52 671 92 q 425 -29 534 -29 l 79 -29 q 61 -20 68 -29 q 57 0 54 -12 l 110 243 q 122 263 111 254 q 143 272 132 272 l 461 272 q 485 277 473 272 q 506 290 496 281 q 523 310 516 299 q 532 335 530 321 q 532 358 534 347 q 524 378 530 370 q 509 391 518 387 q 488 396 500 396 l 285 396 q 267 405 273 396 q 262 425 260 414 l 289 547 q 301 568 291 559 q 323 576 312 576 l 526 576 q 550 581 538 576 q 571 594 562 586 q 588 614 581 603 q 597 637 595 625 q 598 662 600 650 q 590 682 596 673 q 573 695 583 690 q 551 700 564 700 l 233 700 q 215 709 222 700 q 212 729 209 718 l 264 972 q 276 993 266 984 q 297 1002 287 1002 l 644 1002 q 810 921 752 1002 q 846 729 869 842 l 842 717 q 813 634 833 673 q 758 558 792 595 l 760 558 q 718 518 740 536 q 672 486 696 500 q 741 385 723 448 q 743 243 759 321 m 714 243 q 720 323 723 285 q 704 394 718 362 q 666 450 690 426 q 607 486 642 473 q 679 520 645 498 q 741 575 712 543 q 788 642 770 606 q 814 717 806 678 l 818 729 q 786 900 837 829 q 723 954 760 936 q 637 972 686 972 l 292 972 l 240 729 l 558 729 q 590 722 576 729 q 614 702 604 715 q 627 673 623 690 q 627 637 630 656 q 612 602 623 618 q 586 574 601 586 q 554 554 572 562 q 519 547 537 547 l 317 547 l 290 425 l 493 425 q 524 418 510 425 q 548 398 538 410 q 560 370 557 386 q 559 335 564 353 q 546 299 556 316 q 521 270 535 283 q 490 250 507 258 q 456 243 473 243 l 138 243 l 85 0 l 432 0 q 610 72 527 0 q 714 243 692 142 z "},"4":{"ha":749,"x_min":91,"x_max":899,"o":"m 541 -29 q 524 -20 530 -29 q 519 0 517 -12 l 550 140 l 115 140 q 98 149 105 140 q 93 170 91 158 l 212 729 q 225 749 214 741 q 248 758 236 758 l 363 758 q 380 749 374 758 q 383 729 385 741 l 322 441 l 614 441 l 726 972 q 739 993 730 984 q 760 1002 748 1002 l 875 1002 q 893 993 886 1002 q 897 972 899 984 l 690 0 q 677 -20 687 -12 q 656 -29 668 -29 l 541 -29 m 663 0 l 869 972 l 753 972 l 635 412 l 288 412 l 355 729 l 240 729 l 121 170 l 583 170 l 547 0 l 663 0 z "},"5":{"ha":749,"x_min":54,"x_max":842,"o":"m 743 243 q 701 139 730 186 q 625 52 671 92 q 425 -29 534 -29 l 79 -29 q 61 -20 68 -29 q 57 0 54 -12 l 110 243 q 122 263 111 254 q 143 272 132 272 l 461 272 q 485 277 473 272 q 506 290 496 281 q 523 310 516 299 q 532 335 530 321 q 532 358 534 347 q 524 378 530 370 q 509 391 518 387 q 488 396 500 396 l 170 396 q 152 405 158 396 q 147 425 145 414 l 264 972 q 276 993 266 984 q 297 1002 287 1002 l 818 1002 q 836 993 829 1002 q 840 972 842 984 l 789 729 q 775 709 785 718 q 753 700 764 700 l 376 700 l 351 576 l 554 576 q 650 556 609 576 q 720 496 690 536 q 758 408 749 455 q 754 304 767 361 l 743 243 m 714 243 l 726 304 q 730 397 738 355 q 694 475 722 439 q 633 529 669 511 q 549 547 597 547 l 317 547 l 355 729 l 761 729 l 811 972 l 292 972 l 175 425 l 493 425 q 524 418 510 425 q 548 398 538 410 q 560 370 557 386 q 559 335 564 353 q 546 299 556 316 q 521 270 535 283 q 490 250 507 258 q 456 243 473 243 l 138 243 l 85 0 l 432 0 q 610 72 527 0 q 714 243 692 142 z "},"6":{"ha":749,"x_min":96,"x_max":842,"o":"m 590 335 q 583 378 595 360 q 545 396 570 396 l 372 396 q 348 391 360 396 q 326 378 336 387 q 308 358 315 370 q 298 335 301 347 q 308 290 294 309 q 346 272 322 272 l 519 272 q 543 277 532 272 q 565 290 555 281 q 581 310 574 299 q 590 335 588 321 m 743 243 q 701 138 730 185 q 627 50 673 90 q 530 -10 579 9 q 425 -29 480 -29 l 310 -29 q 215 -9 255 -29 q 144 52 175 11 q 105 139 114 92 q 110 243 96 186 l 212 729 q 328 922 235 842 q 425 982 376 963 q 529 1002 474 1002 l 818 1002 q 836 993 829 1002 q 840 972 842 984 l 789 729 q 775 709 785 718 q 753 700 764 700 l 464 700 q 428 693 445 700 q 396 673 410 686 q 371 644 382 661 q 357 607 361 627 l 346 555 q 379 571 361 565 q 415 576 397 576 l 554 576 q 650 556 609 576 q 720 496 690 536 q 758 408 749 455 q 754 304 767 361 l 743 243 m 714 243 l 726 304 q 730 397 738 355 q 694 475 722 439 q 633 529 669 511 q 549 547 597 547 l 410 547 q 372 539 390 547 q 338 518 353 532 q 311 488 322 505 q 296 450 300 470 l 329 607 q 349 655 335 633 q 381 694 362 677 q 423 720 400 710 q 471 729 446 729 l 761 729 l 811 972 l 522 972 q 345 901 426 972 q 276 823 302 866 q 240 729 251 781 l 138 243 q 170 72 115 144 q 232 18 195 35 q 315 0 269 0 l 432 0 q 525 18 481 0 q 610 71 569 35 q 714 243 693 142 m 616 335 q 603 299 613 316 q 578 270 593 283 q 547 250 564 258 q 513 243 530 243 l 340 243 q 308 250 323 243 q 284 270 294 258 q 271 299 275 283 q 271 335 267 316 q 286 370 275 353 q 311 398 296 386 q 343 418 326 410 q 378 425 360 425 l 550 425 q 582 418 568 425 q 605 398 596 410 q 617 370 614 386 q 616 335 621 353 z "},"7":{"ha":749,"x_min":55,"x_max":899,"o":"m 267 -16 q 254 -25 263 -21 q 240 -29 245 -29 l 79 -29 q 65 -25 71 -29 q 57 -15 59 -21 q 57 -1 55 -9 q 64 14 58 6 l 599 700 l 233 700 q 215 709 222 700 q 212 729 209 718 l 264 972 q 276 993 266 984 q 297 1002 287 1002 l 875 1002 q 893 993 886 1002 q 897 972 899 984 l 843 721 l 267 -16 m 818 729 l 869 972 l 292 972 l 240 729 l 656 729 l 85 0 l 248 0 l 818 729 z "},"8":{"ha":749,"x_min":83,"x_max":869,"o":"m 656 637 q 656 662 659 650 q 648 682 654 673 q 631 695 641 690 q 608 700 621 700 l 436 700 q 412 695 424 700 q 391 682 400 690 q 374 662 381 673 q 364 637 367 650 q 372 594 359 612 q 411 576 386 576 l 583 576 q 607 581 595 576 q 629 594 619 586 q 646 614 639 603 q 656 637 653 625 m 590 335 q 583 378 595 360 q 545 396 570 396 l 372 396 q 348 391 360 396 q 326 378 336 387 q 308 358 315 370 q 298 335 301 347 q 308 290 294 309 q 346 272 322 272 l 519 272 q 543 277 532 272 q 565 290 555 281 q 581 310 574 299 q 590 335 588 321 m 743 243 q 701 138 730 185 q 627 50 673 90 q 530 -10 579 9 q 425 -29 480 -29 l 310 -29 q 214 -10 255 -29 q 143 50 172 9 q 110 243 83 130 l 117 279 q 164 395 130 345 q 252 486 198 446 q 204 693 177 565 l 212 729 q 328 922 235 842 q 425 982 376 963 q 529 1002 474 1002 l 644 1002 q 741 982 699 1002 q 811 922 782 963 q 846 729 869 843 l 838 693 q 790 576 824 628 q 703 486 755 525 q 751 395 739 446 q 750 279 764 345 l 743 243 m 714 243 l 722 279 q 656 486 752 415 q 810 693 780 556 l 818 729 q 787 901 837 831 q 725 955 762 937 q 637 972 688 972 l 522 972 q 345 901 426 972 q 276 823 302 866 q 240 729 251 781 l 232 693 q 234 573 217 625 q 298 486 252 522 q 144 279 174 414 l 138 243 q 167 71 115 142 q 315 0 219 0 l 432 0 q 525 18 481 0 q 610 71 569 35 q 714 243 693 142 m 684 637 q 669 602 680 618 q 644 574 659 586 q 613 554 630 562 q 578 547 595 547 l 404 547 q 372 554 387 547 q 348 574 357 562 q 336 602 339 586 q 336 637 332 618 q 350 673 340 656 q 376 702 361 690 q 408 722 391 715 q 443 729 425 729 l 616 729 q 648 722 634 729 q 671 702 663 715 q 684 673 680 690 q 684 637 687 656 m 616 335 q 603 299 613 316 q 578 270 593 283 q 547 250 564 258 q 513 243 530 243 l 340 243 q 308 250 323 243 q 284 270 294 258 q 271 299 275 283 q 271 335 267 316 q 286 370 275 353 q 311 398 296 386 q 343 418 326 410 q 378 425 360 425 l 550 425 q 582 418 568 425 q 605 398 596 410 q 617 370 614 386 q 616 335 621 353 z "},"9":{"ha":749,"x_min":112,"x_max":869,"o":"m 656 637 q 656 662 659 650 q 648 682 654 673 q 631 695 641 690 q 608 700 621 700 l 436 700 q 412 695 424 700 q 391 682 400 690 q 374 662 381 673 q 364 637 367 650 q 372 594 359 612 q 411 576 386 576 l 583 576 q 607 581 595 576 q 629 594 619 586 q 646 614 639 603 q 656 637 653 625 m 743 243 q 701 138 730 185 q 627 50 673 90 q 530 -10 579 9 q 425 -29 480 -29 l 138 -29 q 118 -20 125 -29 q 115 0 112 -12 l 168 243 q 180 263 170 254 q 201 272 190 272 l 490 272 q 526 279 509 272 q 558 299 544 286 q 583 328 573 311 q 597 364 593 345 l 608 415 q 574 401 593 406 q 539 396 555 396 l 400 396 q 305 416 345 396 q 235 476 265 435 q 199 668 176 557 l 212 729 q 328 922 235 842 q 425 982 376 963 q 529 1002 474 1002 l 644 1002 q 810 921 752 1002 q 846 729 869 842 l 743 243 m 714 243 l 818 729 q 786 900 837 829 q 723 954 760 936 q 637 972 686 972 l 522 972 q 345 901 426 972 q 276 823 302 866 q 240 729 251 781 l 228 668 q 224 575 216 618 q 258 497 233 533 q 322 444 286 462 q 406 425 359 425 l 545 425 q 582 433 564 425 q 616 454 601 441 q 642 485 631 467 q 657 522 653 503 l 625 364 q 606 316 619 338 q 573 278 592 294 q 531 252 554 262 q 484 243 508 243 l 196 243 l 143 0 l 432 0 q 525 18 481 0 q 610 71 569 35 q 714 243 693 142 m 684 637 q 669 602 680 618 q 644 574 659 586 q 613 554 630 562 q 578 547 595 547 l 404 547 q 372 554 387 547 q 348 574 357 562 q 336 602 339 586 q 336 637 332 618 q 350 673 340 656 q 376 702 361 690 q 408 722 391 715 q 443 729 425 729 l 616 729 q 648 722 634 729 q 671 702 663 715 q 684 673 680 690 q 684 637 687 656 z "}," ":{"ha":519,"x_min":0,"x_max":0,"o":""},"!":{"ha":334,"x_min":54,"x_max":485,"o":"m 79 -29 q 61 -20 68 -29 q 57 0 54 -12 l 93 170 q 106 190 96 182 q 127 199 116 199 l 289 199 q 308 190 302 199 q 311 170 315 182 l 275 0 q 262 -20 272 -12 q 240 -29 253 -29 l 79 -29 m 290 289 q 277 271 287 279 q 257 262 267 262 l 187 262 q 170 271 177 262 q 165 289 163 279 l 264 970 q 276 992 266 982 q 297 1002 286 1002 l 460 1002 q 478 992 472 1002 q 481 970 485 982 l 290 289 m 453 972 l 292 972 l 193 292 l 262 292 l 453 972 m 248 0 l 283 170 l 121 170 l 85 0 l 248 0 z "},"\"":{"ha":587,"x_min":249,"x_max":751,"o":"m 375 689 q 361 671 371 678 q 342 664 351 664 l 272 664 q 256 671 262 664 q 250 689 249 678 l 277 1029 q 288 1053 278 1043 q 311 1063 298 1063 l 472 1063 q 492 1053 486 1063 q 493 1029 498 1043 l 375 689 m 629 689 q 615 671 625 678 q 596 664 606 664 l 526 664 q 510 671 517 664 q 504 689 503 678 l 529 1029 q 542 1053 531 1043 q 566 1063 553 1063 l 726 1063 q 746 1053 740 1063 q 747 1029 751 1043 l 629 689 m 721 1034 l 558 1034 l 532 693 l 602 693 l 721 1034 m 467 1034 l 306 1034 l 278 693 l 347 693 l 467 1034 z "},"#":{"ha":772,"x_min":157,"x_max":891,"o":"m 471 612 l 554 612 l 578 700 l 497 700 l 471 612 m 656 457 l 621 338 q 608 319 617 327 q 587 311 598 311 l 494 311 q 477 320 483 311 q 475 343 471 330 l 509 457 l 425 457 l 390 338 q 377 319 387 327 q 355 311 367 311 l 264 311 q 246 320 252 311 q 244 343 240 330 l 277 457 l 182 457 q 164 466 172 457 q 160 486 157 475 l 180 583 q 194 604 184 595 q 215 612 203 612 l 323 612 l 347 700 l 233 700 q 215 709 222 700 q 212 729 209 718 l 233 827 q 246 847 235 838 q 267 856 256 856 l 396 856 l 429 975 q 443 994 433 985 q 463 1002 453 1002 l 555 1002 q 574 992 567 1002 q 578 970 581 982 l 543 856 l 627 856 l 660 975 q 674 994 664 985 q 694 1002 684 1002 l 786 1002 q 805 992 798 1002 q 808 970 812 982 l 774 856 l 868 856 q 885 847 880 856 q 889 827 891 838 l 869 729 q 856 709 866 718 q 833 700 846 700 l 728 700 l 701 612 l 815 612 q 833 604 827 612 q 838 583 840 595 l 817 486 q 804 466 813 475 q 782 457 795 457 l 656 457 m 789 486 l 810 583 l 665 583 l 710 729 l 840 729 l 861 827 l 739 827 l 781 972 l 688 972 l 646 827 l 509 827 l 549 972 l 457 972 l 415 827 l 261 827 l 240 729 l 386 729 l 343 583 l 208 583 l 189 486 l 314 486 l 271 340 l 364 340 l 406 486 l 545 486 l 501 340 l 595 340 l 636 486 l 789 486 m 616 729 l 574 583 l 435 583 l 479 729 l 616 729 z "},"$":{"ha":749,"x_min":80,"x_max":899,"o":"m 768 364 q 650 172 745 253 q 567 118 610 138 q 479 93 524 98 l 460 0 q 447 -20 456 -12 q 425 -29 437 -29 l 310 -29 q 293 -20 299 -29 q 289 0 287 -12 l 309 92 l 104 92 q 87 100 94 92 q 82 121 80 109 l 135 364 q 148 385 138 376 q 170 393 158 393 l 515 393 q 538 403 528 393 q 551 425 549 412 q 548 447 555 437 q 529 457 542 457 l 412 457 q 248 538 307 457 q 212 729 188 617 q 329 921 235 842 q 412 976 370 956 q 501 1000 455 996 l 521 1093 q 533 1114 524 1105 q 554 1122 543 1122 l 669 1122 q 687 1114 681 1122 q 692 1093 694 1105 l 672 1002 l 875 1002 q 893 993 886 1002 q 897 972 899 984 l 846 729 q 832 709 842 718 q 811 700 823 700 l 464 700 q 442 690 452 700 q 429 668 431 681 q 432 646 426 656 q 452 636 439 636 l 567 636 q 662 616 620 636 q 732 557 703 597 q 771 469 762 516 q 768 364 780 422 m 741 364 q 742 458 750 415 q 708 536 734 500 q 646 589 682 572 q 559 607 609 607 l 444 607 q 424 612 433 607 q 408 626 414 617 q 400 645 402 634 q 401 668 398 656 q 411 691 404 680 q 428 711 418 703 q 449 724 437 720 q 471 729 460 729 l 818 729 l 869 972 l 637 972 l 664 1093 l 549 1093 l 522 972 q 345 900 429 972 q 240 729 261 829 q 272 558 220 630 q 419 486 323 486 l 534 486 q 572 468 559 486 q 579 425 585 450 q 570 402 577 413 q 554 383 564 391 q 533 369 545 374 q 510 364 522 364 l 163 364 l 111 121 l 342 121 l 315 0 l 432 0 l 457 121 q 550 139 505 121 q 636 193 594 157 q 741 364 717 263 z "},"%":{"ha":1291,"x_min":157,"x_max":1349,"o":"m 1169 364 q 1161 408 1175 390 q 1122 427 1147 427 l 1036 427 q 1013 422 1024 427 q 991 409 1001 417 q 975 389 982 400 q 965 364 968 377 l 946 273 q 944 249 943 260 q 952 229 946 237 q 968 216 958 220 q 990 211 978 211 l 1076 211 q 1123 229 1102 211 q 1150 273 1143 246 l 1169 364 m 551 699 q 544 743 556 724 q 507 761 531 761 l 421 761 q 396 756 408 761 q 374 743 384 751 q 357 723 364 734 q 347 699 350 711 l 328 607 q 336 564 322 582 q 374 546 350 546 l 461 546 q 506 564 486 546 q 532 607 526 581 l 551 699 m 582 -29 q 564 -20 570 -29 q 559 0 557 -12 l 766 972 q 779 993 770 984 q 802 1002 789 1002 l 917 1002 q 933 993 927 1002 q 937 972 939 984 l 730 0 q 718 -20 727 -12 q 697 -29 709 -29 l 582 -29 m 656 517 q 566 366 637 429 q 410 306 496 306 l 323 306 q 249 320 281 306 q 195 367 218 335 q 164 435 172 398 q 167 517 157 473 l 225 790 q 315 939 243 878 q 471 1002 389 1002 l 558 1002 q 686 939 642 1002 q 716 871 709 908 q 714 790 722 834 l 656 517 m 1272 182 q 1239 100 1261 137 q 1181 32 1217 62 q 1106 -14 1144 1 q 1025 -29 1069 -29 l 939 -29 q 811 33 855 -29 q 782 101 788 64 q 783 182 775 138 l 842 456 q 932 606 861 542 q 1088 667 1004 667 l 1174 667 q 1303 606 1256 667 q 1331 456 1349 543 l 1272 182 m 1244 182 l 1303 456 q 1304 525 1310 493 q 1278 585 1299 557 q 1231 624 1258 610 q 1168 637 1204 637 l 1082 637 q 1012 624 1046 637 q 947 585 978 610 q 897 525 917 557 q 869 456 877 493 l 811 182 q 833 53 797 108 q 946 0 874 0 l 1032 0 q 1165 53 1104 0 q 1244 182 1228 104 m 704 0 l 909 972 l 794 972 l 587 0 l 704 0 m 628 517 l 686 790 q 664 918 703 865 q 551 972 622 972 l 465 972 q 332 918 395 972 q 281 860 301 892 q 253 790 261 828 l 195 517 q 193 446 187 479 q 218 387 199 414 q 329 335 259 335 l 415 335 q 550 386 489 335 q 600 446 581 414 q 628 517 619 478 m 1178 273 q 1163 237 1174 254 q 1139 208 1153 220 q 1107 189 1124 196 q 1071 182 1090 182 l 985 182 q 953 189 967 182 q 929 209 939 197 q 917 238 920 222 q 918 273 914 255 l 937 364 q 951 399 941 382 q 976 428 962 416 q 1008 448 991 441 q 1043 456 1025 456 l 1129 456 q 1161 448 1147 456 q 1184 428 1175 441 q 1197 399 1194 416 q 1197 364 1201 382 l 1178 273 m 559 607 q 546 571 555 587 q 522 543 536 555 q 490 524 507 530 q 454 517 473 517 l 368 517 q 336 524 351 517 q 313 544 322 531 q 301 572 304 556 q 301 607 298 589 l 321 699 q 335 734 325 718 q 360 763 346 751 q 392 783 374 776 q 427 790 409 790 l 513 790 q 544 783 530 790 q 567 763 558 776 q 580 734 576 751 q 579 699 583 718 l 559 607 z "},"&":{"ha":749,"x_min":96,"x_max":899,"o":"m 357 335 q 366 290 353 309 q 403 272 379 272 l 509 272 l 533 396 l 429 396 q 405 391 417 396 q 384 378 393 387 q 367 358 374 370 q 357 335 359 347 m 310 -29 q 215 -9 255 -29 q 144 52 175 11 q 105 139 114 92 q 110 243 96 186 q 171 384 125 321 q 281 486 216 448 q 239 531 256 505 q 214 588 222 557 q 204 655 205 619 q 212 729 203 690 q 329 921 235 842 q 529 1002 422 1002 l 875 1002 q 893 993 886 1002 q 897 972 899 984 l 846 729 q 832 709 842 718 q 811 700 823 700 l 493 700 q 470 695 481 700 q 449 682 458 690 q 432 662 439 673 q 422 637 425 650 q 430 594 417 612 q 468 576 443 576 l 785 576 q 803 568 798 576 q 807 547 809 559 l 781 425 q 768 405 779 414 q 746 396 758 396 l 704 396 l 679 272 l 721 272 q 739 263 732 272 q 743 243 745 254 l 690 0 q 677 -20 687 -12 q 656 -29 668 -29 l 310 -29 m 663 0 l 714 243 l 646 243 l 684 425 l 753 425 l 779 547 l 461 547 q 429 554 444 547 q 406 574 415 562 q 394 602 397 586 q 395 637 391 618 q 409 673 398 656 q 433 702 419 690 q 465 722 448 715 q 500 729 482 729 l 818 729 l 869 972 l 522 972 q 345 900 429 972 q 240 729 261 829 q 234 649 231 687 q 250 578 237 610 q 288 523 264 547 q 347 486 313 499 q 273 450 307 473 q 211 394 238 426 q 165 323 184 362 q 138 243 146 285 q 170 72 115 144 q 232 18 195 35 q 315 0 269 0 l 663 0 m 529 243 l 397 243 q 366 250 380 243 q 342 270 351 258 q 329 299 332 283 q 329 335 326 316 q 343 370 333 353 q 368 398 354 386 q 400 418 382 410 q 435 425 417 425 l 568 425 l 529 243 z "},"'":{"ha":334,"x_min":249,"x_max":498,"o":"m 375 689 q 361 671 371 678 q 342 664 351 664 l 272 664 q 256 671 262 664 q 250 689 249 678 l 277 1029 q 288 1053 278 1043 q 311 1063 298 1063 l 472 1063 q 492 1053 486 1063 q 493 1029 498 1043 l 375 689 m 467 1034 l 306 1034 l 278 693 l 347 693 l 467 1034 z "},"(":{"ha":460,"x_min":59,"x_max":578,"o":"m 285 -151 q 189 -131 230 -151 q 119 -71 149 -111 q 82 121 59 10 l 237 850 q 279 955 250 907 q 354 1043 308 1002 q 451 1103 402 1083 q 554 1122 500 1122 q 572 1114 566 1122 q 576 1093 578 1105 l 525 850 q 512 829 522 838 q 490 821 503 821 q 454 813 472 821 q 422 794 437 806 q 397 765 408 782 q 383 729 387 748 l 281 243 q 279 207 277 224 q 291 177 282 190 q 315 157 300 165 q 347 150 329 150 q 367 142 360 150 q 370 121 373 134 l 318 -122 l 285 -151 m 290 -122 l 342 121 q 299 131 318 121 q 268 157 280 140 q 251 196 256 174 q 253 243 247 218 l 355 729 q 375 776 361 754 q 408 814 389 798 q 450 840 427 831 q 497 850 473 850 l 549 1093 q 371 1022 452 1093 q 302 944 329 987 q 267 850 276 901 l 111 121 q 109 28 100 71 q 142 -50 117 -14 q 206 -104 169 -85 q 290 -122 243 -122 z "},")":{"ha":460,"x_min":87,"x_max":606,"o":"m 428 121 q 311 -71 405 9 q 214 -131 263 -111 q 111 -151 165 -151 q 93 -142 100 -151 q 90 -122 87 -134 l 140 121 q 154 142 144 134 q 175 150 163 150 q 211 157 193 150 q 243 177 229 165 q 269 207 258 190 q 283 243 279 224 l 386 729 q 387 765 390 748 q 374 794 383 782 q 351 813 365 806 q 318 821 336 821 q 300 829 307 821 q 296 850 294 838 l 347 1093 q 360 1114 351 1105 q 382 1122 370 1122 q 547 1043 489 1122 q 583 850 606 963 l 428 121 m 400 121 l 555 850 q 524 1022 575 953 q 375 1093 471 1093 l 325 850 q 367 840 348 850 q 398 814 386 831 q 415 776 410 798 q 414 729 419 754 l 311 243 q 291 196 305 218 q 258 157 277 174 q 216 131 239 140 q 170 121 193 121 l 118 -122 q 209 -104 165 -122 q 296 -50 254 -85 q 400 121 378 20 z "},"*":{"ha":616,"x_min":193,"x_max":734,"o":"m 627 550 q 606 536 618 540 q 586 539 595 532 l 509 595 l 485 486 q 472 466 481 475 q 452 457 463 457 l 359 457 q 342 466 348 457 q 338 486 336 475 l 361 595 l 260 539 q 238 536 248 532 q 224 550 228 540 l 196 636 q 198 657 193 646 q 215 675 203 669 l 315 729 l 237 782 q 229 801 229 789 q 236 822 229 812 l 300 908 q 320 922 309 919 q 342 918 331 926 l 418 864 l 441 972 q 453 993 444 984 q 475 1002 463 1002 l 568 1002 q 585 993 578 1002 q 587 972 591 984 l 566 864 l 667 918 q 688 922 678 926 q 703 908 697 919 l 730 822 q 728 801 734 812 q 711 782 722 789 l 611 729 l 688 675 q 699 657 697 669 q 690 636 700 646 l 627 550 m 669 650 l 557 729 l 703 808 l 675 893 l 528 812 l 561 972 l 469 972 l 435 812 l 321 893 l 257 808 l 372 729 l 224 650 l 252 566 l 400 646 l 366 486 l 458 486 l 492 646 l 606 566 l 669 650 z "},"+":{"ha":633,"x_min":134,"x_max":678,"o":"m 464 347 l 429 182 q 416 161 426 170 q 395 153 407 153 l 302 153 q 284 161 291 153 q 281 182 277 170 l 315 347 l 160 347 q 141 356 149 347 q 138 376 134 365 l 158 473 q 171 494 161 486 q 192 503 181 503 l 349 503 l 383 668 q 396 689 387 681 q 418 697 406 697 l 510 697 q 529 689 522 697 q 532 668 535 681 l 497 503 l 654 503 q 672 494 666 503 q 675 473 678 486 l 656 376 q 642 356 652 365 q 621 347 632 347 l 464 347 m 627 376 l 647 473 l 463 473 l 504 668 l 412 668 l 371 473 l 186 473 l 165 376 l 350 376 l 309 182 l 401 182 l 441 376 l 627 376 z "},",":{"ha":334,"x_min":65,"x_max":314,"o":"m 192 -174 q 177 -192 187 -184 q 158 -200 168 -200 l 89 -200 q 72 -192 79 -200 q 66 -174 65 -184 l 92 167 q 104 190 94 180 q 127 199 115 199 l 289 199 q 308 190 302 199 q 310 167 314 180 l 192 -174 m 283 170 l 121 170 l 94 -171 l 164 -171 l 283 170 z "},"-":{"ha":633,"x_min":134,"x_max":678,"o":"m 160 347 q 141 356 149 347 q 138 376 134 365 l 158 473 q 171 494 161 486 q 192 503 181 503 l 654 503 q 672 494 666 503 q 675 473 678 486 l 656 376 q 642 356 652 365 q 621 347 632 347 l 160 347 m 627 376 l 647 473 l 186 473 l 165 376 l 627 376 z "},"­":{"ha":633,"x_min":134,"x_max":678,"o":"m 160 347 q 141 356 149 347 q 138 376 134 365 l 158 473 q 171 494 161 486 q 192 503 181 503 l 654 503 q 672 494 666 503 q 675 473 678 486 l 656 376 q 642 356 652 365 q 621 347 632 347 l 160 347 m 627 376 l 647 473 l 186 473 l 165 376 l 627 376 z "},".":{"ha":334,"x_min":54,"x_max":315,"o":"m 79 -29 q 61 -20 68 -29 q 57 0 54 -12 l 93 170 q 106 190 96 182 q 127 199 116 199 l 289 199 q 308 190 302 199 q 311 170 315 182 l 275 0 q 262 -20 272 -12 q 240 -29 253 -29 l 79 -29 m 248 0 l 283 170 l 121 170 l 85 0 l 248 0 z "},"/":{"ha":616,"x_min":12,"x_max":811,"o":"m 168 -115 q 149 -132 161 -127 q 127 -134 137 -138 l 28 -93 q 15 -77 18 -87 q 18 -54 12 -66 l 656 1088 q 675 1104 663 1099 q 694 1105 686 1109 l 794 1064 q 808 1049 805 1060 q 806 1026 811 1038 l 168 -115 m 781 1036 l 681 1078 l 43 -64 l 143 -106 l 781 1036 z "},":":{"ha":334,"x_min":54,"x_max":417,"o":"m 79 -29 q 61 -20 68 -29 q 57 0 54 -12 l 93 170 q 106 190 96 182 q 127 199 116 199 l 289 199 q 308 190 302 199 q 311 170 315 182 l 275 0 q 262 -20 272 -12 q 240 -29 253 -29 l 79 -29 m 182 457 q 164 466 172 457 q 160 486 157 475 l 197 656 q 210 676 199 668 q 231 685 220 685 l 393 685 q 411 676 405 685 q 414 656 417 668 l 378 486 q 365 466 374 475 q 345 457 356 457 l 182 457 m 350 486 l 386 656 l 225 656 l 189 486 l 350 486 m 248 0 l 283 170 l 121 170 l 85 0 l 248 0 z "},";":{"ha":334,"x_min":65,"x_max":417,"o":"m 182 457 q 164 466 172 457 q 160 486 157 475 l 197 656 q 210 676 199 668 q 231 685 220 685 l 393 685 q 411 676 405 685 q 414 656 417 668 l 378 486 q 365 466 374 475 q 345 457 356 457 l 182 457 m 192 -174 q 177 -192 187 -184 q 158 -200 168 -200 l 89 -200 q 72 -192 79 -200 q 66 -174 65 -184 l 92 167 q 104 190 94 180 q 127 199 115 199 l 289 199 q 308 190 302 199 q 310 167 314 180 l 192 -174 m 350 486 l 386 656 l 225 656 l 189 486 l 350 486 m 283 170 l 121 170 l 94 -171 l 164 -171 l 283 170 z "},";":{"ha":334,"x_min":65,"x_max":417,"o":"m 182 457 q 164 466 172 457 q 160 486 157 475 l 197 656 q 210 676 199 668 q 231 685 220 685 l 393 685 q 411 676 405 685 q 414 656 417 668 l 378 486 q 365 466 374 475 q 345 457 356 457 l 182 457 m 192 -174 q 177 -192 187 -184 q 158 -200 168 -200 l 89 -200 q 72 -192 79 -200 q 66 -174 65 -184 l 92 167 q 104 190 94 180 q 127 199 115 199 l 289 199 q 308 190 302 199 q 310 167 314 180 l 192 -174 m 350 486 l 386 656 l 225 656 l 189 486 l 350 486 m 283 170 l 121 170 l 94 -171 l 164 -171 l 283 170 z "},"<":{"ha":608,"x_min":136,"x_max":693,"o":"m 517 96 q 496 83 507 85 q 475 87 484 81 l 146 353 q 139 363 142 355 q 138 376 136 371 l 158 473 q 165 487 159 479 q 176 498 171 495 l 618 762 q 641 767 631 770 q 656 754 651 765 l 689 673 q 688 651 693 663 q 673 633 683 640 l 325 425 l 585 218 q 593 199 593 211 q 583 178 592 187 l 517 96 m 564 193 l 273 425 l 663 657 l 629 739 l 186 473 l 165 376 l 497 111 l 564 193 z "},"=":{"ha":633,"x_min":112,"x_max":702,"o":"m 136 237 q 118 246 125 237 q 114 267 112 255 l 135 364 q 148 385 138 376 q 170 393 158 393 l 631 393 q 649 385 642 393 q 653 364 655 376 l 632 267 q 619 246 629 255 q 597 237 610 237 l 136 237 m 182 457 q 164 466 172 457 q 160 486 157 475 l 180 583 q 194 604 184 595 q 215 612 203 612 l 676 612 q 695 604 689 612 q 699 583 702 595 l 677 486 q 666 466 675 475 q 644 457 656 457 l 182 457 m 650 486 l 671 583 l 208 583 l 189 486 l 650 486 m 604 267 l 625 364 l 163 364 l 142 267 l 604 267 z "},">":{"ha":608,"x_min":96,"x_max":653,"o":"m 170 87 q 148 83 159 81 q 134 96 138 85 l 100 178 q 100 199 96 187 q 117 218 105 211 l 464 425 l 205 633 q 197 651 196 640 q 205 673 197 663 l 273 754 q 294 767 282 765 q 313 762 305 770 l 644 498 q 650 487 648 495 q 652 473 653 479 l 631 376 q 623 363 629 371 q 614 353 617 355 l 170 87 m 603 376 l 624 473 l 293 739 l 225 657 l 515 425 l 126 193 l 160 111 l 603 376 z "},"?":{"ha":679,"x_min":112,"x_max":788,"o":"m 138 -29 q 118 -20 125 -29 q 115 0 112 -12 l 151 170 q 164 190 155 182 q 186 199 174 199 l 347 199 q 366 190 359 199 q 370 170 373 182 l 334 0 q 320 -20 330 -12 q 298 -29 310 -29 l 138 -29 m 777 729 q 734 625 764 673 q 659 538 705 577 q 563 477 612 497 q 460 457 513 457 l 393 457 l 349 289 q 335 271 345 279 q 315 262 325 262 l 245 262 q 228 271 234 262 q 224 289 222 279 l 268 606 q 280 627 270 618 q 302 636 290 636 l 497 636 q 520 646 510 636 q 534 668 531 656 q 531 690 538 681 q 510 700 524 700 l 233 700 q 215 709 222 700 q 212 729 209 718 l 264 972 q 276 993 266 984 q 297 1002 287 1002 l 575 1002 q 741 921 682 1002 q 780 833 771 881 q 777 729 788 786 m 749 729 q 717 900 769 829 q 654 954 691 936 q 568 972 617 972 l 292 972 l 240 729 l 518 729 q 554 711 541 729 q 562 668 568 693 q 552 645 559 656 q 535 626 545 634 q 514 612 526 617 q 490 607 503 607 l 296 607 l 252 292 l 321 292 l 374 486 l 465 486 q 644 558 559 486 q 749 729 725 629 m 306 0 l 342 170 l 179 170 l 143 0 l 306 0 z "},"@":{"ha":1095,"x_min":34,"x_max":1217,"o":"m 733 374 q 727 412 739 397 q 694 427 716 427 l 607 427 q 582 421 595 427 q 558 408 570 416 q 539 387 547 399 q 526 363 530 376 q 507 294 514 317 q 500 267 500 270 q 506 227 494 243 q 539 211 517 211 l 625 211 q 650 216 637 211 q 673 230 662 221 q 692 251 684 239 q 704 277 701 263 q 725 345 719 321 q 733 374 732 368 m 1089 243 q 1048 138 1076 185 q 972 50 1019 90 q 876 -10 925 9 q 772 -29 827 -29 l 646 -29 q 624 -16 629 -29 q 524 -31 583 -31 l 493 -31 q 480 -29 486 -29 q 471 -29 475 -29 q 403 -16 433 -29 q 351 26 372 -2 q 325 167 309 83 q 327 174 325 168 q 332 186 328 180 l 330 184 l 412 458 q 451 538 426 501 q 514 607 476 576 q 591 651 551 636 q 673 667 631 667 l 760 667 q 879 612 837 667 q 905 472 923 558 q 903 465 904 470 q 899 452 902 459 l 899 453 l 799 114 l 838 114 q 874 121 857 114 q 905 141 891 128 q 930 170 920 153 q 945 207 941 187 l 1064 765 q 1064 801 1067 784 q 1052 831 1061 819 q 1028 851 1042 844 q 996 859 1014 859 l 464 859 q 428 851 446 859 q 396 831 411 844 q 371 801 382 819 q 357 765 361 784 l 187 -36 q 186 -72 183 -56 q 198 -102 189 -89 q 222 -122 208 -115 q 254 -129 236 -129 l 865 -129 q 883 -137 877 -129 q 888 -158 890 -146 l 869 -243 q 857 -263 867 -254 q 835 -272 846 -272 l 257 -272 q 92 -192 151 -272 q 57 0 34 -113 l 212 729 q 328 921 235 841 q 529 1002 420 1002 l 990 1002 q 1156 921 1098 1002 q 1192 729 1217 840 l 1089 243 m 1061 243 l 1164 729 q 1166 822 1175 780 q 1132 900 1158 864 q 985 972 1079 972 l 522 972 q 345 900 427 972 q 276 822 302 864 q 240 729 251 780 l 85 0 q 115 -171 63 -100 q 178 -225 141 -208 q 264 -243 216 -243 l 840 -243 l 860 -158 l 248 -158 q 205 -149 224 -158 q 174 -122 186 -139 q 158 -83 162 -106 q 160 -36 154 -61 l 329 765 q 349 812 335 790 q 382 851 363 835 q 424 878 401 868 q 471 888 447 888 l 1002 888 q 1044 878 1025 888 q 1075 851 1063 868 q 1092 812 1088 835 q 1092 765 1097 790 l 972 207 q 953 159 966 181 q 921 120 939 136 q 879 94 902 104 q 831 85 856 85 l 762 85 l 872 456 q 875 466 874 462 q 878 472 876 471 q 856 590 893 544 q 753 637 823 637 l 667 637 q 528 585 596 637 q 473 525 495 557 q 440 456 451 493 l 358 182 q 354 172 355 176 q 354 167 354 168 q 374 47 340 97 q 418 12 393 24 q 478 0 444 0 q 488 0 482 0 q 503 -1 495 0 l 529 -1 q 669 61 649 -1 l 652 0 l 778 0 q 957 71 873 0 q 1024 149 999 106 q 1061 243 1050 192 m 760 374 q 752 343 758 368 q 733 273 746 319 q 715 238 727 255 q 687 209 703 222 q 653 189 671 197 q 618 182 635 182 l 532 182 q 502 188 515 182 q 481 206 489 195 q 470 233 473 218 q 471 267 467 248 q 479 295 472 271 q 500 364 486 320 q 517 399 505 382 q 545 428 529 416 q 578 448 560 441 q 614 456 596 456 l 700 456 q 751 433 734 456 q 760 374 768 410 z "},"A":{"ha":749,"x_min":54,"x_max":869,"o":"m 313 393 l 604 393 l 648 607 q 649 644 652 627 q 637 673 646 661 q 613 693 627 686 q 579 700 598 700 l 464 700 q 428 693 446 700 q 396 673 411 686 q 371 643 382 660 q 357 607 361 626 l 313 393 m 541 -29 q 524 -20 530 -29 q 519 0 517 -12 l 566 214 l 273 214 l 228 0 q 216 -20 226 -12 q 195 -29 206 -29 l 79 -29 q 61 -20 68 -29 q 57 0 54 -12 l 212 729 q 329 921 235 842 q 529 1002 422 1002 l 644 1002 q 741 982 699 1002 q 811 922 782 963 q 846 729 869 843 l 690 0 q 677 -20 687 -12 q 656 -29 668 -29 l 541 -29 m 663 0 l 818 729 q 787 901 837 831 q 725 955 762 937 q 637 972 688 972 l 522 972 q 345 900 429 972 q 240 729 261 829 l 85 0 l 200 0 l 253 243 l 599 243 l 547 0 l 663 0 m 625 364 l 278 364 l 329 607 q 349 654 335 632 q 382 693 363 677 q 424 720 401 710 q 471 729 447 729 l 587 729 q 631 720 612 729 q 662 694 650 710 q 677 655 673 677 q 675 607 681 633 l 625 364 z "},"B":{"ha":749,"x_min":54,"x_max":869,"o":"m 532 335 q 532 358 534 347 q 524 378 530 370 q 509 391 518 387 q 488 396 500 396 l 313 396 l 286 272 l 461 272 q 485 277 473 272 q 506 290 496 281 q 523 310 516 299 q 532 335 530 321 m 597 637 q 598 662 600 650 q 590 682 596 673 q 573 695 583 690 q 551 700 564 700 l 376 700 l 351 576 l 526 576 q 550 581 538 576 q 571 594 562 586 q 588 614 581 603 q 597 637 595 625 m 743 243 q 701 139 730 186 q 625 52 671 92 q 425 -29 534 -29 l 79 -29 q 61 -20 68 -29 q 57 0 54 -12 l 264 972 q 276 993 266 984 q 297 1002 287 1002 l 644 1002 q 810 921 752 1002 q 846 729 869 842 l 842 717 q 813 634 833 673 q 758 558 792 595 l 760 558 q 718 518 740 536 q 672 486 696 500 q 741 385 723 448 q 743 243 759 321 m 714 243 q 720 323 723 285 q 704 394 718 362 q 666 450 690 426 q 607 486 642 473 q 679 520 645 498 q 741 575 712 543 q 788 642 770 606 q 814 717 806 678 l 818 729 q 786 900 837 829 q 723 954 760 936 q 637 972 686 972 l 292 972 l 85 0 l 432 0 q 610 72 527 0 q 714 243 692 142 m 627 637 q 612 602 623 618 q 586 574 601 586 q 554 554 572 562 q 519 547 537 547 l 317 547 l 355 729 l 558 729 q 590 722 576 729 q 614 702 604 715 q 627 673 623 690 q 627 637 630 656 m 559 335 q 546 299 556 316 q 521 270 535 283 q 490 250 507 258 q 456 243 473 243 l 253 243 l 290 425 l 493 425 q 524 418 510 425 q 548 398 538 410 q 560 370 557 386 q 559 335 564 353 z "},"C":{"ha":749,"x_min":96,"x_max":899,"o":"m 310 -29 q 215 -9 255 -29 q 144 52 175 11 q 105 139 114 92 q 110 243 96 186 l 212 729 q 329 921 235 842 q 529 1002 422 1002 l 875 1002 q 893 993 886 1002 q 897 972 899 984 l 846 729 q 832 709 842 718 q 811 700 823 700 l 464 700 q 428 693 446 700 q 396 673 411 686 q 371 643 382 660 q 357 607 361 626 l 306 364 q 305 329 302 345 q 318 299 309 312 q 341 279 327 287 q 374 272 355 272 l 721 272 q 739 263 732 272 q 743 243 745 254 l 690 0 q 677 -20 687 -12 q 656 -29 668 -29 l 310 -29 m 663 0 l 714 243 l 368 243 q 326 252 345 243 q 294 278 307 262 q 277 317 282 295 q 278 364 273 339 l 329 607 q 349 654 335 632 q 382 693 363 677 q 424 720 401 710 q 471 729 447 729 l 818 729 l 869 972 l 522 972 q 345 900 429 972 q 240 729 261 829 l 138 243 q 170 72 115 144 q 232 18 195 35 q 315 0 269 0 l 663 0 z "},"D":{"ha":749,"x_min":54,"x_max":869,"o":"m 648 607 q 649 643 652 626 q 636 673 646 660 q 612 693 627 686 q 579 700 597 700 l 376 700 l 286 272 l 490 272 q 526 279 509 272 q 558 299 544 286 q 583 328 573 311 q 597 364 593 345 l 648 607 m 743 243 q 701 138 730 185 q 627 50 673 90 q 530 -10 579 9 q 425 -29 480 -29 l 79 -29 q 61 -20 68 -29 q 57 0 54 -12 l 264 972 q 276 993 266 984 q 297 1002 287 1002 l 644 1002 q 810 921 752 1002 q 846 729 869 842 l 743 243 m 714 243 l 818 729 q 786 900 837 829 q 723 954 760 936 q 637 972 686 972 l 292 972 l 85 0 l 432 0 q 525 18 481 0 q 610 71 569 35 q 714 243 693 142 m 625 364 q 606 316 619 338 q 573 278 592 294 q 531 252 554 262 q 484 243 508 243 l 253 243 l 355 729 l 587 729 q 630 720 612 729 q 661 693 649 710 q 677 654 673 677 q 675 607 681 632 l 625 364 z "},"E":{"ha":633,"x_min":83,"x_max":784,"o":"m 310 -29 q 214 -10 255 -29 q 143 50 172 9 q 110 243 83 130 l 264 972 q 276 993 266 984 q 297 1002 287 1002 l 760 1002 q 778 993 771 1002 q 782 972 784 984 l 730 729 q 717 709 727 718 q 694 700 707 700 l 376 700 l 351 576 l 554 576 q 572 568 566 576 q 576 547 578 559 l 549 425 q 537 405 547 414 q 515 396 527 396 l 313 396 l 306 364 q 305 328 302 345 q 318 299 309 311 q 341 279 327 286 q 374 272 355 272 l 606 272 q 623 263 617 272 q 627 243 629 254 l 575 0 q 562 -20 572 -12 q 541 -29 553 -29 l 310 -29 m 547 0 l 599 243 l 368 243 q 325 252 344 243 q 293 278 305 262 q 277 316 281 294 q 278 364 273 338 l 290 425 l 521 425 l 549 547 l 317 547 l 355 729 l 703 729 l 753 972 l 292 972 l 138 243 q 167 71 115 142 q 315 0 219 0 l 547 0 z "},"F":{"ha":604,"x_min":54,"x_max":784,"o":"m 464 700 q 428 693 445 700 q 396 673 410 686 q 371 644 382 661 q 357 607 361 627 l 351 576 l 554 576 q 572 568 566 576 q 576 547 578 559 l 549 425 q 537 405 547 414 q 515 396 527 396 l 313 396 l 228 0 q 216 -20 226 -12 q 195 -29 206 -29 l 79 -29 q 61 -20 68 -29 q 57 0 54 -12 l 212 729 q 328 922 235 842 q 425 982 376 963 q 529 1002 474 1002 l 760 1002 q 778 993 771 1002 q 782 972 784 984 l 730 729 q 717 709 727 718 q 694 700 707 700 l 464 700 m 703 729 l 753 972 l 522 972 q 345 901 426 972 q 276 823 302 866 q 240 729 251 781 l 85 0 l 200 0 l 290 425 l 521 425 l 549 547 l 317 547 l 329 607 q 349 655 335 633 q 381 694 362 677 q 423 720 400 710 q 471 729 446 729 l 703 729 z "},"G":{"ha":749,"x_min":96,"x_max":899,"o":"m 464 700 q 428 693 446 700 q 396 673 411 686 q 371 643 382 660 q 357 607 361 626 l 306 364 q 305 329 302 345 q 318 299 309 312 q 341 279 327 287 q 374 272 355 272 l 567 272 l 591 396 l 458 396 q 440 405 446 396 q 436 425 434 414 l 463 547 q 475 568 465 559 q 497 576 485 576 l 774 576 q 792 568 785 576 q 796 547 798 559 l 679 0 q 666 -20 675 -12 q 646 -29 656 -29 l 310 -29 q 215 -9 255 -29 q 144 52 175 11 q 105 139 114 92 q 110 243 96 186 l 212 729 q 329 921 235 842 q 529 1002 422 1002 l 875 1002 q 893 993 886 1002 q 897 972 899 984 l 846 729 q 832 709 842 718 q 811 700 823 700 l 464 700 m 818 729 l 869 972 l 522 972 q 345 900 429 972 q 240 729 261 829 l 138 243 q 170 72 115 144 q 232 18 195 35 q 315 0 269 0 l 652 0 l 768 547 l 490 547 l 464 425 l 627 425 l 587 243 l 368 243 q 326 252 345 243 q 294 278 307 262 q 277 317 282 295 q 278 364 273 339 l 329 607 q 349 654 335 632 q 382 693 363 677 q 424 720 401 710 q 471 729 447 729 l 818 729 z "},"H":{"ha":749,"x_min":54,"x_max":899,"o":"m 541 -29 q 524 -20 530 -29 q 519 0 517 -12 l 591 335 l 300 335 l 228 0 q 216 -20 226 -12 q 195 -29 206 -29 l 79 -29 q 61 -20 68 -29 q 57 0 54 -12 l 264 972 q 276 993 266 984 q 297 1002 287 1002 l 412 1002 q 432 993 425 1002 q 435 972 438 984 l 364 636 l 656 636 l 726 972 q 739 993 730 984 q 760 1002 748 1002 l 875 1002 q 893 993 886 1002 q 897 972 899 984 l 690 0 q 677 -20 687 -12 q 656 -29 668 -29 l 541 -29 m 663 0 l 869 972 l 753 972 l 675 607 l 329 607 l 407 972 l 292 972 l 85 0 l 200 0 l 278 364 l 625 364 l 547 0 l 663 0 z "},"I":{"ha":403,"x_min":54,"x_max":553,"o":"m 79 -29 q 61 -20 68 -29 q 57 0 54 -12 l 110 243 q 122 263 111 254 q 143 272 132 272 l 174 272 l 264 700 l 233 700 q 215 709 222 700 q 212 729 209 718 l 264 972 q 276 993 266 984 q 297 1002 287 1002 l 529 1002 q 547 993 541 1002 q 550 972 553 984 l 500 729 q 487 709 496 718 q 464 700 477 700 l 435 700 l 345 272 l 374 272 q 392 263 386 272 q 396 243 398 254 l 345 0 q 331 -20 341 -12 q 310 -29 321 -29 l 79 -29 m 315 0 l 368 243 l 311 243 l 414 729 l 471 729 l 522 972 l 292 972 l 240 729 l 298 729 l 196 243 l 138 243 l 85 0 l 315 0 z "},"J":{"ha":518,"x_min":54,"x_max":669,"o":"m 511 243 q 470 138 498 185 q 395 50 441 90 q 299 -10 349 9 q 195 -29 249 -29 l 79 -29 q 61 -20 68 -29 q 57 0 54 -12 l 110 243 q 122 263 111 254 q 143 272 132 272 l 258 272 q 295 279 277 272 q 327 299 313 286 q 352 328 342 311 q 367 364 363 345 l 437 700 l 233 700 q 215 709 222 700 q 212 729 209 718 l 264 972 q 276 993 266 984 q 297 1002 287 1002 l 644 1002 q 662 993 656 1002 q 665 972 669 984 l 511 243 m 484 243 l 637 972 l 292 972 l 240 729 l 471 729 l 393 364 q 374 316 388 338 q 342 278 361 294 q 300 252 323 262 q 253 243 277 243 l 138 243 l 85 0 l 200 0 q 294 18 250 0 q 379 71 338 35 q 484 243 463 142 z "},"K":{"ha":749,"x_min":54,"x_max":899,"o":"m 541 -29 q 524 -20 530 -29 q 519 0 517 -12 l 572 243 q 573 279 576 262 q 560 309 570 296 q 536 328 551 321 q 503 335 522 335 l 300 335 l 228 0 q 216 -20 226 -12 q 195 -29 206 -29 l 79 -29 q 61 -20 68 -29 q 57 0 54 -12 l 264 972 q 276 993 266 984 q 297 1002 287 1002 l 412 1002 q 432 993 425 1002 q 435 972 438 984 l 364 636 l 567 636 q 603 643 585 636 q 635 663 621 650 q 660 692 650 675 q 675 729 671 709 l 726 972 q 739 993 730 984 q 760 1002 748 1002 l 875 1002 q 893 993 886 1002 q 897 972 899 984 l 840 704 q 787 581 825 638 q 692 486 748 524 q 746 390 732 448 q 747 267 761 332 l 690 0 q 677 -20 687 -12 q 656 -29 668 -29 l 541 -29 m 663 0 l 720 267 q 725 335 727 302 q 712 397 723 368 q 683 448 702 425 q 637 486 664 471 q 699 524 670 501 q 750 575 727 547 q 788 636 772 604 q 811 704 804 669 l 869 972 l 753 972 l 703 729 q 683 681 696 703 q 650 642 669 659 q 608 616 631 626 q 559 607 585 607 l 329 607 l 407 972 l 292 972 l 85 0 l 200 0 l 278 364 l 510 364 q 553 355 534 364 q 584 330 572 346 q 600 291 596 313 q 599 243 604 269 l 547 0 l 663 0 z "},"L":{"ha":633,"x_min":83,"x_max":629,"o":"m 310 -29 q 214 -10 255 -29 q 143 50 172 9 q 110 243 83 130 l 264 972 q 276 993 266 984 q 297 1002 287 1002 l 412 1002 q 432 993 425 1002 q 435 972 438 984 l 306 364 q 305 328 302 345 q 318 299 309 311 q 341 279 327 286 q 374 272 355 272 l 606 272 q 623 263 617 272 q 627 243 629 254 l 575 0 q 562 -20 572 -12 q 541 -29 553 -29 l 310 -29 m 547 0 l 599 243 l 368 243 q 325 252 344 243 q 293 278 305 262 q 277 316 281 294 q 278 364 273 338 l 407 972 l 292 972 l 138 243 q 167 71 115 142 q 315 0 219 0 l 547 0 z "},"M":{"ha":1210,"x_min":54,"x_max":1332,"o":"m 1003 -29 q 984 -20 991 -29 q 981 0 977 -12 l 1109 607 q 1111 643 1114 626 q 1098 673 1107 660 q 1075 693 1089 686 q 1042 700 1060 700 l 926 700 q 890 693 907 700 q 859 673 873 686 q 834 644 844 661 q 819 607 823 627 l 690 0 q 677 -20 687 -12 q 656 -29 668 -29 l 541 -29 q 524 -20 530 -29 q 519 0 517 -12 l 648 607 q 649 644 652 627 q 637 673 646 661 q 613 693 627 686 q 579 700 598 700 l 464 700 q 428 693 446 700 q 396 673 411 686 q 371 643 382 660 q 357 607 361 626 l 228 0 q 216 -20 226 -12 q 195 -29 206 -29 l 79 -29 q 61 -20 68 -29 q 57 0 54 -12 l 212 729 q 329 921 235 842 q 529 1002 422 1002 l 597 1002 q 662 993 631 1002 q 717 967 692 984 q 761 927 742 951 q 791 875 780 904 q 844 927 815 904 q 904 967 872 951 q 969 993 935 984 q 1036 1002 1002 1002 l 1105 1002 q 1271 921 1213 1002 q 1307 729 1332 840 l 1152 0 q 1140 -20 1149 -12 q 1118 -29 1130 -29 l 1003 -29 m 1124 0 l 1279 729 q 1282 822 1290 780 q 1249 900 1274 864 q 1185 954 1221 936 q 1100 972 1148 972 l 1031 972 q 956 961 993 972 q 886 928 919 949 q 824 876 852 906 q 777 807 796 845 q 758 876 772 845 q 718 928 743 906 q 662 961 694 949 q 591 972 629 972 l 522 972 q 345 900 429 972 q 240 729 261 829 l 85 0 l 200 0 l 329 607 q 349 654 335 632 q 382 693 363 677 q 424 720 401 710 q 471 729 447 729 l 587 729 q 631 720 612 729 q 662 694 650 710 q 677 655 673 677 q 675 607 681 633 l 547 0 l 663 0 l 791 607 q 810 655 797 633 q 843 694 824 677 q 886 720 863 710 q 933 729 909 729 l 1048 729 q 1091 720 1072 729 q 1122 693 1110 710 q 1138 654 1134 677 q 1137 607 1143 632 l 1008 0 l 1124 0 z "},"N":{"ha":749,"x_min":54,"x_max":869,"o":"m 541 -29 q 524 -20 530 -29 q 519 0 517 -12 l 648 607 q 649 644 652 627 q 637 673 646 661 q 613 693 627 686 q 579 700 598 700 l 464 700 q 428 693 446 700 q 396 673 411 686 q 371 643 382 660 q 357 607 361 626 l 228 0 q 216 -20 226 -12 q 195 -29 206 -29 l 79 -29 q 61 -20 68 -29 q 57 0 54 -12 l 212 729 q 328 921 235 841 q 529 1002 420 1002 l 644 1002 q 741 982 699 1002 q 811 922 782 963 q 846 729 869 843 l 690 0 q 677 -20 687 -12 q 656 -29 668 -29 l 541 -29 m 663 0 l 818 729 q 787 901 837 831 q 725 955 762 937 q 637 972 688 972 l 522 972 q 345 900 427 972 q 276 822 302 864 q 240 729 251 780 l 85 0 l 200 0 l 329 607 q 349 654 335 632 q 382 693 363 677 q 424 720 401 710 q 471 729 447 729 l 587 729 q 631 720 612 729 q 662 694 650 710 q 677 655 673 677 q 675 607 681 633 l 547 0 l 663 0 z "},"O":{"ha":749,"x_min":82,"x_max":869,"o":"m 648 607 q 649 643 652 626 q 636 673 646 660 q 612 693 627 686 q 579 700 597 700 l 464 700 q 428 693 446 700 q 396 673 411 686 q 371 643 382 660 q 357 607 361 626 l 306 364 q 305 329 302 345 q 318 299 309 312 q 341 279 327 287 q 374 272 355 272 l 490 272 q 526 279 509 272 q 558 299 544 286 q 583 328 573 311 q 597 364 593 345 l 648 607 m 743 243 q 701 138 730 185 q 627 50 673 90 q 530 -10 579 9 q 425 -29 480 -29 l 310 -29 q 214 -10 255 -29 q 143 50 172 9 q 110 243 82 130 l 212 729 q 328 921 235 841 q 529 1002 420 1002 l 644 1002 q 810 921 752 1002 q 846 729 869 842 l 743 243 m 714 243 l 818 729 q 786 900 837 829 q 723 954 760 936 q 637 972 686 972 l 522 972 q 345 900 427 972 q 276 822 302 864 q 240 729 251 780 l 138 243 q 167 71 114 143 q 231 18 193 35 q 315 0 269 0 l 432 0 q 525 18 481 0 q 610 71 569 35 q 714 243 693 142 m 625 364 q 606 316 619 338 q 573 278 592 294 q 531 252 554 262 q 484 243 508 243 l 368 243 q 326 252 345 243 q 294 278 307 262 q 277 317 282 295 q 278 364 273 339 l 329 607 q 349 654 335 632 q 382 693 363 677 q 424 720 401 710 q 471 729 447 729 l 587 729 q 630 720 612 729 q 661 693 649 710 q 677 654 673 677 q 675 607 681 632 l 625 364 z "},"P":{"ha":749,"x_min":54,"x_max":869,"o":"m 597 637 q 598 662 600 650 q 590 682 596 673 q 573 695 583 690 q 551 700 564 700 l 376 700 l 351 576 l 526 576 q 550 581 538 576 q 571 594 562 586 q 588 614 581 603 q 597 637 595 625 m 832 668 q 714 476 808 555 q 620 416 669 435 q 515 396 570 396 l 313 396 l 228 0 q 216 -20 226 -12 q 195 -29 206 -29 l 79 -29 q 61 -20 68 -29 q 57 0 54 -12 l 264 972 q 276 993 266 984 q 297 1002 287 1002 l 644 1002 q 810 921 752 1002 q 846 729 869 842 l 832 668 m 804 668 l 818 729 q 786 900 837 829 q 723 954 760 936 q 637 972 686 972 l 292 972 l 85 0 l 200 0 l 290 425 l 521 425 q 614 444 570 425 q 700 497 659 462 q 767 575 741 533 q 804 668 793 618 m 627 637 q 612 602 623 618 q 586 574 601 586 q 554 554 572 562 q 519 547 537 547 l 317 547 l 355 729 l 558 729 q 590 722 576 729 q 614 702 604 715 q 627 673 623 690 q 627 637 630 656 z "},"Q":{"ha":749,"x_min":96,"x_max":869,"o":"m 648 607 q 649 643 652 626 q 636 673 646 660 q 612 693 627 686 q 579 700 597 700 l 464 700 q 428 693 446 700 q 396 673 411 686 q 371 643 382 660 q 357 607 361 626 l 306 364 q 305 329 302 345 q 318 299 309 312 q 341 279 327 287 q 374 272 355 272 l 490 272 q 526 279 509 272 q 558 299 544 286 q 583 328 573 311 q 597 364 593 345 l 648 607 m 463 -395 q 367 -375 408 -395 q 296 -315 326 -355 q 259 -227 267 -275 q 264 -122 252 -180 l 283 -28 q 144 50 193 -20 q 105 138 114 90 q 110 243 96 186 l 212 729 q 329 921 235 842 q 529 1002 422 1002 l 644 1002 q 810 921 752 1002 q 846 729 869 842 l 743 243 q 701 138 730 185 q 627 50 673 90 q 457 -26 546 -18 q 478 -74 459 -56 q 528 -93 497 -93 l 643 -93 q 661 -101 654 -93 q 665 -122 667 -110 l 612 -366 q 600 -386 609 -377 q 578 -395 591 -395 l 463 -395 m 585 -366 l 636 -122 l 521 -122 q 477 -113 496 -122 q 446 -87 458 -103 q 430 -48 434 -71 q 432 0 426 -26 q 525 18 481 0 q 610 71 569 35 q 714 243 693 142 l 818 729 q 786 900 837 829 q 723 954 760 936 q 637 972 686 972 l 522 972 q 345 900 429 972 q 240 729 261 829 l 138 243 q 134 150 126 193 q 168 71 142 106 q 315 0 220 0 l 290 -122 q 321 -294 270 -225 q 469 -366 370 -366 l 585 -366 m 625 364 q 606 316 619 338 q 573 278 592 294 q 531 252 554 262 q 484 243 508 243 l 368 243 q 326 252 345 243 q 294 278 307 262 q 277 317 282 295 q 278 364 273 339 l 329 607 q 349 654 335 632 q 382 693 363 677 q 424 720 401 710 q 471 729 447 729 l 587 729 q 630 720 612 729 q 661 693 649 710 q 677 654 673 677 q 675 607 681 632 l 625 364 z "},"R":{"ha":749,"x_min":54,"x_max":869,"o":"m 597 637 q 598 662 600 650 q 590 682 596 673 q 573 695 583 690 q 551 700 564 700 l 376 700 l 351 576 l 526 576 q 550 581 538 576 q 571 594 562 586 q 588 614 581 603 q 597 637 595 625 m 541 -29 q 524 -20 530 -29 q 519 0 517 -12 l 575 256 q 577 310 581 286 q 562 354 574 334 l 564 354 q 532 386 552 376 q 488 396 513 396 l 313 396 l 228 0 q 216 -20 226 -12 q 195 -29 206 -29 l 79 -29 q 61 -20 68 -29 q 57 0 54 -12 l 264 972 q 276 993 266 984 q 297 1002 287 1002 l 644 1002 q 810 921 752 1002 q 846 729 869 842 q 784 588 828 652 q 672 486 739 524 q 742 391 724 450 q 745 256 760 332 l 690 0 q 677 -20 687 -12 q 656 -29 668 -29 l 541 -29 m 663 0 l 717 256 q 723 334 726 297 q 706 400 720 370 q 667 451 692 429 q 607 486 642 473 q 682 523 647 499 q 743 578 716 547 q 789 649 770 610 q 818 729 808 687 q 786 900 837 829 q 723 954 760 936 q 637 972 686 972 l 292 972 l 85 0 l 200 0 l 290 425 l 493 425 q 587 374 559 425 q 602 256 616 325 l 547 0 l 663 0 m 627 637 q 612 602 623 618 q 586 574 601 586 q 554 554 572 562 q 519 547 537 547 l 317 547 l 355 729 l 558 729 q 590 722 576 729 q 614 702 604 715 q 627 673 623 690 q 627 637 630 656 z "},"S":{"ha":749,"x_min":54,"x_max":899,"o":"m 743 243 q 701 139 730 186 q 625 52 671 92 q 425 -29 534 -29 l 79 -29 q 61 -20 68 -29 q 57 0 54 -12 l 110 243 q 122 263 111 254 q 143 272 132 272 l 461 272 q 485 277 473 272 q 506 290 496 281 q 523 310 516 299 q 532 335 530 321 q 532 358 534 347 q 524 378 530 370 q 509 391 518 387 q 488 396 500 396 l 400 396 q 305 416 345 396 q 235 476 265 435 q 199 668 176 557 l 212 729 q 329 921 235 842 q 529 1002 422 1002 l 875 1002 q 893 993 886 1002 q 897 972 899 984 l 846 729 q 832 709 842 718 q 811 700 823 700 l 493 700 q 470 695 481 700 q 449 682 458 690 q 432 662 439 673 q 422 637 425 650 q 430 594 417 612 q 468 576 443 576 l 554 576 q 650 556 609 576 q 720 496 690 536 q 758 408 749 455 q 754 304 767 361 l 743 243 m 714 243 l 726 304 q 730 397 738 355 q 694 475 722 439 q 633 529 669 511 q 549 547 597 547 l 461 547 q 429 554 444 547 q 406 574 415 562 q 394 602 397 586 q 395 637 391 618 q 409 673 398 656 q 433 702 419 690 q 465 722 448 715 q 500 729 482 729 l 818 729 l 869 972 l 522 972 q 345 900 429 972 q 240 729 261 829 l 228 668 q 224 575 216 618 q 258 497 233 533 q 322 444 286 462 q 406 425 359 425 l 493 425 q 524 418 510 425 q 548 398 538 410 q 560 370 557 386 q 559 335 564 353 q 546 299 556 316 q 521 270 535 283 q 490 250 507 258 q 456 243 473 243 l 138 243 l 85 0 l 432 0 q 610 72 527 0 q 714 243 692 142 z "},"T":{"ha":690,"x_min":181,"x_max":870,"o":"m 578 700 l 431 0 q 418 -20 427 -12 q 397 -29 409 -29 l 282 -29 q 264 -20 271 -29 q 260 0 258 -12 l 408 700 l 205 700 q 187 709 193 700 q 184 729 181 718 l 236 972 q 248 993 238 984 q 269 1002 258 1002 l 847 1002 q 864 993 858 1002 q 868 972 870 984 l 817 729 q 803 709 813 718 q 782 700 793 700 l 578 700 m 790 729 l 840 972 l 264 972 l 212 729 l 443 729 l 288 0 l 403 0 l 558 729 l 790 729 z "},"U":{"ha":749,"x_min":82,"x_max":899,"o":"m 743 243 q 701 138 730 185 q 627 50 673 90 q 530 -10 579 9 q 425 -29 480 -29 l 310 -29 q 214 -10 255 -29 q 143 50 172 9 q 110 243 82 130 l 264 972 q 276 993 266 984 q 297 1002 287 1002 l 412 1002 q 432 993 425 1002 q 435 972 438 984 l 306 364 q 305 329 302 345 q 318 299 309 312 q 341 279 327 287 q 374 272 355 272 l 490 272 q 526 279 509 272 q 558 299 544 286 q 583 328 573 311 q 597 364 593 345 l 726 972 q 739 993 730 984 q 760 1002 748 1002 l 875 1002 q 893 993 886 1002 q 897 972 899 984 l 743 243 m 714 243 l 869 972 l 753 972 l 625 364 q 606 316 619 338 q 573 278 592 294 q 531 252 554 262 q 484 243 508 243 l 368 243 q 326 252 345 243 q 294 278 307 262 q 277 317 282 295 q 278 364 273 339 l 407 972 l 292 972 l 138 243 q 167 71 114 143 q 231 18 193 35 q 315 0 269 0 l 432 0 q 525 18 481 0 q 610 71 569 35 q 714 243 693 142 z "},"V":{"ha":749,"x_min":54,"x_max":899,"o":"m 743 243 q 701 138 730 185 q 627 50 673 90 q 530 -10 579 9 q 425 -29 480 -29 l 79 -29 q 61 -20 68 -29 q 57 0 54 -12 l 264 972 q 276 993 266 984 q 297 1002 287 1002 l 412 1002 q 432 993 425 1002 q 435 972 438 984 l 286 272 l 490 272 q 526 279 509 272 q 558 299 544 286 q 583 328 573 311 q 597 364 593 345 l 726 972 q 739 993 730 984 q 760 1002 748 1002 l 875 1002 q 893 993 886 1002 q 897 972 899 984 l 743 243 m 714 243 l 869 972 l 753 972 l 625 364 q 606 316 619 338 q 573 278 592 294 q 531 252 554 262 q 484 243 508 243 l 253 243 l 407 972 l 292 972 l 85 0 l 432 0 q 525 18 481 0 q 610 71 569 35 q 714 243 693 142 z "},"W":{"ha":1210,"x_min":96,"x_max":1362,"o":"m 1204 243 q 1162 139 1192 186 q 1086 52 1133 92 q 888 -29 995 -29 l 818 -29 q 699 4 749 -29 q 627 97 648 37 q 512 4 577 38 q 379 -29 447 -29 l 310 -29 q 215 -9 255 -29 q 144 52 175 11 q 105 139 114 92 q 110 243 96 186 l 264 972 q 276 993 266 984 q 297 1002 287 1002 l 412 1002 q 432 993 425 1002 q 435 972 438 984 l 306 364 q 305 329 302 345 q 318 299 309 312 q 341 279 327 287 q 374 272 355 272 l 490 272 q 526 279 509 272 q 558 299 544 286 q 583 328 573 311 q 597 364 593 345 l 726 972 q 739 993 730 984 q 760 1002 748 1002 l 875 1002 q 893 993 886 1002 q 897 972 899 984 l 768 364 q 767 328 764 345 q 779 299 770 311 q 803 279 788 286 q 836 272 817 272 l 951 272 q 987 279 970 272 q 1019 299 1004 287 q 1044 329 1034 312 q 1059 364 1055 345 l 1187 972 q 1200 993 1190 984 q 1221 1002 1211 1002 l 1336 1002 q 1355 993 1349 1002 q 1358 972 1362 984 l 1204 243 m 1177 243 l 1331 972 l 1215 972 l 1086 364 q 1067 317 1081 339 q 1035 278 1054 295 q 993 252 1016 262 q 946 243 970 243 l 831 243 q 786 252 806 243 q 755 278 767 262 q 739 316 743 294 q 741 364 734 338 l 869 972 l 753 972 l 625 364 q 606 316 619 338 q 573 278 592 294 q 531 252 554 262 q 484 243 508 243 l 368 243 q 326 252 345 243 q 294 278 307 262 q 277 317 282 295 q 278 364 273 339 l 407 972 l 292 972 l 138 243 q 170 72 115 144 q 232 18 195 35 q 315 0 269 0 l 385 0 q 460 12 422 0 q 531 44 497 23 q 592 97 564 66 q 640 165 621 127 q 658 97 643 127 q 697 44 673 66 q 754 12 722 23 q 823 0 786 0 l 893 0 q 1072 72 987 0 q 1177 243 1153 142 z "},"X":{"ha":749,"x_min":54,"x_max":899,"o":"m 587 -29 q 447 22 503 -29 q 416 57 429 38 q 395 98 403 75 q 311 22 361 53 q 149 -29 233 -29 l 79 -29 q 61 -20 68 -29 q 57 0 54 -12 l 110 243 q 122 263 111 254 q 143 272 132 272 l 258 272 q 294 279 277 272 q 327 299 312 287 q 352 329 341 312 q 367 364 363 345 l 418 607 q 418 643 422 626 q 406 673 415 660 q 381 693 396 686 q 349 700 367 700 l 233 700 q 215 709 222 700 q 212 729 209 718 l 264 972 q 276 993 266 984 q 297 1002 287 1002 l 367 1002 q 509 947 451 1002 l 509 949 q 538 914 525 933 q 559 872 551 895 q 644 949 595 918 l 644 947 q 724 988 683 975 q 806 1002 765 1002 l 875 1002 q 893 993 886 1002 q 897 972 899 984 l 846 729 q 832 709 842 718 q 811 700 823 700 l 694 700 q 659 693 676 700 q 627 673 642 686 q 602 643 612 660 q 587 607 591 626 l 538 364 q 537 329 534 345 q 549 299 540 312 q 573 279 558 287 q 606 272 587 272 l 721 272 q 739 263 732 272 q 743 243 745 254 l 690 0 q 677 -20 687 -12 q 656 -29 668 -29 l 587 -29 m 663 0 l 714 243 l 599 243 q 556 252 575 243 q 525 278 537 262 q 508 317 513 295 q 510 364 504 339 l 559 607 q 579 654 566 632 q 613 693 593 677 q 655 720 632 710 q 703 729 679 729 l 818 729 l 869 972 l 800 972 q 656 925 724 972 q 546 804 581 878 q 486 925 536 880 q 361 972 435 972 l 292 972 l 240 729 l 355 729 q 399 720 380 729 q 430 693 418 710 q 446 654 442 677 q 444 607 450 632 l 393 364 q 374 317 388 339 q 342 278 361 295 q 300 252 323 262 q 253 243 277 243 l 138 243 l 85 0 l 154 0 q 298 46 230 0 q 362 100 335 70 q 410 168 390 130 q 428 100 413 130 q 468 46 443 70 q 593 0 518 0 l 663 0 z "},"Y":{"ha":749,"x_min":146,"x_max":899,"o":"m 804 534 q 763 429 791 477 q 688 342 734 382 q 604 287 646 306 q 515 264 562 268 l 460 0 q 447 -20 456 -12 q 425 -29 437 -29 l 310 -29 q 293 -20 299 -29 q 289 0 287 -12 l 345 264 q 266 287 300 268 q 207 342 231 306 q 171 534 146 422 l 264 972 q 276 993 266 984 q 297 1002 287 1002 l 412 1002 q 432 993 425 1002 q 435 972 438 984 l 368 656 q 367 620 364 637 q 379 591 370 604 q 403 571 389 578 q 436 564 418 564 l 551 564 q 588 571 570 564 q 620 590 606 578 q 645 620 635 603 q 660 656 656 636 l 726 972 q 739 993 730 984 q 760 1002 748 1002 l 875 1002 q 893 993 886 1002 q 897 972 899 984 l 804 534 m 777 534 l 869 972 l 753 972 l 686 656 q 667 608 681 630 q 635 570 654 586 q 593 544 616 553 q 546 534 570 534 l 431 534 q 388 544 407 534 q 356 570 368 553 q 339 609 343 587 q 340 656 334 631 l 407 972 l 292 972 l 199 534 q 196 441 188 484 q 229 363 204 398 q 378 292 283 292 l 315 0 l 432 0 l 493 292 q 586 309 542 292 q 672 363 630 327 q 777 534 755 433 z "},"Z":{"ha":749,"x_min":54,"x_max":899,"o":"m 79 -29 q 61 -20 68 -29 q 57 0 54 -12 l 111 254 l 576 700 l 233 700 q 215 709 222 700 q 212 729 209 718 l 264 972 q 276 993 266 984 q 297 1002 287 1002 l 875 1002 q 893 993 886 1002 q 897 972 899 984 l 843 718 l 378 272 l 721 272 q 739 263 732 272 q 743 243 745 254 l 690 0 q 677 -20 687 -12 q 656 -29 668 -29 l 79 -29 m 663 0 l 714 243 l 311 243 l 818 729 l 869 972 l 292 972 l 240 729 l 646 729 l 138 243 l 85 0 l 663 0 z "},"[":{"ha":460,"x_min":28,"x_max":578,"o":"m 53 -151 q 35 -142 42 -151 q 32 -122 28 -134 l 289 1093 q 302 1114 292 1105 q 323 1122 312 1122 l 554 1122 q 572 1114 566 1122 q 576 1093 578 1105 l 525 850 q 512 829 522 838 q 490 821 503 821 l 403 821 l 260 150 l 347 150 q 367 142 360 150 q 370 121 373 134 l 318 -122 q 306 -142 316 -134 q 285 -151 296 -151 l 53 -151 m 290 -122 l 342 121 l 227 121 l 382 850 l 497 850 l 549 1093 l 317 1093 l 60 -122 l 290 -122 z "},"\\":{"ha":616,"x_min":246,"x_max":577,"o":"m 432 -134 q 412 -132 421 -138 q 401 -115 403 -127 l 249 1026 q 254 1049 246 1038 q 273 1064 262 1060 l 390 1105 q 411 1104 401 1109 q 422 1088 421 1099 l 575 -54 q 569 -77 577 -66 q 549 -93 562 -87 l 432 -134 m 547 -64 l 395 1078 l 277 1036 l 429 -106 l 547 -64 z "},"]":{"ha":460,"x_min":87,"x_max":637,"o":"m 111 -151 q 93 -142 100 -151 q 90 -122 87 -134 l 140 121 q 154 142 144 134 q 175 150 163 150 l 262 150 l 406 821 l 318 821 q 300 829 307 821 q 296 850 294 838 l 347 1093 q 360 1114 351 1105 q 382 1122 370 1122 l 612 1122 q 630 1114 623 1122 q 635 1093 637 1105 l 376 -122 q 364 -142 374 -134 q 343 -151 353 -151 l 111 -151 m 349 -122 l 607 1093 l 375 1093 l 325 850 l 440 850 l 285 121 l 170 121 l 118 -122 l 349 -122 z "},"^":{"ha":639,"x_min":169,"x_max":696,"o":"m 579 461 q 558 461 569 457 q 546 476 548 465 l 484 771 l 296 476 q 278 461 290 465 q 257 461 267 457 l 180 501 q 170 518 171 507 q 175 541 169 530 l 457 985 q 471 996 461 991 q 486 1002 480 1002 l 578 1002 q 592 996 585 1002 q 600 985 599 991 l 694 541 q 690 518 696 530 q 673 501 684 507 l 579 461 m 665 529 l 572 972 l 481 972 l 197 529 l 273 489 l 498 842 l 574 489 l 665 529 z "},"_":{"ha":547,"x_min":0,"x_max":547,"o":"m 0 0 l 0 121 l 547 121 l 547 0 l 0 0 z "},"`":{"ha":334,"x_min":261,"x_max":446,"o":"m 342 772 q 329 777 336 772 q 321 787 322 782 l 264 957 q 263 973 261 965 q 270 987 265 981 q 282 998 275 994 q 297 1002 289 1002 l 390 1002 q 404 996 397 1002 q 412 983 410 989 l 444 812 q 445 797 446 804 q 438 785 443 790 q 426 776 433 779 q 411 772 419 772 l 342 772 m 416 802 l 383 972 l 292 972 l 347 802 l 416 802 z "},"a":{"ha":749,"x_min":96,"x_max":832,"o":"m 624 486 q 612 552 632 526 q 554 578 592 578 l 439 578 q 403 571 420 578 q 371 551 386 564 q 346 522 357 539 q 332 486 336 505 l 306 364 q 305 329 302 345 q 318 299 309 312 q 341 279 327 287 q 374 272 355 272 l 490 272 q 526 279 509 272 q 558 299 544 287 q 583 329 573 312 q 597 364 593 345 l 624 486 m 541 -29 q 525 -23 531 -29 q 519 -5 519 -16 q 473 -24 498 -18 q 425 -29 449 -29 l 310 -29 q 215 -9 255 -29 q 144 52 175 11 q 105 139 114 92 q 110 243 96 186 l 186 607 q 227 712 197 665 q 304 800 257 760 q 503 879 397 879 l 618 879 q 714 860 673 879 q 785 802 755 842 q 824 713 815 761 q 819 607 832 666 l 690 0 q 677 -20 687 -12 q 656 -29 668 -29 l 541 -29 m 663 0 l 791 607 q 761 781 813 710 q 698 833 735 817 q 612 850 661 850 l 497 850 q 318 779 401 850 q 251 701 277 743 q 214 607 224 658 l 138 243 q 170 72 115 144 q 232 18 195 35 q 315 0 269 0 l 432 0 q 471 4 452 0 q 510 20 491 9 q 564 82 555 43 l 547 0 l 663 0 m 625 364 q 606 317 619 339 q 573 278 592 295 q 531 252 554 262 q 484 243 508 243 l 368 243 q 326 252 345 243 q 294 278 307 262 q 277 317 282 295 q 278 364 273 339 l 304 486 q 323 533 309 511 q 356 572 337 555 q 398 597 375 588 q 444 607 420 607 l 559 607 q 604 598 585 607 q 635 572 623 589 q 652 534 648 556 q 650 486 656 512 l 625 364 z "},"b":{"ha":749,"x_min":83,"x_max":842,"o":"m 624 486 q 625 522 628 505 q 611 551 621 539 q 587 571 602 564 q 554 578 572 578 l 439 578 q 403 571 420 578 q 371 551 386 564 q 346 522 357 539 q 332 486 336 505 l 306 364 q 305 328 302 345 q 318 299 309 311 q 341 279 327 286 q 374 272 355 272 l 490 272 q 526 279 509 272 q 558 299 544 287 q 583 329 573 312 q 597 364 593 345 l 624 486 m 743 243 q 701 139 730 186 q 625 52 671 92 q 425 -29 534 -29 l 310 -29 q 214 -10 255 -29 q 143 50 172 9 q 110 243 83 130 l 277 1034 q 289 1054 279 1045 q 311 1063 300 1063 l 427 1063 q 445 1054 438 1063 q 449 1034 451 1045 l 411 857 q 456 874 433 869 q 503 879 479 879 l 618 879 q 783 800 725 879 q 819 607 842 720 l 743 243 m 714 243 l 791 607 q 794 701 802 658 q 760 779 785 743 q 612 850 708 850 l 497 850 q 457 845 477 850 q 418 831 437 841 q 383 804 397 819 q 364 770 370 788 l 421 1034 l 306 1034 l 138 243 q 167 71 115 142 q 315 0 219 0 l 432 0 q 610 72 527 0 q 714 243 692 142 m 625 364 q 606 317 619 339 q 573 278 592 295 q 531 252 554 262 q 484 243 508 243 l 368 243 q 325 252 344 243 q 293 278 305 262 q 277 316 281 294 q 278 364 273 338 l 304 486 q 323 533 309 511 q 356 572 337 555 q 398 597 375 588 q 444 607 420 607 l 559 607 q 603 597 584 607 q 635 572 623 588 q 651 533 647 555 q 650 486 656 511 l 625 364 z "},"c":{"ha":749,"x_min":96,"x_max":874,"o":"m 310 -29 q 215 -9 255 -29 q 144 52 175 11 q 105 139 114 92 q 110 243 96 186 l 186 607 q 227 712 197 665 q 304 800 257 760 q 503 879 397 879 l 850 879 q 868 871 861 879 q 871 850 874 863 l 819 607 q 807 587 817 595 q 785 578 798 578 l 439 578 q 403 571 420 578 q 371 551 386 564 q 346 522 357 539 q 332 486 336 505 l 306 364 q 305 329 302 345 q 318 299 309 312 q 341 279 327 287 q 374 272 355 272 l 721 272 q 739 263 732 272 q 743 243 745 254 l 690 0 q 677 -20 687 -12 q 656 -29 668 -29 l 310 -29 m 663 0 l 714 243 l 368 243 q 326 252 345 243 q 294 278 307 262 q 277 317 282 295 q 278 364 273 339 l 304 486 q 323 533 309 511 q 356 572 337 555 q 398 597 375 588 q 444 607 420 607 l 791 607 l 843 850 l 497 850 q 318 779 401 850 q 251 701 277 743 q 214 607 224 658 l 138 243 q 170 72 115 144 q 232 18 195 35 q 315 0 269 0 l 663 0 z "},"d":{"ha":749,"x_min":96,"x_max":912,"o":"m 624 486 q 625 522 628 505 q 611 551 621 539 q 587 571 602 564 q 554 578 572 578 l 439 578 q 403 571 420 578 q 371 551 386 564 q 346 522 357 539 q 332 486 336 505 l 306 364 q 305 329 302 345 q 318 299 309 312 q 341 279 327 287 q 374 272 355 272 l 490 272 q 526 279 509 272 q 558 299 544 286 q 583 328 573 311 q 597 364 593 345 l 624 486 m 743 243 q 701 138 730 185 q 627 50 673 90 q 530 -10 579 9 q 425 -29 480 -29 l 310 -29 q 215 -9 255 -29 q 144 52 175 11 q 105 139 114 92 q 110 243 96 186 l 186 607 q 227 712 197 665 q 304 800 257 760 q 503 879 397 879 l 618 879 q 664 874 642 879 q 703 857 686 869 l 741 1034 q 752 1054 743 1045 q 772 1063 762 1063 l 889 1063 q 906 1054 901 1063 q 909 1034 912 1045 l 743 243 m 714 243 l 882 1034 l 766 1034 l 711 770 q 707 804 713 788 q 682 831 700 819 q 650 845 669 841 q 612 850 632 850 l 497 850 q 318 779 401 850 q 251 701 277 743 q 214 607 224 658 l 138 243 q 170 72 115 144 q 232 18 195 35 q 315 0 269 0 l 432 0 q 525 18 481 0 q 610 71 569 35 q 714 243 693 142 m 625 364 q 606 316 619 338 q 573 278 592 294 q 531 252 554 262 q 484 243 508 243 l 368 243 q 326 252 345 243 q 294 278 307 262 q 277 317 282 295 q 278 364 273 339 l 304 486 q 323 533 309 511 q 356 572 337 555 q 398 597 375 588 q 444 607 420 607 l 559 607 q 603 597 584 607 q 635 572 623 588 q 651 533 647 555 q 650 486 656 511 l 625 364 z "},"e":{"ha":749,"x_min":96,"x_max":874,"o":"m 310 -29 q 215 -9 255 -29 q 144 52 175 11 q 105 139 114 92 q 110 243 96 186 l 186 607 q 227 712 197 665 q 304 800 257 760 q 503 879 397 879 l 850 879 q 868 871 861 879 q 871 850 874 863 l 819 607 q 807 587 817 595 q 785 578 798 578 l 439 578 q 384 560 410 578 q 343 515 358 543 l 656 515 q 674 507 668 515 q 677 486 681 498 l 653 364 q 640 344 650 353 q 618 335 631 335 l 306 335 q 326 289 307 307 q 374 272 345 272 l 721 272 q 739 263 732 272 q 743 243 745 254 l 690 0 q 677 -20 687 -12 q 656 -29 668 -29 l 310 -29 m 663 0 l 714 243 l 368 243 q 326 252 345 243 q 294 278 307 262 q 277 317 282 295 q 278 364 273 339 l 625 364 l 650 486 l 304 486 q 323 533 309 511 q 356 572 337 555 q 398 597 375 588 q 444 607 420 607 l 791 607 l 843 850 l 497 850 q 318 779 401 850 q 251 701 277 743 q 214 607 224 658 l 138 243 q 170 72 115 144 q 232 18 195 35 q 315 0 269 0 l 663 0 z "},"f":{"ha":604,"x_min":54,"x_max":797,"o":"m 478 761 q 441 754 459 761 q 410 734 424 747 q 385 705 395 722 q 371 668 375 688 l 351 576 l 554 576 q 572 568 566 576 q 576 547 578 559 l 549 425 q 537 405 547 414 q 515 396 527 396 l 313 396 l 228 0 q 216 -20 226 -12 q 195 -29 206 -29 l 79 -29 q 61 -20 68 -29 q 57 0 54 -12 l 225 790 q 266 895 237 848 q 342 983 295 943 q 542 1063 433 1063 l 772 1063 q 791 1054 785 1063 q 794 1034 797 1045 l 743 790 q 730 769 740 778 q 708 761 720 761 l 478 761 m 714 790 l 766 1034 l 536 1034 q 443 1016 487 1034 q 355 962 398 998 q 253 790 273 891 l 85 0 l 200 0 l 290 425 l 521 425 l 549 547 l 317 547 l 343 668 q 361 716 348 694 q 394 755 375 739 q 436 781 412 771 q 484 790 459 790 l 714 790 z "},"g":{"ha":749,"x_min":96,"x_max":832,"o":"m 624 486 q 625 522 628 505 q 611 551 621 539 q 587 571 602 564 q 554 578 572 578 l 439 578 q 403 571 420 578 q 371 551 386 564 q 346 522 357 539 q 332 486 336 505 l 306 364 q 305 329 302 345 q 318 299 309 312 q 341 279 327 287 q 374 272 355 272 l 490 272 q 526 279 509 272 q 558 299 544 286 q 583 328 573 311 q 597 364 593 345 l 624 486 m 665 -122 q 623 -227 652 -180 q 549 -315 595 -275 q 347 -395 457 -395 l 232 -395 q 215 -386 222 -395 q 211 -366 209 -377 l 264 -122 q 276 -101 266 -110 q 296 -93 286 -93 l 412 -93 q 447 -86 430 -93 q 478 -67 464 -79 q 503 -40 492 -56 q 519 -5 513 -24 q 473 -24 498 -18 q 425 -29 449 -29 l 310 -29 q 215 -9 255 -29 q 144 52 175 11 q 105 139 114 92 q 110 243 96 186 l 186 607 q 227 712 197 665 q 304 800 257 760 q 503 879 397 879 l 618 879 q 714 860 673 879 q 785 802 755 842 q 824 713 815 761 q 819 607 832 666 l 665 -122 m 636 -122 l 791 607 q 761 781 813 710 q 698 833 735 817 q 612 850 661 850 l 497 850 q 318 779 401 850 q 251 701 277 743 q 214 607 224 658 l 138 243 q 170 72 115 144 q 232 18 195 35 q 315 0 269 0 l 432 0 q 471 4 452 0 q 510 20 491 9 q 564 82 555 43 l 547 0 q 528 -48 541 -26 q 495 -87 514 -71 q 453 -113 476 -103 q 406 -122 430 -122 l 290 -122 l 237 -366 l 354 -366 q 533 -294 450 -366 q 600 -216 574 -259 q 636 -122 626 -174 m 625 364 q 606 316 619 338 q 573 278 592 294 q 531 252 554 262 q 484 243 508 243 l 368 243 q 326 252 345 243 q 294 278 307 262 q 277 317 282 295 q 278 364 273 339 l 304 486 q 323 533 309 511 q 356 572 337 555 q 398 597 375 588 q 444 607 420 607 l 559 607 q 603 597 584 607 q 635 572 623 588 q 651 533 647 555 q 650 486 656 511 l 625 364 z "},"h":{"ha":749,"x_min":54,"x_max":842,"o":"m 411 857 l 411 856 q 411 857 411 856 q 412 857 411 857 l 411 857 m 541 -29 q 524 -20 530 -29 q 519 0 517 -12 l 624 486 q 625 522 628 505 q 611 551 621 539 q 587 571 602 564 q 554 578 572 578 l 439 578 q 403 571 420 578 q 371 551 386 564 q 346 522 357 539 q 332 486 336 505 l 228 0 q 216 -20 226 -12 q 195 -29 206 -29 l 79 -29 q 61 -20 68 -29 q 57 0 54 -12 l 277 1034 q 289 1054 279 1045 q 311 1063 300 1063 l 427 1063 q 445 1054 438 1063 q 449 1034 451 1045 l 411 857 q 456 874 433 869 q 503 879 479 879 l 618 879 q 783 800 725 879 q 819 607 842 720 l 690 0 q 677 -20 687 -12 q 656 -29 668 -29 l 541 -29 m 663 0 l 791 607 q 794 701 802 658 q 760 779 785 743 q 612 850 708 850 l 497 850 q 457 845 477 850 q 418 831 437 841 q 382 804 396 819 q 364 770 368 788 l 421 1034 l 306 1034 l 85 0 l 200 0 l 304 486 q 323 533 309 511 q 356 572 337 555 q 398 597 375 588 q 444 607 420 607 l 559 607 q 603 597 584 607 q 635 572 623 588 q 651 533 647 555 q 650 486 656 511 l 547 0 l 663 0 z "},"i":{"ha":286,"x_min":54,"x_max":412,"o":"m 79 -29 q 61 -20 68 -29 q 57 0 54 -12 l 237 850 q 251 871 241 863 q 272 879 260 879 l 387 879 q 405 871 399 879 q 410 850 412 863 l 228 0 q 216 -20 226 -12 q 195 -29 206 -29 l 79 -29 m 200 0 l 382 850 l 267 850 l 85 0 l 200 0 z "},"j":{"ha":518,"x_min":-24,"x_max":644,"o":"m 433 -122 q 392 -227 420 -180 q 317 -315 363 -275 q 117 -395 227 -395 l 1 -395 q -17 -386 -10 -395 q -21 -366 -24 -377 l 32 -122 q 44 -101 34 -110 q 65 -93 55 -93 l 180 -93 q 217 -86 199 -93 q 249 -66 235 -79 q 274 -37 264 -54 q 289 0 285 -20 l 412 578 l 208 578 q 190 587 197 578 q 186 607 184 595 l 237 850 q 251 871 241 863 q 272 879 260 879 l 618 879 q 637 871 631 879 q 640 850 644 863 l 433 -122 m 406 -122 l 612 850 l 267 850 l 214 607 l 444 607 l 315 0 q 296 -48 310 -26 q 264 -87 283 -71 q 222 -113 245 -103 q 175 -122 199 -122 l 60 -122 l 7 -366 l 122 -366 q 217 -348 173 -366 q 302 -294 261 -330 q 369 -216 343 -259 q 406 -122 395 -174 z "},"k":{"ha":749,"x_min":54,"x_max":874,"o":"m 541 -29 q 524 -20 530 -29 q 519 0 517 -12 l 558 182 q 559 219 562 201 q 547 249 556 236 q 523 268 538 261 q 490 275 509 275 l 286 275 l 228 0 q 216 -20 226 -12 q 195 -29 206 -29 l 79 -29 q 61 -20 68 -29 q 57 0 54 -12 l 277 1034 q 289 1054 279 1045 q 311 1063 300 1063 l 427 1063 q 445 1054 438 1063 q 449 1034 451 1045 l 351 576 l 554 576 q 591 584 573 576 q 623 603 608 591 q 648 632 637 615 q 663 668 659 648 l 701 850 q 713 871 703 863 q 733 879 723 879 l 850 879 q 868 871 861 879 q 871 850 874 863 l 828 644 q 774 520 813 578 q 677 425 734 463 q 733 329 718 387 q 733 207 748 272 l 690 0 q 677 -20 687 -12 q 656 -29 668 -29 l 541 -29 m 663 0 l 705 207 q 711 274 713 241 q 699 336 709 307 q 670 387 688 364 q 625 425 651 410 q 686 463 658 440 q 738 514 715 486 q 776 576 760 543 q 800 644 792 609 l 843 850 l 728 850 l 689 668 q 670 620 684 642 q 638 582 656 598 q 596 556 619 566 q 549 547 573 547 l 317 547 l 421 1034 l 306 1034 l 85 0 l 200 0 l 265 304 l 496 304 q 539 295 520 304 q 570 269 558 286 q 587 231 583 253 q 586 182 591 208 l 547 0 l 663 0 z "},"l":{"ha":374,"x_min":83,"x_max":451,"o":"m 310 -29 q 214 -10 255 -29 q 143 50 172 9 q 110 243 83 130 l 277 1034 q 289 1054 279 1045 q 311 1063 300 1063 l 427 1063 q 445 1054 438 1063 q 449 1034 451 1045 l 306 364 q 305 328 302 345 q 318 299 309 311 q 341 279 327 286 q 374 272 355 272 q 392 263 386 272 q 396 243 398 254 l 345 0 l 310 -29 m 315 0 l 368 243 q 325 252 344 243 q 293 278 305 262 q 277 316 281 294 q 278 364 273 338 l 421 1034 l 306 1034 l 138 243 q 167 71 115 142 q 315 0 219 0 z "},"m":{"ha":1210,"x_min":54,"x_max":1293,"o":"m 1003 -29 q 984 -20 991 -29 q 981 0 977 -12 l 1083 486 q 1084 522 1087 505 q 1072 551 1081 539 q 1048 571 1063 564 q 1015 578 1034 578 l 900 578 q 864 571 881 578 q 832 552 846 564 q 807 523 818 540 q 793 486 797 506 l 690 0 q 677 -20 687 -12 q 656 -29 668 -29 l 541 -29 q 524 -20 530 -29 q 519 0 517 -12 l 624 486 q 612 552 632 526 q 554 578 592 578 l 439 578 q 403 571 420 578 q 371 551 386 564 q 346 522 357 539 q 332 486 336 505 l 228 0 q 216 -20 226 -12 q 195 -29 206 -29 l 79 -29 q 61 -20 68 -29 q 57 0 54 -12 l 186 607 q 227 712 197 665 q 304 800 257 760 q 503 879 397 879 l 572 879 q 691 845 640 879 q 765 753 741 812 q 877 845 812 812 q 1011 879 942 879 l 1080 879 q 1246 800 1187 879 q 1285 712 1276 760 q 1280 607 1293 665 l 1152 0 q 1140 -20 1149 -12 q 1118 -29 1130 -29 l 1003 -29 m 1124 0 l 1253 607 q 1256 701 1264 658 q 1221 779 1248 743 q 1074 850 1171 850 l 1006 850 q 931 838 968 850 q 860 805 894 827 q 799 753 827 784 q 751 685 770 723 q 733 753 748 723 q 693 805 718 784 q 636 838 669 827 q 567 850 604 850 l 497 850 q 318 779 401 850 q 251 701 277 743 q 214 607 224 658 l 85 0 l 200 0 l 304 486 q 323 533 309 511 q 356 572 337 555 q 398 597 375 588 q 444 607 420 607 l 559 607 q 604 598 585 607 q 635 572 623 589 q 652 534 648 556 q 650 486 656 512 l 547 0 l 663 0 l 765 486 q 785 534 771 512 q 817 572 798 556 q 859 598 836 589 q 907 607 882 607 l 1022 607 q 1065 597 1046 607 q 1097 572 1084 588 q 1113 533 1109 555 q 1112 486 1118 511 l 1008 0 l 1124 0 z "},"n":{"ha":749,"x_min":54,"x_max":832,"o":"m 541 -29 q 524 -20 530 -29 q 519 0 517 -12 l 624 486 q 612 552 632 526 q 554 578 592 578 l 439 578 q 403 571 420 578 q 371 551 386 564 q 346 522 357 539 q 332 486 336 505 l 228 0 q 216 -20 226 -12 q 195 -29 206 -29 l 79 -29 q 61 -20 68 -29 q 57 0 54 -12 l 186 607 q 227 712 197 665 q 302 800 256 760 q 503 879 395 879 l 618 879 q 714 860 673 879 q 785 802 755 842 q 824 713 815 761 q 819 607 832 666 l 690 0 q 677 -20 687 -12 q 656 -29 668 -29 l 541 -29 m 663 0 l 791 607 q 761 781 813 710 q 698 833 735 817 q 612 850 661 850 l 497 850 q 317 779 401 850 q 214 607 235 707 l 85 0 l 200 0 l 304 486 q 323 533 309 511 q 356 572 337 555 q 398 597 375 588 q 444 607 420 607 l 559 607 q 604 598 585 607 q 635 572 623 589 q 652 534 648 556 q 650 486 656 512 l 547 0 l 663 0 z "},"o":{"ha":749,"x_min":82,"x_max":842,"o":"m 624 486 q 625 522 628 505 q 611 551 621 539 q 587 571 602 564 q 554 578 572 578 l 439 578 q 403 571 420 578 q 371 551 386 564 q 346 522 357 539 q 332 486 336 505 l 306 364 q 305 329 302 345 q 318 299 309 312 q 341 279 327 287 q 374 272 355 272 l 490 272 q 526 279 509 272 q 558 299 544 286 q 583 328 573 311 q 597 364 593 345 l 624 486 m 743 243 q 701 138 730 185 q 627 50 673 90 q 530 -10 579 9 q 425 -29 480 -29 l 310 -29 q 214 -10 255 -29 q 143 50 172 9 q 110 243 82 130 l 186 607 q 227 712 197 665 q 302 800 256 760 q 503 879 395 879 l 618 879 q 783 800 725 879 q 819 607 842 720 l 743 243 m 714 243 l 791 607 q 794 701 802 658 q 760 779 785 743 q 612 850 708 850 l 497 850 q 317 779 401 850 q 214 607 235 707 l 138 243 q 167 71 114 143 q 231 18 193 35 q 315 0 269 0 l 432 0 q 525 18 481 0 q 610 71 569 35 q 714 243 693 142 m 625 364 q 606 316 619 338 q 573 278 592 294 q 531 252 554 262 q 484 243 508 243 l 368 243 q 326 252 345 243 q 294 278 307 262 q 277 317 282 295 q 278 364 273 339 l 304 486 q 323 533 309 511 q 356 572 337 555 q 398 597 375 588 q 444 607 420 607 l 559 607 q 603 597 584 607 q 635 572 623 588 q 651 533 647 555 q 650 486 656 511 l 625 364 z "},"p":{"ha":749,"x_min":3,"x_max":842,"o":"m 624 486 q 625 522 628 505 q 611 551 621 539 q 587 571 602 564 q 554 578 572 578 l 439 578 q 402 571 420 578 q 371 552 385 564 q 346 523 357 540 q 332 486 336 506 l 306 364 q 305 329 302 345 q 318 299 309 312 q 341 279 327 287 q 374 272 355 272 l 490 272 q 526 279 509 272 q 558 299 544 287 q 583 329 573 312 q 597 364 593 345 l 624 486 m 743 243 q 701 139 730 186 q 625 52 671 92 q 425 -29 534 -29 l 310 -29 q 265 -24 287 -29 q 228 -5 243 -18 l 176 -243 q 164 -263 174 -254 q 142 -272 154 -272 l 26 -272 q 9 -263 16 -272 q 4 -243 3 -254 l 186 607 q 227 713 199 666 q 302 802 256 761 q 399 860 349 842 q 503 879 448 879 l 618 879 q 783 800 725 879 q 819 607 842 720 l 743 243 m 714 243 l 791 607 q 794 701 802 658 q 760 779 785 743 q 612 850 708 850 l 497 850 q 404 833 448 850 q 317 781 359 817 q 214 607 235 709 l 33 -243 l 149 -243 l 218 82 q 222 47 215 62 q 245 20 229 31 q 278 4 261 9 q 315 0 296 0 l 432 0 q 610 72 527 0 q 714 243 692 142 m 625 364 q 606 317 619 339 q 573 278 592 295 q 531 252 554 262 q 484 243 508 243 l 368 243 q 326 252 345 243 q 294 278 307 262 q 277 317 282 295 q 278 364 273 339 l 304 486 q 323 534 309 512 q 355 572 336 556 q 397 598 374 589 q 444 607 420 607 l 559 607 q 603 597 584 607 q 635 572 623 588 q 651 533 647 555 q 650 486 656 511 l 625 364 z "},"q":{"ha":749,"x_min":96,"x_max":832,"o":"m 624 486 q 612 552 632 526 q 554 578 592 578 l 439 578 q 403 571 420 578 q 371 551 386 564 q 346 522 357 539 q 332 486 336 505 l 306 364 q 305 329 302 345 q 318 299 309 312 q 341 279 327 287 q 374 272 355 272 l 490 272 q 526 279 509 272 q 558 299 544 287 q 583 329 573 312 q 597 364 593 345 l 624 486 m 489 -272 q 472 -263 477 -272 q 468 -243 466 -254 l 519 -5 q 473 -24 498 -18 q 425 -29 449 -29 l 310 -29 q 215 -9 255 -29 q 144 52 175 11 q 105 139 114 92 q 110 243 96 186 l 186 607 q 227 712 197 665 q 304 800 257 760 q 503 879 397 879 l 618 879 q 714 860 673 879 q 785 802 755 842 q 824 713 815 761 q 819 607 832 666 l 637 -243 q 626 -263 636 -254 q 604 -272 616 -272 l 489 -272 m 610 -243 l 791 607 q 761 781 813 710 q 698 833 735 817 q 612 850 661 850 l 497 850 q 318 779 401 850 q 251 701 277 743 q 214 607 224 658 l 138 243 q 170 72 115 144 q 232 18 195 35 q 315 0 269 0 l 432 0 q 471 4 452 0 q 510 20 491 9 q 564 82 555 43 l 494 -243 l 610 -243 m 625 364 q 606 317 619 339 q 573 278 592 295 q 531 252 554 262 q 484 243 508 243 l 368 243 q 326 252 345 243 q 294 278 307 262 q 277 317 282 295 q 278 364 273 339 l 304 486 q 323 533 309 511 q 356 572 337 555 q 398 597 375 588 q 444 607 420 607 l 559 607 q 604 598 585 607 q 635 572 623 589 q 652 534 648 556 q 650 486 656 512 l 625 364 z "},"r":{"ha":604,"x_min":54,"x_max":759,"o":"m 439 578 q 403 571 420 578 q 371 551 386 564 q 346 522 357 539 q 332 486 336 505 l 228 0 q 216 -20 226 -12 q 195 -29 206 -29 l 79 -29 q 61 -20 68 -29 q 57 0 54 -12 l 237 850 q 251 871 241 863 q 272 879 260 879 l 387 879 q 404 873 398 879 q 410 857 410 867 l 411 857 q 456 874 433 869 q 503 879 479 879 l 733 879 q 752 871 746 879 q 755 850 759 863 l 704 607 q 691 587 702 595 q 669 578 681 578 l 439 578 m 675 607 l 728 850 l 497 850 q 457 845 477 850 q 418 831 437 841 q 383 804 397 819 q 364 770 370 788 l 382 850 l 267 850 l 85 0 l 200 0 l 304 486 q 323 533 309 511 q 356 572 337 555 q 398 597 375 588 q 444 607 420 607 l 675 607 z "},"s":{"ha":749,"x_min":54,"x_max":874,"o":"m 743 243 q 701 139 730 186 q 625 52 671 92 q 425 -29 534 -29 l 79 -29 q 61 -20 68 -29 q 57 0 54 -12 l 110 243 q 122 263 111 254 q 143 272 132 272 l 490 272 q 513 281 504 272 q 526 304 523 291 q 522 326 528 317 q 503 335 515 335 l 387 335 q 292 355 333 335 q 222 415 252 376 q 186 607 162 496 q 227 712 197 665 q 304 800 257 760 q 503 879 397 879 l 850 879 q 868 871 861 879 q 871 850 874 863 l 819 607 q 807 587 817 595 q 785 578 798 578 l 439 578 q 416 569 427 578 q 403 547 406 561 q 407 525 401 534 q 425 515 414 515 l 541 515 q 705 435 648 515 q 743 243 766 356 m 714 243 q 682 414 734 343 q 620 468 656 450 q 534 486 583 486 l 419 486 q 398 491 408 486 q 383 504 389 496 q 375 524 377 513 q 375 547 372 535 q 385 570 378 559 q 400 589 391 581 q 421 602 410 597 q 444 607 432 607 l 791 607 l 843 850 l 497 850 q 318 779 401 850 q 251 701 277 743 q 214 607 224 658 q 245 436 193 508 q 393 364 299 364 l 510 364 q 546 346 533 364 q 554 304 559 328 q 529 260 549 278 q 484 243 509 243 l 138 243 l 85 0 l 432 0 q 610 72 527 0 q 714 243 692 142 z "},"t":{"ha":604,"x_min":83,"x_max":644,"o":"m 310 -29 q 214 -10 255 -29 q 143 50 172 9 q 110 243 83 130 l 264 972 q 276 993 266 984 q 297 1002 287 1002 l 412 1002 q 432 993 425 1002 q 435 972 438 984 l 415 879 l 618 879 q 637 871 631 879 q 640 850 644 863 l 615 729 q 602 709 612 718 q 579 700 592 700 l 376 700 l 306 364 q 305 328 302 345 q 318 299 309 311 q 341 279 327 286 q 374 272 355 272 l 606 272 q 623 263 617 272 q 627 243 629 254 l 575 0 q 562 -20 572 -12 q 541 -29 553 -29 l 310 -29 m 547 0 l 599 243 l 368 243 q 325 252 344 243 q 293 278 305 262 q 277 316 281 294 q 278 364 273 338 l 355 729 l 587 729 l 612 850 l 382 850 l 407 972 l 292 972 l 138 243 q 167 71 115 142 q 315 0 219 0 l 547 0 z "},"u":{"ha":749,"x_min":82,"x_max":874,"o":"m 743 243 q 701 138 730 185 q 627 50 673 90 q 530 -10 579 9 q 425 -29 480 -29 l 310 -29 q 214 -10 255 -29 q 143 50 172 9 q 110 243 82 130 l 237 850 q 251 871 241 863 q 272 879 260 879 l 387 879 q 405 871 399 879 q 410 850 412 863 l 306 364 q 305 329 302 345 q 318 299 309 312 q 341 279 327 287 q 374 272 355 272 l 490 272 q 526 279 509 272 q 558 299 544 286 q 583 328 573 311 q 597 364 593 345 l 701 850 q 713 871 703 863 q 733 879 723 879 l 850 879 q 868 871 861 879 q 871 850 874 863 l 743 243 m 714 243 l 843 850 l 728 850 l 625 364 q 606 316 619 338 q 573 278 592 294 q 531 252 554 262 q 484 243 508 243 l 368 243 q 326 252 345 243 q 294 278 307 262 q 277 317 282 295 q 278 364 273 339 l 382 850 l 267 850 l 138 243 q 167 71 114 143 q 231 18 193 35 q 315 0 269 0 l 432 0 q 525 18 481 0 q 610 71 569 35 q 714 243 693 142 z "},"v":{"ha":749,"x_min":54,"x_max":874,"o":"m 743 243 q 701 138 730 185 q 627 50 673 90 q 530 -10 579 9 q 425 -29 480 -29 l 79 -29 q 61 -20 68 -29 q 57 0 54 -12 l 237 850 q 251 871 241 863 q 272 879 260 879 l 387 879 q 405 871 399 879 q 410 850 412 863 l 286 272 l 490 272 q 526 279 509 272 q 558 299 544 286 q 583 328 573 311 q 597 364 593 345 l 701 850 q 713 871 703 863 q 733 879 723 879 l 850 879 q 868 871 861 879 q 871 850 874 863 l 743 243 m 714 243 l 843 850 l 728 850 l 625 364 q 606 316 619 338 q 573 278 592 294 q 531 252 554 262 q 484 243 508 243 l 253 243 l 382 850 l 267 850 l 85 0 l 432 0 q 525 18 481 0 q 610 71 569 35 q 714 243 693 142 z "},"w":{"ha":1210,"x_min":96,"x_max":1335,"o":"m 1204 243 q 1162 139 1192 186 q 1086 52 1133 92 q 888 -29 995 -29 l 818 -29 q 699 4 749 -29 q 627 97 648 37 q 512 4 577 38 q 379 -29 447 -29 l 310 -29 q 215 -9 255 -29 q 144 52 175 11 q 105 139 114 92 q 110 243 96 186 l 237 850 q 251 871 241 863 q 272 879 260 879 l 387 879 q 405 871 399 879 q 410 850 412 863 l 306 364 q 305 329 302 345 q 318 299 309 312 q 341 279 327 287 q 374 272 355 272 l 490 272 q 526 279 509 272 q 558 299 544 286 q 583 328 573 311 q 597 364 593 345 l 701 850 q 713 871 703 863 q 733 879 723 879 l 850 879 q 868 871 861 879 q 871 850 874 863 l 768 364 q 767 328 764 345 q 779 299 770 311 q 803 279 788 286 q 836 272 817 272 l 951 272 q 987 279 970 272 q 1019 299 1004 287 q 1044 329 1034 312 q 1059 364 1055 345 l 1161 850 q 1174 871 1164 863 q 1196 879 1184 879 l 1311 879 q 1329 871 1322 879 q 1333 850 1335 863 l 1204 243 m 1177 243 l 1305 850 l 1190 850 l 1086 364 q 1067 317 1081 339 q 1035 278 1054 295 q 993 252 1016 262 q 946 243 970 243 l 831 243 q 786 252 806 243 q 755 278 767 262 q 739 316 743 294 q 741 364 734 338 l 843 850 l 728 850 l 625 364 q 606 316 619 338 q 573 278 592 294 q 531 252 554 262 q 484 243 508 243 l 368 243 q 326 252 345 243 q 294 278 307 262 q 277 317 282 295 q 278 364 273 339 l 382 850 l 267 850 l 138 243 q 170 72 115 144 q 232 18 195 35 q 315 0 269 0 l 385 0 q 460 12 422 0 q 531 44 497 23 q 592 97 564 66 q 640 165 621 127 q 658 97 643 127 q 697 44 673 66 q 754 12 722 23 q 823 0 786 0 l 893 0 q 1072 72 987 0 q 1177 243 1153 142 z "},"x":{"ha":749,"x_min":54,"x_max":874,"o":"m 587 -29 q 447 22 503 -29 q 416 57 429 38 q 395 98 403 75 q 311 22 361 53 q 149 -29 233 -29 l 79 -29 q 61 -20 68 -29 q 57 0 54 -12 l 110 243 q 122 263 111 254 q 143 272 132 272 l 258 272 q 294 279 277 272 q 327 299 312 287 q 352 329 341 312 q 367 364 363 345 l 393 486 q 393 522 397 505 q 380 551 390 539 q 356 571 371 564 q 323 578 342 578 l 208 578 q 190 587 197 578 q 186 607 184 595 l 237 850 q 251 871 241 863 q 272 879 260 879 l 342 879 q 482 827 425 879 l 482 828 q 513 793 500 812 q 533 751 526 774 q 618 828 570 797 l 618 827 q 781 879 698 879 l 850 879 q 868 871 861 879 q 871 850 874 863 l 819 607 q 807 587 817 595 q 785 578 798 578 l 669 578 q 634 571 651 578 q 602 551 616 564 q 577 522 587 539 q 562 486 566 505 l 538 364 q 537 329 534 345 q 549 299 540 312 q 573 279 558 287 q 606 272 587 272 l 721 272 q 739 263 732 272 q 743 243 745 254 l 690 0 q 677 -20 687 -12 q 656 -29 668 -29 l 587 -29 m 663 0 l 714 243 l 599 243 q 556 252 575 243 q 525 278 537 262 q 508 317 513 295 q 510 364 504 339 l 534 486 q 554 533 540 511 q 587 572 568 555 q 628 597 606 588 q 675 607 651 607 l 791 607 l 843 850 l 774 850 q 700 838 736 850 q 628 803 663 827 q 566 750 593 780 q 519 684 538 721 q 460 803 511 758 q 335 850 411 850 l 267 850 l 214 607 l 329 607 q 372 597 353 607 q 404 572 391 588 q 420 533 416 555 q 419 486 425 511 l 393 364 q 374 317 388 339 q 342 278 361 295 q 300 252 323 262 q 253 243 277 243 l 138 243 l 85 0 l 154 0 q 298 46 230 0 q 362 100 335 70 q 410 168 390 130 q 428 100 413 130 q 468 46 443 70 q 593 0 518 0 l 663 0 z "},"y":{"ha":749,"x_min":96,"x_max":874,"o":"m 665 -122 q 623 -227 652 -180 q 549 -315 595 -275 q 347 -395 457 -395 l 232 -395 q 215 -386 222 -395 q 211 -366 209 -377 l 264 -122 q 276 -101 266 -110 q 296 -93 286 -93 l 412 -93 q 447 -86 430 -93 q 478 -67 464 -79 q 503 -40 492 -56 q 519 -5 513 -24 q 473 -24 498 -18 q 425 -29 449 -29 l 310 -29 q 215 -9 255 -29 q 144 52 175 11 q 105 139 114 92 q 110 243 96 186 l 237 850 q 251 871 241 863 q 272 879 260 879 l 387 879 q 405 871 399 879 q 410 850 412 863 l 306 364 q 305 329 302 345 q 318 299 309 312 q 341 279 327 287 q 374 272 355 272 l 490 272 q 526 279 509 272 q 558 299 544 286 q 583 328 573 311 q 597 364 593 345 l 701 850 q 713 871 703 863 q 733 879 723 879 l 850 879 q 868 871 861 879 q 871 850 874 863 l 665 -122 m 636 -122 l 843 850 l 728 850 l 625 364 q 606 316 619 338 q 573 278 592 294 q 531 252 554 262 q 484 243 508 243 l 368 243 q 326 252 345 243 q 294 278 307 262 q 277 317 282 295 q 278 364 273 339 l 382 850 l 267 850 l 138 243 q 170 72 115 144 q 232 18 195 35 q 315 0 269 0 l 432 0 q 471 4 452 0 q 510 20 491 9 q 564 82 555 43 l 547 0 q 528 -48 541 -26 q 495 -87 514 -71 q 453 -113 476 -103 q 406 -122 430 -122 l 290 -122 l 237 -366 l 354 -366 q 533 -294 450 -366 q 600 -216 574 -259 q 636 -122 626 -174 z "},"z":{"ha":749,"x_min":54,"x_max":874,"o":"m 79 -29 q 61 -20 68 -29 q 57 0 54 -12 l 110 243 q 115 254 110 246 q 122 265 120 262 l 507 578 l 208 578 q 190 587 197 578 q 186 607 184 595 l 237 850 q 251 871 241 863 q 272 879 260 879 l 850 879 q 868 871 861 879 q 871 850 874 863 l 819 607 q 813 596 818 604 q 804 586 808 588 l 422 272 l 721 272 q 739 263 732 272 q 743 243 745 254 l 690 0 q 677 -20 687 -12 q 656 -29 668 -29 l 79 -29 m 663 0 l 714 243 l 345 243 l 791 607 l 843 850 l 267 850 l 214 607 l 583 607 l 138 243 l 85 0 l 663 0 z "},"{":{"ha":575,"x_min":145,"x_max":694,"o":"m 400 -151 q 304 -131 345 -151 q 235 -71 264 -111 q 195 17 204 -30 q 199 121 186 64 l 257 396 l 170 396 q 152 405 158 396 q 147 425 145 414 l 174 547 q 186 568 176 559 q 208 576 197 576 l 296 576 l 354 850 q 395 955 366 907 q 471 1043 424 1002 q 566 1103 517 1083 q 669 1122 615 1122 q 687 1114 681 1122 q 692 1093 694 1105 l 640 850 q 628 829 637 838 q 607 821 618 821 q 571 813 589 821 q 539 794 553 806 q 514 765 524 782 q 500 729 504 748 l 396 243 q 395 207 392 224 q 407 177 397 190 q 430 157 416 165 q 463 150 444 150 q 482 142 475 150 q 485 121 488 134 l 433 -122 l 400 -151 m 406 -122 l 457 121 q 414 131 433 121 q 384 157 395 140 q 367 196 372 174 q 368 243 363 218 l 471 729 q 490 776 476 754 q 523 814 504 798 q 566 840 543 831 q 612 850 589 850 l 664 1093 q 486 1022 568 1093 q 418 944 444 987 q 382 850 391 901 l 317 547 l 201 547 l 175 425 l 290 425 l 227 121 q 224 28 216 71 q 257 -50 232 -14 q 321 -104 284 -85 q 406 -122 359 -122 z "},"|":{"ha":286,"x_min":28,"x_max":463,"o":"m 53 -151 q 35 -142 42 -151 q 32 -122 28 -134 l 289 1093 q 302 1114 292 1105 q 323 1122 312 1122 l 439 1122 q 457 1114 450 1122 q 461 1093 463 1105 l 203 -122 q 190 -142 199 -134 q 170 -151 181 -151 l 53 -151 m 175 -122 l 432 1093 l 317 1093 l 60 -122 l 175 -122 z "},"}":{"ha":575,"x_min":87,"x_max":636,"o":"m 486 396 l 428 121 q 311 -71 405 9 q 214 -131 263 -111 q 111 -151 165 -151 q 93 -142 100 -151 q 90 -122 87 -134 l 140 121 q 154 142 144 134 q 175 150 163 150 q 211 157 193 150 q 243 177 229 165 q 269 207 258 190 q 283 243 279 224 l 386 729 q 387 765 390 748 q 374 794 383 782 q 351 813 365 806 q 318 821 336 821 q 300 829 307 821 q 296 850 294 838 l 347 1093 q 360 1114 351 1105 q 382 1122 370 1122 q 547 1043 489 1122 q 583 850 606 963 l 525 576 l 612 576 q 630 568 623 576 q 635 547 636 559 l 607 425 q 595 405 606 414 q 574 396 584 396 l 486 396 m 579 425 l 607 547 l 490 547 l 555 850 q 524 1022 575 953 q 375 1093 471 1093 l 325 850 q 367 840 348 850 q 398 814 386 831 q 415 776 410 798 q 414 729 419 754 l 311 243 q 291 196 305 218 q 258 157 277 174 q 216 131 239 140 q 170 121 193 121 l 118 -122 q 209 -104 165 -122 q 296 -50 254 -85 q 400 121 378 20 l 464 425 l 579 425 z "},"~":{"ha":656,"x_min":134,"x_max":713,"o":"m 671 401 q 577 360 624 373 q 482 347 531 347 q 443 354 465 347 q 395 374 422 361 q 330 396 355 396 q 176 353 251 396 q 145 351 157 342 q 138 376 134 359 l 158 473 q 165 487 159 479 q 176 498 171 495 q 269 538 223 526 q 364 551 315 551 q 404 545 382 551 q 452 525 425 538 q 515 503 493 503 q 595 514 556 503 q 672 547 635 526 q 701 549 689 557 q 708 522 713 541 l 688 425 l 671 401 m 660 425 l 681 522 q 596 486 639 498 q 510 473 554 473 q 433 498 480 473 q 357 522 387 522 q 271 511 313 522 q 186 473 229 499 l 165 376 q 250 413 208 401 q 336 425 292 425 q 370 419 351 425 q 412 401 389 413 q 489 376 458 376 q 576 389 534 376 q 660 425 618 401 z "},"€":{"ha":749,"x_min":96,"x_max":899,"o":"m 310 -29 q 215 -9 255 -29 q 144 52 175 11 q 105 139 114 92 q 110 243 96 186 l 212 729 q 329 921 235 842 q 529 1002 422 1002 l 875 1002 q 893 993 886 1002 q 897 972 899 984 l 846 729 q 832 709 842 718 q 811 700 823 700 l 464 700 q 409 682 435 700 q 368 636 382 665 l 682 636 q 700 628 694 636 q 704 607 706 620 l 685 522 q 673 502 684 511 q 652 493 663 493 l 334 493 l 330 479 l 648 479 q 667 471 661 479 q 671 450 673 462 l 653 364 q 640 344 650 353 q 618 335 631 335 l 306 335 q 326 289 307 307 q 374 272 345 272 l 721 272 q 739 263 732 272 q 743 243 745 254 l 690 0 q 677 -20 687 -12 q 656 -29 668 -29 l 310 -29 m 663 0 l 714 243 l 368 243 q 326 252 345 243 q 294 278 307 262 q 277 317 282 295 q 278 364 273 339 l 625 364 l 643 450 l 296 450 l 311 522 l 657 522 l 675 607 l 329 607 q 349 654 335 632 q 382 693 363 677 q 424 720 401 710 q 471 729 447 729 l 818 729 l 869 972 l 522 972 q 345 900 429 972 q 240 729 261 829 l 138 243 q 170 72 115 144 q 232 18 195 35 q 315 0 269 0 l 663 0 z "},"‚":{"ha":334,"x_min":54,"x_max":315,"o":"m 100 -151 q 81 -142 88 -151 q 78 -122 75 -134 l 87 -74 q 101 -53 91 -61 q 121 -45 111 -45 l 163 -45 l 167 -29 l 79 -29 q 61 -20 68 -29 q 57 0 54 -12 l 93 170 q 106 190 96 182 q 127 199 116 199 l 289 199 q 308 190 302 199 q 311 170 315 182 l 249 -122 q 236 -142 246 -134 q 215 -151 227 -151 l 100 -151 m 221 -122 l 283 170 l 121 170 l 85 0 l 200 0 l 184 -74 l 115 -74 l 106 -122 l 221 -122 z "},"ƒ":{"ha":720,"x_min":-254,"x_max":913,"o":"m 839 787 q 825 768 835 776 q 804 761 816 761 l 574 761 q 502 735 533 761 q 457 669 471 710 q 447 641 454 664 q 429 576 441 617 l 629 576 q 648 567 642 576 q 650 545 654 557 l 615 422 q 602 404 611 412 q 581 396 592 396 l 375 396 l 258 -3 q 243 -53 252 -22 q 221 -125 233 -84 q 170 -231 203 -182 q 90 -317 137 -279 l 92 -317 q -114 -395 -5 -395 l -229 -395 q -248 -385 -241 -395 q -250 -363 -254 -375 l -179 -119 q -166 -100 -175 -108 q -146 -93 -157 -93 l -31 -93 q 7 -85 -12 -93 q 42 -65 26 -78 q 70 -35 58 -53 q 87 3 81 -18 l 322 791 q 371 897 339 849 q 452 985 403 944 q 657 1063 552 1063 l 889 1063 q 907 1053 901 1063 q 908 1031 913 1043 l 839 787 m 882 1034 l 652 1034 q 467 962 556 1034 q 349 790 380 893 l 115 0 q 92 -48 107 -26 q 57 -87 77 -71 q 13 -113 37 -103 q -36 -122 -11 -122 l -151 -122 l -224 -366 l -109 -366 q 75 -296 -9 -366 q 195 -122 161 -225 q 215 -50 206 -80 q 231 0 224 -20 l 355 425 l 587 425 l 624 547 l 393 547 q 418 635 409 605 q 429 668 427 665 q 453 718 438 695 q 488 756 468 740 q 530 781 507 772 q 579 790 553 790 l 811 790 l 882 1034 z "},"„":{"ha":587,"x_min":54,"x_max":568,"o":"m 100 -151 q 81 -142 88 -151 q 78 -122 75 -134 l 87 -74 q 101 -53 91 -61 q 121 -45 111 -45 l 163 -45 l 167 -29 l 79 -29 q 61 -20 68 -29 q 57 0 54 -12 l 93 170 q 106 190 96 182 q 127 199 116 199 l 289 199 q 308 190 302 199 q 311 170 315 182 l 249 -122 q 236 -142 246 -134 q 215 -151 227 -151 l 100 -151 m 354 -151 q 335 -142 342 -151 q 332 -122 328 -134 l 342 -74 q 354 -53 344 -61 q 375 -45 364 -45 l 416 -45 l 421 -29 l 334 -29 q 315 -20 322 -29 q 311 0 308 -12 l 347 170 q 360 190 351 182 q 382 199 370 199 l 543 199 q 561 190 555 199 q 566 170 568 182 l 503 -122 q 491 -142 500 -134 q 469 -151 481 -151 l 354 -151 m 475 -122 l 538 170 l 375 170 l 339 0 l 454 0 l 439 -74 l 370 -74 l 359 -122 l 475 -122 m 221 -122 l 283 170 l 121 170 l 85 0 l 200 0 l 184 -74 l 115 -74 l 106 -122 l 221 -122 z "},"…":{"ha":888,"x_min":54,"x_max":869,"o":"m 355 -29 q 338 -20 345 -29 q 335 0 332 -12 l 371 170 q 383 190 373 182 q 404 199 393 199 l 567 199 q 585 190 578 199 q 587 170 591 182 l 551 0 q 539 -20 549 -12 q 518 -29 530 -29 l 355 -29 m 79 -29 q 61 -20 68 -29 q 57 0 54 -12 l 93 170 q 106 190 96 182 q 127 199 116 199 l 289 199 q 308 190 302 199 q 311 170 315 182 l 275 0 q 262 -20 272 -12 q 240 -29 253 -29 l 79 -29 m 633 -29 q 615 -20 622 -29 q 612 0 609 -12 l 648 170 q 661 190 652 182 q 682 199 671 199 l 843 199 q 862 190 856 199 q 865 170 869 182 l 829 0 q 817 -20 826 -12 q 794 -29 807 -29 l 633 -29 m 802 0 l 838 170 l 675 170 l 639 0 l 802 0 m 524 0 l 559 170 l 399 170 l 363 0 l 524 0 m 248 0 l 283 170 l 121 170 l 85 0 l 248 0 z "},"†":{"ha":633,"x_min":177,"x_max":732,"o":"m 525 578 l 350 -243 q 337 -263 348 -254 q 315 -272 327 -272 l 200 -272 q 183 -263 189 -272 q 179 -243 177 -254 l 354 578 l 208 578 q 190 587 197 578 q 186 607 184 595 l 212 729 q 225 749 214 741 q 248 758 236 758 l 393 758 l 437 972 q 450 993 441 984 q 471 1002 459 1002 l 587 1002 q 605 993 598 1002 q 608 972 612 984 l 564 758 l 708 758 q 726 749 720 758 q 730 729 732 741 l 704 607 q 691 587 702 595 q 669 578 681 578 l 525 578 m 675 607 l 703 729 l 529 729 l 581 972 l 465 972 l 414 729 l 240 729 l 214 607 l 387 607 l 207 -243 l 322 -243 l 503 607 l 675 607 z "},"‡":{"ha":633,"x_min":106,"x_max":732,"o":"m 447 214 l 350 -243 q 337 -263 348 -254 q 315 -272 327 -272 l 200 -272 q 183 -263 189 -272 q 179 -243 177 -254 l 277 214 l 131 214 q 113 222 119 214 q 110 243 106 231 l 135 364 q 148 385 138 376 q 170 393 158 393 l 315 393 l 354 578 l 208 578 q 190 587 197 578 q 186 607 184 595 l 212 729 q 225 749 214 741 q 248 758 236 758 l 393 758 l 437 972 q 450 993 441 984 q 471 1002 459 1002 l 587 1002 q 605 993 598 1002 q 608 972 612 984 l 564 758 l 708 758 q 726 749 720 758 q 730 729 732 741 l 704 607 q 691 587 702 595 q 669 578 681 578 l 525 578 l 486 393 l 631 393 q 649 385 642 393 q 653 364 655 376 l 627 243 q 614 222 625 231 q 591 214 603 214 l 447 214 m 599 243 l 625 364 l 452 364 l 503 607 l 675 607 l 703 729 l 529 729 l 581 972 l 465 972 l 414 729 l 240 729 l 214 607 l 387 607 l 336 364 l 163 364 l 138 243 l 311 243 l 207 -243 l 322 -243 l 427 243 l 599 243 z "},"ˆ":{"ha":449,"x_min":222,"x_max":563,"o":"m 457 772 q 446 777 453 772 q 436 785 438 781 l 404 852 l 345 785 q 332 777 340 781 q 318 772 323 772 l 249 772 q 227 787 232 772 q 235 817 222 801 l 364 986 q 376 997 368 992 q 390 1002 385 1002 l 482 1002 q 495 997 488 1002 q 504 986 502 992 l 559 817 q 561 801 563 809 q 554 787 559 793 q 542 777 549 781 q 526 772 534 772 l 457 772 m 532 802 l 476 972 l 383 972 l 256 802 l 325 802 l 415 904 l 463 802 l 532 802 z "},"‰":{"ha":1638,"x_min":157,"x_max":1695,"o":"m 1515 364 q 1507 408 1520 390 q 1470 427 1493 427 l 1383 427 q 1359 422 1371 427 q 1338 409 1348 417 q 1321 389 1328 400 q 1311 364 1314 377 l 1292 273 q 1299 229 1286 246 q 1336 211 1311 211 l 1423 211 q 1447 216 1436 211 q 1469 229 1459 220 q 1486 249 1479 237 q 1496 273 1493 260 l 1515 364 m 551 699 q 544 743 556 724 q 507 761 531 761 l 421 761 q 396 756 408 761 q 374 743 384 751 q 357 723 364 734 q 347 699 350 711 l 328 607 q 336 564 322 582 q 374 546 350 546 l 461 546 q 506 564 486 546 q 532 607 526 581 l 551 699 m 1169 364 q 1161 408 1175 390 q 1122 427 1147 427 l 1036 427 q 1013 422 1024 427 q 991 409 1001 417 q 975 389 982 400 q 965 364 968 377 l 946 273 q 944 249 943 260 q 952 229 946 237 q 968 216 958 220 q 990 211 978 211 l 1076 211 q 1123 229 1102 211 q 1150 273 1143 246 l 1169 364 m 582 -29 q 564 -20 570 -29 q 559 0 557 -12 l 766 972 q 779 993 770 984 q 802 1002 789 1002 l 917 1002 q 933 993 927 1002 q 937 972 939 984 l 730 0 q 718 -20 727 -12 q 697 -29 709 -29 l 582 -29 m 656 517 q 566 366 637 429 q 410 306 496 306 l 323 306 q 249 320 281 306 q 195 367 218 335 q 164 435 172 398 q 167 517 157 473 l 225 790 q 315 939 243 878 q 471 1002 389 1002 l 558 1002 q 686 939 642 1002 q 716 871 709 908 q 714 790 722 834 l 656 517 m 1618 182 q 1587 101 1610 138 q 1528 33 1563 64 q 1372 -29 1456 -29 l 1332 -29 q 1282 -23 1306 -29 q 1238 -5 1259 -16 q 1202 24 1218 7 q 1177 62 1187 41 q 1084 -5 1136 20 q 979 -29 1031 -29 l 939 -29 q 811 33 855 -29 q 782 101 788 64 q 783 182 775 138 l 842 456 q 932 606 861 542 q 1088 667 1004 667 l 1128 667 q 1221 642 1180 667 q 1284 574 1263 616 q 1327 612 1303 595 q 1376 642 1350 629 q 1428 660 1401 654 q 1480 667 1455 667 l 1521 667 q 1649 606 1602 667 q 1676 456 1695 543 l 1618 182 m 1590 182 l 1649 456 q 1650 525 1656 493 q 1625 585 1645 557 q 1514 637 1584 637 l 1474 637 q 1415 628 1444 637 q 1358 602 1385 619 q 1309 562 1331 585 q 1271 510 1286 538 q 1255 562 1267 538 q 1222 602 1242 585 q 1177 628 1202 619 q 1122 637 1152 637 l 1082 637 q 1012 624 1046 637 q 947 585 978 610 q 897 525 917 557 q 869 456 877 493 l 811 182 q 833 53 797 108 q 946 0 874 0 l 986 0 q 1045 9 1015 0 q 1102 35 1075 18 q 1153 76 1130 52 q 1190 127 1175 99 q 1205 76 1193 99 q 1238 35 1218 52 q 1283 9 1257 18 q 1337 0 1308 0 l 1378 0 q 1511 53 1450 0 q 1563 112 1544 80 q 1590 182 1582 144 m 704 0 l 909 972 l 794 972 l 587 0 l 704 0 m 628 517 l 686 790 q 664 918 703 865 q 551 972 622 972 l 465 972 q 332 918 395 972 q 281 860 301 892 q 253 790 261 828 l 195 517 q 193 446 187 479 q 218 387 199 414 q 329 335 259 335 l 415 335 q 550 386 489 335 q 600 446 581 414 q 628 517 619 478 m 1524 273 q 1509 238 1520 255 q 1483 209 1498 222 q 1452 189 1469 197 q 1417 182 1434 182 l 1331 182 q 1297 189 1312 182 q 1274 208 1283 196 q 1263 237 1265 220 q 1264 273 1260 254 l 1283 364 q 1297 399 1287 382 q 1322 428 1308 416 q 1354 448 1337 441 q 1389 456 1371 456 l 1475 456 q 1507 448 1493 456 q 1530 428 1521 441 q 1543 399 1539 416 q 1543 364 1547 382 l 1524 273 m 1178 273 q 1163 237 1174 254 q 1139 208 1153 220 q 1107 189 1124 196 q 1071 182 1090 182 l 985 182 q 953 189 967 182 q 929 209 939 197 q 917 238 920 222 q 918 273 914 255 l 937 364 q 951 399 941 382 q 976 428 962 416 q 1008 448 991 441 q 1043 456 1025 456 l 1129 456 q 1161 448 1147 456 q 1184 428 1175 441 q 1197 399 1194 416 q 1197 364 1201 382 l 1178 273 m 559 607 q 546 571 555 587 q 522 543 536 555 q 490 524 507 530 q 454 517 473 517 l 368 517 q 336 524 351 517 q 313 544 322 531 q 301 572 304 556 q 301 607 298 589 l 321 699 q 335 734 325 718 q 360 763 346 751 q 392 783 374 776 q 427 790 409 790 l 513 790 q 544 783 530 790 q 567 763 558 776 q 580 734 576 751 q 579 699 583 718 l 559 607 z "},"Š":{"ha":749,"x_min":54,"x_max":899,"o":"m 664 1031 q 651 1020 660 1025 q 636 1015 642 1015 l 545 1015 q 531 1020 538 1015 q 522 1031 524 1025 l 467 1200 q 466 1216 464 1208 q 473 1230 468 1223 q 485 1240 477 1236 q 500 1244 492 1244 l 570 1244 q 582 1241 575 1244 q 590 1232 588 1238 l 623 1164 l 684 1232 q 695 1241 687 1238 q 708 1244 703 1244 l 778 1244 q 792 1240 787 1244 q 800 1230 798 1236 q 800 1216 802 1223 q 791 1200 798 1208 l 664 1031 m 743 243 q 701 139 730 186 q 625 52 671 92 q 425 -29 534 -29 l 79 -29 q 61 -20 68 -29 q 57 0 54 -12 l 110 243 q 122 263 111 254 q 143 272 132 272 l 461 272 q 485 277 473 272 q 506 290 496 281 q 523 310 516 299 q 532 335 530 321 q 532 358 534 347 q 524 378 530 370 q 509 391 518 387 q 488 396 500 396 l 400 396 q 305 416 345 396 q 235 476 265 435 q 199 668 176 557 l 212 729 q 329 921 235 842 q 529 1002 422 1002 l 875 1002 q 893 993 886 1002 q 897 972 899 984 l 846 729 q 832 709 842 718 q 811 700 823 700 l 493 700 q 470 695 481 700 q 449 682 458 690 q 432 662 439 673 q 422 637 425 650 q 430 594 417 612 q 468 576 443 576 l 554 576 q 650 556 609 576 q 720 496 690 536 q 758 408 749 455 q 754 304 767 361 l 743 243 m 772 1215 l 703 1215 l 611 1112 l 564 1215 l 494 1215 l 550 1044 l 643 1044 l 772 1215 m 714 243 l 726 304 q 730 397 738 355 q 694 475 722 439 q 633 529 669 511 q 549 547 597 547 l 461 547 q 429 554 444 547 q 406 574 415 562 q 394 602 397 586 q 395 637 391 618 q 409 673 398 656 q 433 702 419 690 q 465 722 448 715 q 500 729 482 729 l 818 729 l 869 972 l 522 972 q 345 900 429 972 q 240 729 261 829 l 228 668 q 224 575 216 618 q 258 497 233 533 q 322 444 286 462 q 406 425 359 425 l 493 425 q 524 418 510 425 q 548 398 538 410 q 560 370 557 386 q 559 335 564 353 q 546 299 556 316 q 521 270 535 283 q 490 250 507 258 q 456 243 473 243 l 138 243 l 85 0 l 432 0 q 610 72 527 0 q 714 243 692 142 z "},"‹":{"ha":511,"x_min":149,"x_max":595,"o":"m 446 224 q 426 211 437 213 q 406 215 414 209 l 158 412 q 151 424 154 416 q 150 437 149 432 l 171 534 q 178 548 172 540 q 189 558 184 556 l 519 757 q 543 761 532 763 q 558 749 553 759 l 591 667 q 590 646 595 657 q 575 627 585 634 l 338 486 l 514 345 q 522 327 522 338 q 514 306 522 315 l 446 224 m 494 321 l 286 486 l 566 652 l 530 733 l 199 534 l 179 437 l 427 239 l 494 321 z "},"Œ":{"ha":1036,"x_min":82,"x_max":1190,"o":"m 648 607 q 649 643 652 626 q 636 673 646 660 q 612 693 627 686 q 579 700 597 700 l 464 700 q 428 693 446 700 q 396 673 411 686 q 371 643 382 660 q 357 607 361 626 l 306 364 q 305 329 302 345 q 318 299 309 312 q 341 279 327 287 q 374 272 355 272 l 490 272 q 526 279 509 272 q 558 299 544 286 q 583 328 573 311 q 597 364 593 345 l 648 607 m 818 -29 q 699 5 747 -29 q 629 102 650 40 q 577 47 606 71 q 516 5 549 22 q 449 -20 484 -12 q 379 -29 414 -29 l 310 -29 q 214 -10 255 -29 q 143 50 172 9 q 110 243 82 130 l 212 729 q 328 921 235 841 q 529 1002 420 1002 l 597 1002 q 724 962 672 1002 l 726 972 q 739 993 730 984 q 760 1002 748 1002 l 1164 1002 q 1182 993 1175 1002 q 1186 972 1190 984 l 1135 729 q 1121 709 1133 718 q 1100 700 1110 700 l 839 700 l 812 576 l 958 576 q 976 568 970 576 q 981 547 983 559 l 954 425 q 942 405 952 414 q 920 396 931 396 l 774 396 l 768 364 q 767 328 764 345 q 779 299 770 311 q 803 279 788 286 q 836 272 817 272 l 1010 272 q 1028 263 1021 272 q 1032 243 1034 254 l 979 0 q 967 -20 977 -12 q 946 -29 956 -29 l 818 -29 m 951 0 l 1004 243 l 831 243 q 786 252 806 243 q 755 278 767 262 q 739 316 743 294 q 741 364 734 338 l 753 425 l 926 425 l 953 547 l 779 547 l 818 729 l 1107 729 l 1158 972 l 753 972 l 739 903 q 676 955 713 937 q 591 972 640 972 l 522 972 q 345 900 427 972 q 276 822 302 864 q 240 729 251 780 l 138 243 q 167 71 114 143 q 231 18 193 35 q 315 0 269 0 l 385 0 q 463 12 424 0 q 535 47 501 24 q 598 102 570 70 q 644 174 626 134 q 663 102 648 134 q 700 47 677 70 q 754 12 723 24 q 823 0 785 0 l 951 0 m 625 364 q 606 316 619 338 q 573 278 592 294 q 531 252 554 262 q 484 243 508 243 l 368 243 q 326 252 345 243 q 294 278 307 262 q 277 317 282 295 q 278 364 273 339 l 329 607 q 349 654 335 632 q 382 693 363 677 q 424 720 401 710 q 471 729 447 729 l 587 729 q 630 720 612 729 q 661 693 649 710 q 677 654 673 677 q 675 607 681 632 l 625 364 z "},"Ž":{"ha":749,"x_min":54,"x_max":899,"o":"m 664 1031 q 651 1020 660 1025 q 636 1015 642 1015 l 545 1015 q 531 1020 538 1015 q 522 1031 524 1025 l 467 1200 q 466 1216 464 1208 q 473 1230 468 1223 q 485 1240 477 1236 q 500 1244 492 1244 l 570 1244 q 582 1241 575 1244 q 590 1232 588 1238 l 623 1164 l 684 1232 q 695 1241 687 1238 q 708 1244 703 1244 l 778 1244 q 792 1240 787 1244 q 800 1230 798 1236 q 800 1216 802 1223 q 791 1200 798 1208 l 664 1031 m 79 -29 q 61 -20 68 -29 q 57 0 54 -12 l 111 254 l 576 700 l 233 700 q 215 709 222 700 q 212 729 209 718 l 264 972 q 276 993 266 984 q 297 1002 287 1002 l 875 1002 q 893 993 886 1002 q 897 972 899 984 l 843 718 l 378 272 l 721 272 q 739 263 732 272 q 743 243 745 254 l 690 0 q 677 -20 687 -12 q 656 -29 668 -29 l 79 -29 m 772 1215 l 703 1215 l 611 1112 l 564 1215 l 494 1215 l 550 1044 l 643 1044 l 772 1215 m 663 0 l 714 243 l 311 243 l 818 729 l 869 972 l 292 972 l 240 729 l 646 729 l 138 243 l 85 0 l 663 0 z "},"‘":{"ha":334,"x_min":212,"x_max":470,"o":"m 237 713 q 219 721 226 713 q 215 742 212 729 l 277 1034 q 289 1054 279 1045 q 311 1063 300 1063 l 427 1063 q 445 1054 438 1063 q 449 1034 451 1045 l 437 985 q 425 964 434 972 q 403 956 415 956 l 363 956 l 359 940 l 447 940 q 464 932 458 940 q 468 911 470 924 l 432 742 q 420 721 430 729 q 399 713 410 713 l 237 713 m 404 742 l 440 911 l 325 911 l 340 985 l 410 985 l 421 1034 l 306 1034 l 243 742 l 404 742 z "},"’":{"ha":334,"x_min":238,"x_max":496,"o":"m 283 713 q 265 721 272 713 q 261 742 258 729 l 271 790 q 284 810 274 802 q 306 819 294 819 l 346 819 l 350 833 l 262 833 q 244 842 251 833 q 240 863 238 851 l 277 1034 q 289 1054 279 1045 q 311 1063 300 1063 l 472 1063 q 491 1054 485 1063 q 494 1034 496 1045 l 432 742 q 420 721 430 729 q 399 713 410 713 l 283 713 m 404 742 l 467 1034 l 306 1034 l 268 863 l 383 863 l 368 790 l 298 790 l 289 742 l 404 742 z "},"“":{"ha":587,"x_min":212,"x_max":724,"o":"m 237 713 q 219 721 226 713 q 215 742 212 729 l 277 1034 q 289 1054 279 1045 q 311 1063 300 1063 l 427 1063 q 445 1054 438 1063 q 449 1034 451 1045 l 437 985 q 425 964 434 972 q 403 956 415 956 l 363 956 l 359 940 l 447 940 q 464 932 458 940 q 468 911 470 924 l 432 742 q 420 721 430 729 q 399 713 410 713 l 237 713 m 490 713 q 473 721 479 713 q 469 742 466 729 l 530 1034 q 543 1054 532 1045 q 566 1063 554 1063 l 681 1063 q 698 1054 692 1063 q 703 1034 704 1045 l 692 985 q 679 964 688 972 q 657 956 669 956 l 616 956 l 614 940 l 701 940 q 719 932 713 940 q 722 911 724 924 l 686 742 q 674 721 684 729 q 653 713 665 713 l 490 713 m 659 742 l 694 911 l 578 911 l 595 985 l 664 985 l 675 1034 l 558 1034 l 497 742 l 659 742 m 404 742 l 440 911 l 325 911 l 340 985 l 410 985 l 421 1034 l 306 1034 l 243 742 l 404 742 z "},"”":{"ha":587,"x_min":238,"x_max":751,"o":"m 283 713 q 265 721 272 713 q 261 742 258 729 l 271 790 q 284 810 274 802 q 306 819 294 819 l 346 819 l 350 833 l 262 833 q 244 842 251 833 q 240 863 238 851 l 277 1034 q 289 1054 279 1045 q 311 1063 300 1063 l 472 1063 q 491 1054 485 1063 q 494 1034 496 1045 l 432 742 q 420 721 430 729 q 399 713 410 713 l 283 713 m 538 713 q 519 721 526 713 q 515 742 512 729 l 525 790 q 538 810 528 802 q 558 819 548 819 l 600 819 l 604 833 l 517 833 q 498 842 505 833 q 494 863 491 851 l 530 1034 q 543 1054 532 1045 q 566 1063 554 1063 l 726 1063 q 745 1054 739 1063 q 749 1034 751 1045 l 686 742 q 674 721 684 729 q 653 713 665 713 l 538 713 m 659 742 l 721 1034 l 558 1034 l 522 863 l 637 863 l 623 790 l 553 790 l 543 742 l 659 742 m 404 742 l 467 1034 l 306 1034 l 268 863 l 383 863 l 368 790 l 298 790 l 289 742 l 404 742 z "},"•":{"ha":575,"x_min":153,"x_max":604,"o":"m 561 340 q 537 280 553 308 q 496 233 520 253 q 444 201 473 212 q 385 189 415 189 l 269 189 q 216 201 239 189 q 178 234 193 213 q 158 282 163 254 q 160 340 153 309 l 195 510 q 219 569 201 541 q 260 617 236 596 q 312 649 283 637 q 371 661 341 661 l 486 661 q 539 649 516 661 q 578 617 563 637 q 599 569 593 596 q 597 510 604 541 l 561 340 m 533 340 l 568 510 q 570 557 574 535 q 554 596 566 580 q 523 623 542 613 q 481 632 504 632 l 364 632 q 317 623 340 632 q 275 596 294 613 q 242 557 256 580 q 222 510 228 535 l 187 340 q 186 293 182 315 q 202 254 190 271 q 233 228 214 237 q 277 218 252 218 l 392 218 q 439 228 416 218 q 481 253 463 237 q 514 292 500 269 q 533 340 528 314 z "},"–":{"ha":518,"x_min":134,"x_max":563,"o":"m 160 347 q 141 356 149 347 q 138 376 134 365 l 158 473 q 171 494 161 486 q 192 503 181 503 l 539 503 q 557 494 551 503 q 559 473 563 486 l 539 376 q 527 356 537 365 q 505 347 517 347 l 160 347 m 511 376 l 532 473 l 186 473 l 165 376 l 511 376 z "},"—":{"ha":749,"x_min":134,"x_max":793,"o":"m 160 347 q 141 356 149 347 q 138 376 134 365 l 158 473 q 171 494 161 486 q 192 503 181 503 l 770 503 q 787 494 781 503 q 791 473 793 486 l 771 376 q 758 356 768 365 q 736 347 749 347 l 160 347 m 743 376 l 762 473 l 186 473 l 165 376 l 743 376 z "},"˜":{"ha":518,"x_min":231,"x_max":668,"o":"m 632 854 q 562 811 598 825 q 485 798 525 798 q 419 827 452 798 q 380 846 394 846 q 277 806 323 846 q 260 797 269 798 q 244 799 251 795 q 235 809 238 802 q 233 827 231 817 l 254 924 q 259 934 254 927 q 267 945 263 941 q 412 1002 334 1002 q 481 972 442 1002 q 519 953 504 953 q 573 963 548 953 q 624 993 598 973 q 641 1002 632 1000 q 655 1000 649 1003 q 665 990 662 997 q 665 972 668 983 l 646 875 l 632 854 m 616 875 l 637 972 q 578 935 608 947 q 513 924 547 924 q 461 947 491 924 q 407 972 431 972 q 342 961 374 972 q 282 924 311 949 l 261 827 q 321 863 290 852 q 386 875 353 875 q 440 850 412 875 q 492 827 471 827 q 557 838 526 827 q 616 875 587 850 z "},"™":{"ha":1349,"x_min":222,"x_max":1468,"o":"m 1249 335 q 1230 344 1237 335 q 1226 364 1223 353 l 1297 699 q 1298 723 1300 711 q 1289 743 1295 734 q 1273 756 1282 751 q 1251 761 1263 761 l 1165 761 q 1119 743 1140 761 q 1093 699 1099 724 l 1022 364 q 1009 344 1019 353 q 987 335 1000 335 l 901 335 q 884 344 891 335 q 879 364 877 353 l 950 699 q 942 743 955 724 q 905 761 929 761 l 819 761 q 795 756 807 761 q 773 743 783 751 q 756 723 763 734 q 746 699 749 711 l 675 364 q 663 344 673 353 q 642 335 653 335 l 555 335 q 537 344 544 335 q 533 364 530 353 l 616 761 l 534 761 l 452 364 q 438 344 448 353 q 416 335 428 335 l 330 335 q 313 344 319 335 q 309 364 307 353 l 393 761 l 248 761 q 229 769 236 761 q 225 790 222 778 l 264 972 q 276 993 266 984 q 297 1002 287 1002 l 732 1002 q 749 993 743 1002 q 753 972 755 984 l 751 966 q 869 1002 805 1002 l 921 1002 q 1009 977 970 1002 q 1067 911 1049 953 q 1152 977 1105 953 q 1250 1002 1200 1002 l 1303 1002 q 1432 939 1385 1002 q 1461 871 1455 908 q 1458 790 1468 834 l 1368 364 q 1356 344 1366 353 q 1335 335 1346 335 l 1249 335 m 1340 364 l 1430 790 q 1433 860 1439 828 q 1409 918 1428 892 q 1297 972 1369 972 l 1244 972 q 1188 963 1216 972 q 1136 938 1160 954 q 1090 899 1111 922 q 1054 848 1069 876 q 1039 899 1050 876 q 1010 938 1028 922 q 967 963 991 954 q 916 972 943 972 l 864 972 q 710 899 777 972 l 725 972 l 292 972 l 253 790 l 427 790 l 336 364 l 422 364 l 513 790 l 652 790 l 561 364 l 647 364 l 718 699 q 733 734 722 718 q 758 763 743 751 q 790 783 772 776 q 825 790 808 790 l 911 790 q 967 764 949 790 q 978 699 986 739 l 908 364 l 994 364 l 1064 699 q 1079 735 1068 718 q 1103 764 1089 752 q 1135 783 1118 777 q 1171 790 1152 790 l 1258 790 q 1290 783 1276 790 q 1313 763 1304 776 q 1326 734 1322 751 q 1325 699 1329 718 l 1254 364 l 1340 364 z "},"š":{"ha":749,"x_min":54,"x_max":874,"o":"m 637 908 q 625 899 634 903 q 610 895 615 895 l 518 895 q 506 899 512 895 q 497 908 499 903 l 441 1079 q 439 1095 438 1087 q 446 1109 441 1103 q 458 1119 450 1115 q 473 1122 465 1122 l 543 1122 q 554 1119 547 1122 q 564 1111 562 1116 l 596 1043 l 656 1111 q 668 1119 660 1116 q 682 1122 677 1122 l 751 1122 q 773 1108 768 1122 q 766 1079 778 1095 l 637 908 m 743 243 q 701 139 730 186 q 625 52 671 92 q 425 -29 534 -29 l 79 -29 q 61 -20 68 -29 q 57 0 54 -12 l 110 243 q 122 263 111 254 q 143 272 132 272 l 490 272 q 513 281 504 272 q 526 304 523 291 q 522 326 528 317 q 503 335 515 335 l 387 335 q 292 355 333 335 q 222 415 252 376 q 186 607 162 496 q 227 712 197 665 q 304 800 257 760 q 503 879 397 879 l 850 879 q 868 871 861 879 q 871 850 874 863 l 819 607 q 807 587 817 595 q 785 578 798 578 l 439 578 q 416 569 427 578 q 403 547 406 561 q 407 525 401 534 q 425 515 414 515 l 541 515 q 705 435 648 515 q 743 243 766 356 m 745 1093 l 675 1093 l 585 991 l 538 1093 l 468 1093 l 525 924 l 616 924 l 745 1093 m 714 243 q 682 414 734 343 q 620 468 656 450 q 534 486 583 486 l 419 486 q 398 491 408 486 q 383 504 389 496 q 375 524 377 513 q 375 547 372 535 q 385 570 378 559 q 400 589 391 581 q 421 602 410 597 q 444 607 432 607 l 791 607 l 843 850 l 497 850 q 318 779 401 850 q 251 701 277 743 q 214 607 224 658 q 245 436 193 508 q 393 364 299 364 l 510 364 q 546 346 533 364 q 554 304 559 328 q 529 260 549 278 q 484 243 509 243 l 138 243 l 85 0 l 432 0 q 610 72 527 0 q 714 243 692 142 z "},"›":{"ha":511,"x_min":123,"x_max":568,"o":"m 197 215 q 176 211 186 209 q 160 224 165 213 l 126 306 q 127 327 123 315 q 143 345 132 338 l 380 486 l 204 627 q 195 646 195 634 q 204 667 196 657 l 272 749 q 292 761 281 759 q 311 757 304 763 l 559 558 q 566 548 564 556 q 568 534 568 540 l 547 437 q 540 424 545 432 q 529 412 534 416 l 197 215 m 519 437 l 541 534 l 292 733 l 224 652 l 432 486 l 153 321 l 187 239 l 519 437 z "},"œ":{"ha":1095,"x_min":82,"x_max":1220,"o":"m 624 486 q 625 522 628 505 q 611 551 621 539 q 587 571 602 564 q 554 578 572 578 l 439 578 q 403 571 420 578 q 371 551 386 564 q 346 522 357 539 q 332 486 336 505 l 306 364 q 305 329 302 345 q 318 299 309 312 q 341 279 327 287 q 374 272 355 272 l 490 272 q 526 279 509 272 q 558 299 544 286 q 583 328 573 311 q 597 364 593 345 l 624 486 m 818 -29 q 677 22 734 -29 q 647 57 660 38 q 627 97 634 75 q 513 5 578 39 q 379 -29 448 -29 l 310 -29 q 214 -10 255 -29 q 143 50 172 9 q 110 243 82 130 l 186 607 q 227 712 197 665 q 302 800 256 760 q 503 879 395 879 l 572 879 q 714 827 654 879 l 714 828 q 743 793 730 812 q 764 751 756 774 q 804 793 783 774 q 850 828 825 812 l 850 827 q 929 866 888 852 q 1011 879 970 879 l 1196 879 q 1214 871 1207 879 q 1218 850 1220 863 l 1165 607 q 1153 587 1163 595 q 1132 578 1143 578 l 900 578 q 845 560 871 578 q 804 515 819 543 l 1003 515 q 1021 507 1015 515 q 1025 486 1027 498 l 999 364 q 986 344 996 353 q 965 335 977 335 l 766 335 q 788 289 769 307 q 836 272 807 272 l 1067 272 q 1085 263 1079 272 q 1089 243 1091 254 l 1036 0 q 1024 -20 1034 -12 q 1003 -29 1015 -29 l 818 -29 m 1008 0 l 1061 243 l 831 243 q 787 252 806 243 q 755 278 768 262 q 739 317 743 295 q 741 364 734 339 l 971 364 l 996 486 l 765 486 q 785 533 771 511 q 818 572 799 555 q 860 597 837 588 q 907 607 883 607 l 1137 607 l 1190 850 l 1006 850 q 931 838 968 850 q 860 803 895 827 q 797 750 824 780 q 750 684 769 721 q 690 803 742 758 q 567 850 642 850 l 497 850 q 317 779 401 850 q 214 607 235 707 l 138 243 q 167 71 114 143 q 231 18 193 35 q 315 0 269 0 l 385 0 q 460 12 423 0 q 531 45 498 24 q 592 98 564 67 q 640 167 621 129 q 659 99 644 129 q 699 46 673 69 q 823 0 751 0 l 1008 0 m 625 364 q 606 316 619 338 q 573 278 592 294 q 531 252 554 262 q 484 243 508 243 l 368 243 q 326 252 345 243 q 294 278 307 262 q 277 317 282 295 q 278 364 273 339 l 304 486 q 323 533 309 511 q 356 572 337 555 q 398 597 375 588 q 444 607 420 607 l 559 607 q 603 597 584 607 q 635 572 623 588 q 651 533 647 555 q 650 486 656 511 l 625 364 z "},"ž":{"ha":749,"x_min":54,"x_max":874,"o":"m 637 908 q 625 899 634 903 q 610 895 615 895 l 518 895 q 506 899 512 895 q 497 908 499 903 l 441 1079 q 439 1095 438 1087 q 446 1109 441 1103 q 458 1119 450 1115 q 473 1122 465 1122 l 543 1122 q 554 1119 547 1122 q 564 1111 562 1116 l 596 1043 l 656 1111 q 668 1119 660 1116 q 682 1122 677 1122 l 751 1122 q 773 1108 768 1122 q 766 1079 778 1095 l 637 908 m 79 -29 q 61 -20 68 -29 q 57 0 54 -12 l 110 243 q 115 254 110 246 q 122 265 120 262 l 507 578 l 208 578 q 190 587 197 578 q 186 607 184 595 l 237 850 q 251 871 241 863 q 272 879 260 879 l 850 879 q 868 871 861 879 q 871 850 874 863 l 819 607 q 813 596 818 604 q 804 586 808 588 l 422 272 l 721 272 q 739 263 732 272 q 743 243 745 254 l 690 0 q 677 -20 687 -12 q 656 -29 668 -29 l 79 -29 m 745 1093 l 675 1093 l 585 991 l 538 1093 l 468 1093 l 525 924 l 616 924 l 745 1093 m 663 0 l 714 243 l 345 243 l 791 607 l 843 850 l 267 850 l 214 607 l 583 607 l 138 243 l 85 0 l 663 0 z "},"Ÿ":{"ha":749,"x_min":146,"x_max":899,"o":"m 647 1015 q 630 1024 637 1015 q 627 1044 623 1033 l 652 1166 q 665 1187 655 1178 q 685 1196 674 1196 l 802 1196 q 819 1187 813 1196 q 822 1166 825 1178 l 798 1044 q 785 1024 794 1033 q 762 1015 775 1015 l 647 1015 m 416 1015 q 399 1024 406 1015 q 395 1044 393 1033 l 421 1166 q 433 1187 423 1178 q 454 1196 444 1196 l 570 1196 q 588 1187 582 1196 q 591 1166 595 1178 l 567 1044 q 554 1024 564 1033 q 532 1015 545 1015 l 416 1015 m 804 534 q 763 429 791 477 q 688 342 734 382 q 604 287 646 306 q 515 264 562 268 l 460 0 q 447 -20 456 -12 q 425 -29 437 -29 l 310 -29 q 293 -20 299 -29 q 289 0 287 -12 l 345 264 q 266 287 300 268 q 207 342 231 306 q 171 534 146 422 l 264 972 q 276 993 266 984 q 297 1002 287 1002 l 412 1002 q 432 993 425 1002 q 435 972 438 984 l 368 656 q 367 620 364 637 q 379 591 370 604 q 403 571 389 578 q 436 564 418 564 l 551 564 q 588 571 570 564 q 620 590 606 578 q 645 620 635 603 q 660 656 656 636 l 726 972 q 739 993 730 984 q 760 1002 748 1002 l 875 1002 q 893 993 886 1002 q 897 972 899 984 l 804 534 m 770 1044 l 794 1166 l 679 1166 l 654 1044 l 770 1044 m 539 1044 l 564 1166 l 449 1166 l 422 1044 l 539 1044 m 777 534 l 869 972 l 753 972 l 686 656 q 667 608 681 630 q 635 570 654 586 q 593 544 616 553 q 546 534 570 534 l 431 534 q 388 544 407 534 q 356 570 368 553 q 339 609 343 587 q 340 656 334 631 l 407 972 l 292 972 l 199 534 q 196 441 188 484 q 229 363 204 398 q 378 292 283 292 l 315 0 l 432 0 l 493 292 q 586 309 542 292 q 672 363 630 327 q 777 534 755 433 z "},"¡":{"ha":334,"x_min":28,"x_max":459,"o":"m 224 652 q 206 661 212 652 q 201 681 199 669 l 237 850 q 251 871 241 863 q 272 879 260 879 l 433 879 q 453 871 446 879 q 456 850 459 863 l 419 681 q 407 661 416 669 q 385 652 397 652 l 224 652 m 53 -151 q 35 -142 41 -151 q 32 -119 28 -132 l 222 561 q 236 580 227 572 q 257 587 246 587 l 325 587 q 343 580 336 587 q 347 561 349 572 l 249 -119 q 238 -142 248 -132 q 215 -151 228 -151 l 53 -151 m 392 681 l 428 850 l 267 850 l 229 681 l 392 681 m 221 -122 l 319 558 l 250 558 l 60 -122 l 221 -122 z "},"¢":{"ha":749,"x_min":112,"x_max":899,"o":"m 538 92 l 518 0 q 505 -20 515 -12 q 484 -29 495 -29 l 368 -29 q 350 -20 357 -29 q 346 0 344 -12 l 366 92 l 335 92 q 241 112 281 92 q 170 172 200 132 q 135 364 112 253 l 212 729 q 329 921 235 842 q 529 1002 422 1002 l 558 1002 l 578 1093 q 591 1114 581 1105 q 612 1122 601 1122 l 728 1122 q 746 1114 739 1122 q 750 1093 752 1105 l 730 1002 l 875 1002 q 893 993 886 1002 q 897 972 899 984 l 846 729 q 832 709 842 718 q 811 700 823 700 l 464 700 q 428 693 446 700 q 396 673 411 686 q 371 643 382 660 q 357 607 361 626 l 332 486 q 331 450 328 467 q 343 420 334 433 q 367 400 353 408 q 400 393 382 393 l 746 393 q 765 385 758 393 q 768 364 772 376 l 715 121 q 704 100 713 109 q 682 92 694 92 l 538 92 m 688 121 l 741 364 l 393 364 q 351 374 370 364 q 319 400 332 383 q 303 439 307 416 q 304 486 298 461 l 329 607 q 349 654 335 632 q 382 693 363 677 q 424 720 401 710 q 471 729 447 729 l 818 729 l 869 972 l 696 972 l 722 1093 l 607 1093 l 581 972 l 522 972 q 345 900 429 972 q 240 729 261 829 l 163 364 q 160 271 152 313 q 195 193 169 229 q 342 121 248 121 l 400 121 l 374 0 l 490 0 l 515 121 l 688 121 z "},"£":{"ha":749,"x_min":54,"x_max":797,"o":"m 79 -29 q 61 -20 68 -29 q 57 0 54 -12 l 225 790 q 266 895 237 848 q 342 983 295 943 q 542 1063 433 1063 l 772 1063 q 791 1054 785 1063 q 794 1034 797 1045 l 743 790 q 730 769 740 778 q 708 761 720 761 l 478 761 q 441 754 459 761 q 410 734 424 747 q 385 705 395 722 q 371 668 375 688 l 351 576 l 554 576 q 572 568 566 576 q 576 547 578 559 l 549 425 q 537 405 547 414 q 515 396 527 396 l 313 396 l 286 272 l 721 272 q 739 263 732 272 q 743 243 745 254 l 690 0 q 677 -20 687 -12 q 656 -29 668 -29 l 79 -29 m 663 0 l 714 243 l 253 243 l 290 425 l 521 425 l 549 547 l 317 547 l 343 668 q 361 716 348 694 q 394 755 375 739 q 436 781 412 771 q 484 790 459 790 l 714 790 l 766 1034 l 536 1034 q 443 1016 487 1034 q 355 962 398 998 q 253 790 273 891 l 85 0 l 663 0 z "},"¤":{"ha":749,"x_min":96,"x_max":899,"o":"m 310 -29 q 215 -9 255 -29 q 144 52 175 11 q 105 139 114 92 q 110 243 96 186 l 212 729 q 329 921 235 842 q 529 1002 422 1002 l 875 1002 q 893 993 886 1002 q 897 972 899 984 l 846 729 q 832 709 842 718 q 811 700 823 700 l 464 700 q 409 682 435 700 q 368 636 382 665 l 682 636 q 700 628 694 636 q 704 607 706 620 l 685 522 q 673 502 684 511 q 652 493 663 493 l 334 493 l 330 479 l 648 479 q 667 471 661 479 q 671 450 673 462 l 653 364 q 640 344 650 353 q 618 335 631 335 l 306 335 q 326 289 307 307 q 374 272 345 272 l 721 272 q 739 263 732 272 q 743 243 745 254 l 690 0 q 677 -20 687 -12 q 656 -29 668 -29 l 310 -29 m 663 0 l 714 243 l 368 243 q 326 252 345 243 q 294 278 307 262 q 277 317 282 295 q 278 364 273 339 l 625 364 l 643 450 l 296 450 l 311 522 l 657 522 l 675 607 l 329 607 q 349 654 335 632 q 382 693 363 677 q 424 720 401 710 q 471 729 447 729 l 818 729 l 869 972 l 522 972 q 345 900 429 972 q 240 729 261 829 l 138 243 q 170 72 115 144 q 232 18 195 35 q 315 0 269 0 l 663 0 z "},"¥":{"ha":749,"x_min":80,"x_max":899,"o":"m 479 92 l 460 0 q 447 -20 456 -12 q 425 -29 437 -29 l 310 -29 q 293 -20 299 -29 q 289 0 287 -12 l 309 92 l 104 92 q 87 100 94 92 q 82 121 80 109 l 110 243 q 122 263 111 254 q 143 272 132 272 l 347 272 l 361 335 l 157 335 q 138 344 145 335 q 135 364 132 353 l 160 486 q 173 507 163 498 q 195 515 183 515 l 264 515 q 256 525 260 519 q 248 536 252 531 q 212 729 188 616 l 264 972 q 276 993 266 984 q 297 1002 287 1002 l 412 1002 q 432 993 425 1002 q 435 972 438 984 l 393 778 q 393 742 389 758 q 405 712 396 725 q 429 692 414 699 q 461 685 443 685 l 578 685 q 614 692 596 685 q 646 712 631 699 q 671 741 661 724 q 685 778 681 758 l 726 972 q 739 993 730 984 q 760 1002 748 1002 l 875 1002 q 893 993 886 1002 q 897 972 899 984 l 846 729 q 805 624 833 671 q 729 536 776 576 q 716 525 723 531 q 703 515 709 519 l 772 515 q 790 507 784 515 q 793 486 796 498 l 768 364 q 755 344 765 353 q 733 335 746 335 l 530 335 l 518 272 l 721 272 q 739 263 732 272 q 743 243 745 254 l 715 121 q 704 100 713 109 q 682 92 694 92 l 479 92 m 688 121 l 714 243 l 484 243 l 510 364 l 741 364 l 765 486 l 534 486 q 628 504 584 486 q 714 557 672 522 q 781 635 756 593 q 818 729 806 678 l 869 972 l 753 972 l 713 778 q 693 729 707 751 q 661 690 680 707 q 618 665 642 674 q 571 656 595 656 l 456 656 q 413 666 432 656 q 382 692 394 675 q 365 731 370 709 q 366 778 360 753 l 407 972 l 292 972 l 240 729 q 271 557 220 629 q 419 486 323 486 l 189 486 l 163 364 l 393 364 l 368 243 l 138 243 l 111 121 l 342 121 l 315 0 l 432 0 l 457 121 l 688 121 z "},"¦":{"ha":286,"x_min":28,"x_max":463,"o":"m 53 -151 q 35 -142 42 -151 q 32 -122 28 -134 l 142 401 q 155 422 145 413 q 176 431 165 431 l 292 431 q 310 422 303 431 q 314 401 316 413 l 203 -122 q 190 -142 199 -134 q 170 -151 181 -151 l 53 -151 m 200 542 q 182 551 189 542 q 179 571 176 559 l 289 1093 q 302 1114 292 1105 q 323 1122 312 1122 l 439 1122 q 457 1114 450 1122 q 461 1093 463 1105 l 350 571 q 337 551 347 559 q 315 542 328 542 l 200 542 m 322 571 l 432 1093 l 317 1093 l 207 571 l 322 571 m 175 -122 l 286 401 l 170 401 l 60 -122 l 175 -122 z "},"§":{"ha":749,"x_min":3,"x_max":899,"o":"m 539 364 q 540 400 543 383 q 527 430 536 417 q 504 450 518 442 q 471 457 489 457 q 435 450 452 457 q 404 430 418 442 q 379 400 389 417 q 364 364 368 383 q 363 329 360 345 q 376 299 367 312 q 399 279 385 287 q 432 272 414 272 q 468 279 450 272 q 500 299 486 287 q 525 329 515 312 q 539 364 535 345 m 690 0 q 572 -192 667 -113 q 476 -252 526 -233 q 374 -272 427 -272 l 26 -272 q 9 -263 16 -272 q 4 -243 3 -254 l 57 0 q 70 20 60 12 q 92 29 80 29 l 437 29 q 461 38 450 29 q 475 61 471 47 q 471 83 478 74 q 452 92 464 92 l 335 92 q 241 112 281 92 q 170 172 200 132 q 135 364 112 253 q 241 547 157 469 q 212 729 190 622 q 329 921 235 842 q 529 1002 422 1002 l 875 1002 q 893 993 886 1002 q 897 972 899 984 l 846 729 q 832 709 842 718 q 811 700 823 700 l 464 700 q 442 690 452 700 q 429 668 431 681 q 432 646 426 656 q 452 636 439 636 l 567 636 q 662 616 620 636 q 732 557 703 597 q 771 469 762 516 q 768 364 780 422 q 663 182 745 258 q 690 0 711 105 m 663 0 q 624 182 685 109 q 741 364 715 254 q 742 458 750 415 q 708 536 734 500 q 646 589 682 572 q 559 607 609 607 l 444 607 q 424 612 433 607 q 408 626 414 617 q 400 645 402 634 q 401 668 398 656 q 411 691 404 680 q 428 711 418 703 q 449 724 437 720 q 471 729 460 729 l 818 729 l 869 972 l 522 972 q 345 900 429 972 q 240 729 261 829 q 238 629 229 674 q 281 547 248 584 q 163 364 187 474 q 160 271 152 313 q 195 193 169 229 q 342 121 248 121 l 457 121 q 479 116 469 121 q 494 103 488 111 q 503 84 500 95 q 503 61 505 73 q 493 38 500 49 q 476 18 486 26 q 455 5 467 9 q 432 0 444 0 l 85 0 l 33 -243 l 379 -243 q 558 -171 476 -243 q 663 0 639 -100 m 568 364 q 548 317 562 339 q 515 278 534 295 q 473 252 496 262 q 427 243 450 243 q 384 252 403 243 q 353 278 365 262 q 336 317 340 295 q 336 364 331 339 q 355 412 341 389 q 388 451 369 434 q 431 477 408 467 q 478 486 454 486 q 520 477 501 486 q 551 451 539 467 q 568 412 564 434 q 568 364 573 389 z "},"¨":{"ha":518,"x_min":235,"x_max":669,"o":"m 260 821 q 242 829 249 821 q 237 850 235 838 l 264 972 q 276 993 266 984 q 297 1002 287 1002 l 412 1002 q 432 993 425 1002 q 435 972 438 984 l 410 850 q 397 829 406 838 q 375 821 388 821 l 260 821 m 490 821 q 473 829 479 821 q 471 850 467 838 l 496 972 q 508 993 499 984 q 529 1002 517 1002 l 644 1002 q 662 993 656 1002 q 665 972 669 984 l 640 850 q 628 829 637 838 q 607 821 618 821 l 490 821 m 612 850 l 637 972 l 522 972 l 497 850 l 612 850 m 382 850 l 407 972 l 292 972 l 267 850 l 382 850 z "},"©":{"ha":864,"x_min":82,"x_max":944,"o":"m 404 117 q 351 129 374 117 q 313 161 328 140 q 293 209 298 181 q 294 267 288 236 l 345 510 q 369 569 352 541 q 410 617 387 596 q 463 649 434 637 q 521 661 491 661 l 694 661 q 711 652 705 661 q 715 632 718 644 l 689 510 q 676 490 687 498 q 656 481 666 481 l 482 481 q 459 472 469 481 q 446 450 449 463 l 419 328 q 423 306 416 315 q 443 296 431 296 l 616 296 q 634 288 627 296 q 637 267 641 279 l 612 146 q 598 125 609 134 q 578 117 588 117 l 404 117 m 804 583 q 805 619 808 602 q 792 648 802 636 q 769 668 783 661 q 736 675 754 675 l 412 675 q 377 668 394 675 q 345 648 359 661 q 320 619 331 636 q 306 583 310 602 l 224 195 q 223 158 220 175 q 235 129 226 142 q 259 109 244 116 q 292 102 273 102 l 615 102 q 652 109 634 102 q 684 129 669 116 q 708 158 698 141 q 722 195 718 175 l 804 583 m 859 243 q 817 138 845 185 q 742 50 788 90 q 645 -10 694 9 q 541 -29 595 -29 l 310 -29 q 214 -10 255 -29 q 143 50 172 9 q 110 243 82 130 l 171 534 q 286 726 195 648 q 488 807 379 807 l 718 807 q 884 726 825 807 q 920 534 944 647 l 859 243 m 831 243 l 892 534 q 860 705 912 635 q 713 778 807 778 l 481 778 q 301 705 386 778 q 235 628 260 670 q 199 534 209 585 l 138 243 q 167 71 114 143 q 231 18 193 35 q 315 0 269 0 l 547 0 q 640 18 596 0 q 725 71 684 35 q 793 149 768 106 q 831 243 819 192 m 750 195 q 730 146 744 168 q 698 107 717 123 q 656 81 680 91 q 608 72 633 72 l 286 72 q 243 82 262 72 q 211 108 224 92 q 194 147 199 125 q 196 195 190 170 l 278 583 q 297 630 283 608 q 330 669 311 652 q 372 694 349 685 q 419 704 395 704 l 743 704 q 786 694 767 704 q 817 669 805 685 q 833 630 829 652 q 832 583 838 608 l 750 195 m 585 146 l 610 267 l 437 267 q 416 272 425 267 q 400 285 406 277 q 392 304 394 294 q 392 328 389 315 l 418 450 q 427 473 420 463 q 444 492 434 484 q 465 505 454 500 q 489 510 477 510 l 661 510 l 688 632 l 515 632 q 468 623 492 632 q 426 596 445 613 q 392 557 406 580 q 374 510 378 535 l 322 267 q 321 219 317 241 q 337 181 325 197 q 369 155 349 165 q 412 146 388 146 l 585 146 z "},"ª":{"ha":604,"x_min":157,"x_max":732,"o":"m 551 699 q 544 743 556 724 q 507 761 532 761 l 421 761 q 396 756 408 761 q 374 743 384 751 q 357 723 364 734 q 347 699 350 711 l 328 607 q 336 564 322 582 q 374 546 350 546 l 461 546 q 485 551 473 546 q 506 564 496 555 q 522 584 515 572 q 532 607 529 595 l 551 699 m 496 306 q 475 319 480 306 q 444 309 460 312 q 410 306 427 306 l 323 306 q 249 320 281 306 q 195 367 218 335 q 164 435 172 398 q 167 517 157 473 l 225 790 q 315 939 243 878 q 471 1002 389 1002 l 558 1002 q 686 939 642 1002 q 714 790 732 878 l 616 335 q 604 314 614 322 q 583 306 594 306 l 496 306 m 589 335 l 686 790 q 664 918 703 865 q 615 959 643 945 q 551 972 588 972 l 465 972 q 332 918 395 972 q 281 860 301 892 q 253 790 261 828 l 195 517 q 193 446 187 479 q 218 387 199 414 q 329 335 259 335 l 415 335 q 475 349 448 335 q 515 395 507 364 l 501 335 l 589 335 m 559 607 q 546 572 556 589 q 521 544 535 556 q 489 524 507 531 q 454 517 472 517 l 368 517 q 336 524 351 517 q 313 544 322 531 q 301 572 304 556 q 301 607 298 589 l 321 699 q 335 734 325 718 q 360 763 346 751 q 392 783 374 776 q 427 790 409 790 l 513 790 q 569 764 550 790 q 579 699 587 739 l 559 607 z "},"«":{"ha":859,"x_min":98,"x_max":890,"o":"m 395 -16 q 374 -28 386 -26 q 354 -25 363 -31 l 107 174 q 100 185 103 177 q 100 199 98 193 l 121 296 q 127 309 121 301 q 139 319 133 316 l 471 518 q 492 522 481 524 q 507 510 502 519 l 541 428 q 539 406 544 417 q 524 387 534 394 l 286 248 l 463 106 q 471 87 471 99 q 463 65 471 76 l 395 -16 m 742 -16 q 722 -28 733 -26 q 701 -25 710 -31 l 453 174 q 447 185 450 177 q 446 199 444 193 l 467 296 q 474 309 468 301 q 485 319 479 316 l 817 518 q 838 522 827 524 q 852 510 848 519 l 888 428 q 885 406 890 417 q 869 387 880 394 l 633 248 l 810 106 q 818 87 818 99 q 810 65 818 76 l 742 -16 m 790 82 l 582 248 l 860 412 l 827 493 l 494 296 l 473 199 l 722 0 l 790 82 m 443 82 l 236 248 l 514 412 l 481 493 l 149 296 l 127 199 l 375 0 l 443 82 z "},"¬":{"ha":633,"x_min":134,"x_max":678,"o":"m 503 227 q 486 235 492 227 q 481 256 479 243 l 500 347 l 160 347 q 141 356 149 347 q 138 376 134 365 l 158 473 q 171 494 161 486 q 192 503 181 503 l 654 503 q 672 494 666 503 q 675 473 678 486 l 629 256 q 617 235 627 243 q 596 227 608 227 l 503 227 m 602 256 l 647 473 l 186 473 l 165 376 l 534 376 l 510 256 l 602 256 z "},"®":{"ha":864,"x_min":82,"x_max":944,"o":"m 559 465 q 558 476 562 471 q 549 481 555 481 l 475 481 l 468 449 l 542 449 q 553 454 547 449 q 559 465 558 459 m 543 117 q 526 125 532 117 q 522 146 520 134 l 549 273 q 546 313 554 298 q 518 329 537 329 l 443 329 l 404 146 q 391 125 402 134 q 370 117 380 117 l 313 117 q 294 125 300 117 q 292 146 288 134 l 395 632 q 407 652 397 644 q 429 661 416 661 l 602 661 q 655 649 631 661 q 693 617 678 637 q 714 569 709 596 q 713 510 720 541 q 685 440 704 471 q 637 389 666 410 q 663 273 679 351 l 636 146 q 622 125 633 134 q 600 117 612 117 l 543 117 m 804 583 q 805 619 808 602 q 792 648 802 636 q 769 668 783 661 q 736 675 754 675 l 412 675 q 377 668 394 675 q 345 648 359 661 q 320 619 331 636 q 306 583 310 602 l 224 195 q 223 158 220 175 q 235 129 226 142 q 259 109 244 116 q 292 102 273 102 l 615 102 q 652 109 634 102 q 684 129 669 116 q 708 158 698 141 q 722 195 718 175 l 804 583 m 859 243 q 817 138 845 185 q 742 50 788 90 q 645 -10 694 9 q 541 -29 595 -29 l 310 -29 q 214 -10 255 -29 q 143 50 172 9 q 110 243 82 130 l 171 534 q 286 726 195 648 q 488 807 379 807 l 718 807 q 884 726 825 807 q 920 534 944 647 l 859 243 m 831 243 l 892 534 q 860 705 912 635 q 713 778 807 778 l 481 778 q 301 705 386 778 q 235 628 260 670 q 199 534 209 585 l 138 243 q 167 71 114 143 q 231 18 193 35 q 315 0 269 0 l 547 0 q 640 18 596 0 q 725 71 684 35 q 793 149 768 106 q 831 243 819 192 m 750 195 q 730 146 744 168 q 698 107 717 123 q 656 81 680 91 q 608 72 633 72 l 286 72 q 243 82 262 72 q 211 108 224 92 q 194 147 199 125 q 196 195 190 170 l 278 583 q 297 630 283 608 q 330 669 311 652 q 372 694 349 685 q 419 704 395 704 l 743 704 q 786 694 767 704 q 817 669 805 685 q 833 630 829 652 q 832 583 838 608 l 750 195 m 607 146 l 635 273 q 629 346 643 317 q 579 389 616 375 q 648 433 622 402 q 685 510 674 464 q 685 557 690 535 q 669 596 681 580 q 638 623 657 613 q 596 632 619 632 l 422 632 l 319 146 l 376 146 l 422 358 l 524 358 q 571 334 556 358 q 578 273 585 309 l 550 146 l 607 146 m 587 465 q 581 448 586 456 q 569 433 576 439 q 553 423 562 427 q 536 419 545 419 l 433 419 l 453 510 l 555 510 q 583 497 572 510 q 587 465 593 484 z "},"°":{"ha":449,"x_min":231,"x_max":594,"o":"m 478 888 q 478 914 481 902 q 469 936 476 926 q 451 950 462 945 q 427 956 440 956 q 401 950 414 956 q 377 936 388 945 q 358 914 366 926 q 347 888 350 902 q 347 861 345 873 q 357 839 350 848 q 374 825 363 830 q 397 819 385 819 q 424 825 411 819 q 449 839 437 830 q 468 861 460 848 q 478 888 475 873 m 578 888 q 503 762 564 815 q 375 713 447 713 q 314 725 340 713 q 267 762 288 737 q 245 888 231 814 q 321 1011 262 959 q 383 1049 351 1036 q 450 1063 414 1063 q 511 1049 485 1063 q 557 1011 538 1036 q 578 888 594 960 m 550 888 q 532 990 562 949 q 494 1022 516 1011 q 443 1034 473 1034 q 387 1022 414 1034 q 336 990 360 1011 q 296 944 313 969 q 273 888 280 918 q 293 783 261 826 q 331 752 308 762 q 382 742 353 742 q 489 783 439 742 q 550 888 538 826 m 504 888 q 489 849 500 867 q 462 818 477 831 q 429 798 447 805 q 392 790 410 790 q 357 798 372 790 q 332 818 342 805 q 319 849 323 831 q 319 888 315 867 q 335 925 324 907 q 361 956 346 943 q 395 977 376 969 q 432 985 413 985 q 467 977 451 985 q 492 956 482 969 q 505 925 502 943 q 504 888 509 907 z "},"±":{"ha":633,"x_min":54,"x_max":691,"o":"m 79 -29 q 61 -20 68 -29 q 57 0 54 -12 l 78 97 q 91 117 81 109 q 111 126 100 126 l 574 126 q 592 117 585 126 q 596 97 598 109 l 575 0 q 562 -20 572 -12 q 541 -29 553 -29 l 79 -29 m 476 408 l 441 243 q 429 222 439 231 q 407 214 418 214 l 315 214 q 297 222 304 214 q 294 243 291 231 l 328 408 l 171 408 q 154 417 160 408 q 150 437 148 426 l 171 534 q 183 555 173 546 q 205 564 194 564 l 363 564 l 397 729 q 410 749 399 741 q 432 758 420 758 l 524 758 q 542 749 535 758 q 546 729 548 741 l 510 564 l 667 564 q 685 555 680 564 q 689 534 691 546 l 668 437 q 655 417 666 426 q 633 408 645 408 l 476 408 m 640 437 l 661 534 l 476 534 l 518 729 l 425 729 l 383 534 l 199 534 l 179 437 l 364 437 l 322 243 l 414 243 l 456 437 l 640 437 m 547 0 l 568 97 l 106 97 l 85 0 l 547 0 z "},"²":{"ha":460,"x_min":184,"x_max":615,"o":"m 208 578 q 190 587 197 578 q 186 607 184 595 l 218 760 q 242 818 225 790 q 283 865 259 845 q 336 898 307 886 q 393 909 364 909 l 421 909 q 446 915 437 909 q 457 928 455 920 q 455 939 459 934 q 444 943 451 943 l 286 943 q 268 952 275 943 q 264 972 260 961 l 289 1093 q 302 1114 292 1105 q 323 1122 312 1122 l 497 1122 q 550 1111 526 1122 q 589 1078 574 1099 q 610 1030 604 1057 q 608 972 615 1003 l 603 942 q 578 884 596 911 q 537 836 561 857 q 484 803 513 815 q 427 791 456 791 l 354 791 q 343 786 348 791 q 336 775 338 781 l 334 758 l 536 758 q 553 749 547 758 q 558 729 559 741 l 530 607 q 518 587 529 595 q 497 578 508 578 l 208 578 m 503 607 l 529 729 l 298 729 l 309 775 q 328 807 313 794 q 361 821 343 821 l 432 821 q 479 830 456 821 q 522 856 503 840 q 555 895 541 873 q 575 942 569 917 l 581 972 q 582 1020 587 998 q 565 1058 578 1042 q 533 1084 553 1074 q 490 1093 514 1093 l 317 1093 l 292 972 l 452 972 q 478 959 468 972 q 485 928 489 945 q 461 891 481 904 q 410 880 442 879 l 387 880 q 341 871 363 880 q 299 845 318 861 q 266 807 280 829 q 248 760 252 785 l 214 607 l 503 607 z "},"³":{"ha":460,"x_min":184,"x_max":614,"o":"m 558 729 q 533 670 551 698 q 492 622 516 643 q 439 590 468 602 q 382 578 411 578 l 208 578 q 190 587 197 578 q 186 607 184 595 l 212 729 q 225 749 214 741 q 248 758 236 758 l 406 758 q 417 763 412 758 q 425 775 423 768 q 423 786 427 781 q 412 791 419 791 l 311 791 q 293 800 300 791 q 289 821 287 808 l 302 880 q 315 901 305 893 q 336 909 325 909 l 437 909 q 450 915 444 909 q 457 928 456 920 q 455 939 459 934 q 444 943 451 943 l 286 943 q 268 952 275 943 q 264 972 260 961 l 289 1093 q 302 1114 292 1105 q 323 1122 312 1122 l 497 1122 q 552 1110 528 1122 q 591 1077 576 1098 q 610 1027 606 1056 q 607 966 614 999 q 579 902 600 932 q 532 851 559 872 q 558 800 551 830 q 558 729 566 769 m 529 729 q 475 850 549 824 q 511 868 494 856 q 542 895 528 880 q 565 928 555 910 q 579 966 575 947 q 582 1016 585 993 q 567 1057 578 1040 q 535 1083 555 1074 q 490 1093 515 1093 l 317 1093 l 292 972 l 452 972 q 478 959 468 972 q 485 928 489 945 q 478 910 484 918 q 465 895 473 901 q 449 884 458 888 q 432 880 440 880 l 330 880 l 317 821 l 418 821 q 446 807 435 821 q 453 775 457 794 q 433 743 448 758 q 400 729 417 729 l 240 729 l 214 607 l 387 607 q 435 617 412 607 q 477 643 458 627 q 510 682 496 660 q 529 729 524 704 z "},"´":{"ha":334,"x_min":261,"x_max":446,"o":"m 342 772 q 329 777 336 772 q 321 787 322 782 l 264 957 q 263 973 261 965 q 270 987 265 981 q 282 998 275 994 q 297 1002 289 1002 l 390 1002 q 404 996 397 1002 q 412 983 410 989 l 444 812 q 445 797 446 804 q 438 785 443 790 q 426 776 433 779 q 411 772 419 772 l 342 772 m 416 802 l 383 972 l 292 972 l 347 802 l 416 802 z "},"µ":{"ha":749,"x_min":3,"x_max":874,"o":"m 310 -29 q 265 -24 287 -29 q 228 -5 243 -18 l 176 -243 q 164 -263 174 -254 q 142 -272 154 -272 l 26 -272 q 9 -263 16 -272 q 4 -243 3 -254 l 237 850 q 251 871 241 863 q 272 879 260 879 l 387 879 q 405 871 399 879 q 410 850 412 863 l 306 364 q 305 329 302 345 q 318 299 309 312 q 341 279 327 287 q 374 272 355 272 l 578 272 l 701 850 q 713 871 703 863 q 733 879 723 879 l 850 879 q 868 871 861 879 q 871 850 874 863 l 690 0 q 677 -20 687 -12 q 656 -29 668 -29 l 310 -29 m 663 0 l 843 850 l 728 850 l 599 243 l 368 243 q 326 252 345 243 q 294 278 307 262 q 277 317 282 295 q 278 364 273 339 l 382 850 l 267 850 l 33 -243 l 149 -243 l 218 82 q 222 47 215 62 q 245 20 229 31 q 278 4 261 9 q 315 0 296 0 l 663 0 z "},"μ":{"ha":749,"x_min":3,"x_max":874,"o":"m 310 -29 q 265 -24 287 -29 q 228 -5 243 -18 l 176 -243 q 164 -263 174 -254 q 142 -272 154 -272 l 26 -272 q 9 -263 16 -272 q 4 -243 3 -254 l 237 850 q 251 871 241 863 q 272 879 260 879 l 387 879 q 405 871 399 879 q 410 850 412 863 l 306 364 q 305 329 302 345 q 318 299 309 312 q 341 279 327 287 q 374 272 355 272 l 578 272 l 701 850 q 713 871 703 863 q 733 879 723 879 l 850 879 q 868 871 861 879 q 871 850 874 863 l 690 0 q 677 -20 687 -12 q 656 -29 668 -29 l 310 -29 m 663 0 l 843 850 l 728 850 l 599 243 l 368 243 q 326 252 345 243 q 294 278 307 262 q 277 317 282 295 q 278 364 273 339 l 382 850 l 267 850 l 33 -243 l 149 -243 l 218 82 q 222 47 215 62 q 245 20 229 31 q 278 4 261 9 q 315 0 296 0 l 663 0 z "},"¶":{"ha":864,"x_min":176,"x_max":1015,"o":"m 865 821 l 637 -243 q 626 -263 636 -254 q 604 -272 616 -272 l 489 -272 q 472 -263 477 -272 q 468 -243 466 -254 l 694 821 l 635 821 l 407 -243 q 395 -263 405 -254 q 374 -272 385 -272 l 257 -272 q 241 -263 246 -272 q 237 -243 235 -254 l 374 397 q 295 421 330 401 q 235 476 260 441 q 199 668 176 557 l 212 729 q 329 921 235 842 q 529 1002 422 1002 l 990 1002 q 1008 993 1002 1002 q 1013 972 1015 984 l 986 850 q 974 829 984 838 q 953 821 964 821 l 865 821 m 958 850 l 985 972 l 522 972 q 345 900 429 972 q 240 729 261 829 l 228 668 q 224 575 216 618 q 258 497 233 533 q 322 444 286 462 q 406 425 359 425 l 264 -243 l 379 -243 l 612 850 l 728 850 l 494 -243 l 610 -243 l 843 850 l 958 850 z "},"·":{"ha":334,"x_min":127,"x_max":385,"o":"m 150 311 q 134 320 140 311 q 131 340 127 329 l 165 510 q 178 531 169 522 q 199 539 188 539 l 361 539 q 379 531 372 539 q 383 510 385 522 l 347 340 q 335 320 345 329 q 313 311 324 311 l 150 311 m 319 340 l 354 510 l 193 510 l 158 340 l 319 340 z "},"¸":{"ha":355,"x_min":1,"x_max":274,"o":"m 267 -146 q 247 -195 261 -172 q 212 -235 232 -218 q 168 -262 192 -252 q 119 -272 144 -272 l 26 -272 q 6 -260 12 -272 q 8 -233 1 -249 l 29 -197 q 42 -183 33 -189 q 60 -178 52 -178 l 140 -178 q 163 -168 153 -178 q 176 -146 174 -159 q 172 -123 178 -133 q 153 -114 165 -114 l 96 -114 q 77 -104 82 -114 q 77 -79 71 -94 l 122 31 q 135 46 126 40 q 154 53 144 53 l 224 53 q 243 43 237 53 q 243 18 250 33 l 220 -32 q 261 -78 248 -47 q 267 -146 274 -109 m 237 -146 q 231 -86 245 -113 q 184 -52 216 -59 l 218 24 l 149 24 l 102 -85 l 160 -85 q 196 -103 183 -85 q 204 -146 209 -121 q 195 -169 202 -158 q 179 -189 189 -180 q 157 -202 169 -197 q 134 -207 146 -207 l 53 -207 l 33 -243 l 125 -243 q 163 -235 144 -243 q 197 -215 182 -228 q 223 -184 212 -201 q 237 -146 234 -166 z "},"¹":{"ha":286,"x_min":184,"x_max":434,"o":"m 208 578 q 190 587 197 578 q 186 607 184 595 l 212 729 q 225 749 214 741 q 248 758 236 758 l 286 943 q 268 952 275 943 q 264 972 260 961 l 289 1093 q 302 1114 292 1105 q 323 1122 312 1122 l 411 1122 q 428 1114 422 1122 q 432 1093 434 1105 l 361 758 l 363 758 q 380 749 374 758 q 383 729 385 741 l 357 607 q 345 587 355 595 q 323 578 335 578 l 208 578 m 329 607 l 355 729 l 328 729 l 404 1093 l 317 1093 l 292 972 l 321 972 l 269 729 l 240 729 l 214 607 l 329 607 z "},"º":{"ha":604,"x_min":157,"x_max":722,"o":"m 551 699 q 544 743 556 724 q 507 761 531 761 l 421 761 q 396 756 408 761 q 374 743 384 751 q 357 723 364 734 q 347 699 350 711 l 328 607 q 336 564 322 582 q 374 546 350 546 l 461 546 q 506 564 486 546 q 532 607 526 581 l 551 699 m 656 517 q 566 366 637 429 q 410 306 496 306 l 323 306 q 249 320 281 306 q 195 367 218 335 q 164 435 172 398 q 167 517 157 473 l 225 790 q 315 939 243 878 q 471 1002 389 1002 l 558 1002 q 686 939 642 1002 q 716 871 709 908 q 714 790 722 834 l 656 517 m 628 517 l 686 790 q 664 918 703 865 q 551 972 622 972 l 465 972 q 332 918 395 972 q 281 860 301 892 q 253 790 261 828 l 195 517 q 193 446 187 479 q 218 387 199 414 q 329 335 259 335 l 415 335 q 550 386 489 335 q 600 446 581 414 q 628 517 619 478 m 559 607 q 546 571 555 587 q 522 543 536 555 q 490 524 507 530 q 454 517 473 517 l 368 517 q 336 524 351 517 q 313 544 322 531 q 301 572 304 556 q 301 607 298 589 l 321 699 q 335 734 325 718 q 360 763 346 751 q 392 783 374 776 q 427 790 409 790 l 513 790 q 544 783 530 790 q 567 763 558 776 q 580 734 576 751 q 579 699 583 718 l 559 607 z "},"»":{"ha":859,"x_min":73,"x_max":864,"o":"m 146 -25 q 124 -28 134 -31 q 110 -16 114 -26 l 75 65 q 77 87 73 76 q 92 106 81 99 l 329 248 l 153 387 q 144 406 143 394 q 153 428 144 417 l 221 510 q 241 522 229 519 q 261 518 253 524 l 510 319 q 516 309 513 316 q 517 296 518 301 l 496 199 q 489 185 494 193 q 478 174 484 177 l 146 -25 m 492 -25 q 471 -28 481 -31 q 456 -16 460 -26 l 422 65 q 423 87 419 76 q 439 106 427 99 l 675 248 l 500 387 q 491 406 490 394 q 500 428 492 417 l 568 510 q 588 522 576 519 q 607 518 600 524 l 856 319 q 862 309 859 316 q 863 296 864 301 l 842 199 q 834 185 840 193 q 823 174 829 177 l 492 -25 m 815 199 l 836 296 l 587 493 l 519 412 l 726 248 l 449 82 l 482 0 l 815 199 m 469 199 l 490 296 l 240 493 l 172 412 l 380 248 l 102 82 l 136 0 l 469 199 z "},"¼":{"ha":633,"x_min":151,"x_max":688,"o":"m 387 554 q 370 563 377 554 q 366 583 363 572 l 386 681 q 397 699 388 691 q 416 710 406 707 l 446 846 q 430 856 435 848 q 428 875 425 863 l 449 972 q 461 993 451 984 q 482 1002 471 1002 l 551 1002 q 571 993 564 1002 q 574 972 577 984 l 518 710 q 532 699 528 707 q 534 681 537 691 l 514 583 q 502 563 511 572 q 481 554 492 554 l 387 554 m 175 421 q 157 429 163 421 q 153 450 151 437 l 168 522 q 181 543 170 535 q 203 551 193 551 l 665 551 q 683 543 677 551 q 685 522 688 535 l 671 450 q 658 429 667 437 q 636 421 649 421 l 175 421 m 379 -29 q 361 -20 368 -29 q 357 0 355 -12 l 366 39 l 208 39 q 191 47 198 39 q 187 68 184 56 l 235 292 q 247 312 237 303 q 268 321 258 321 l 315 321 q 333 312 327 321 q 336 292 340 303 l 315 195 l 399 195 l 440 389 q 453 409 442 400 q 473 418 463 418 l 519 418 q 539 409 532 418 q 542 389 545 400 l 460 0 q 447 -20 456 -12 q 425 -29 437 -29 l 379 -29 m 486 583 l 507 681 l 484 681 l 546 972 l 476 972 l 456 875 l 479 875 l 437 681 l 414 681 l 393 583 l 486 583 m 643 450 l 657 522 l 196 522 l 180 450 l 643 450 m 432 0 l 514 389 l 468 389 l 421 165 l 282 165 l 309 292 l 262 292 l 215 68 l 400 68 l 385 0 l 432 0 z "},"½":{"ha":633,"x_min":151,"x_max":688,"o":"m 387 554 q 370 563 377 554 q 366 583 363 572 l 386 681 q 397 699 388 691 q 416 710 406 707 l 446 846 q 430 856 435 848 q 428 875 425 863 l 449 972 q 461 993 451 984 q 482 1002 471 1002 l 551 1002 q 571 993 564 1002 q 574 972 577 984 l 518 710 q 532 699 528 707 q 534 681 537 691 l 514 583 q 502 563 511 572 q 481 554 492 554 l 387 554 m 175 421 q 157 429 163 421 q 153 450 151 437 l 168 522 q 181 543 170 535 q 203 551 193 551 l 665 551 q 683 543 677 551 q 685 522 688 535 l 671 450 q 658 429 667 437 q 636 421 649 421 l 175 421 m 195 -29 q 177 -20 183 -29 q 172 0 170 -12 l 199 121 q 218 170 203 147 q 252 211 233 193 q 296 238 272 228 q 345 248 320 248 l 380 248 q 389 256 387 248 q 388 261 389 259 q 383 262 387 262 l 257 262 q 238 271 245 262 q 235 292 231 280 l 256 389 q 268 409 258 400 q 289 418 279 418 l 428 418 q 472 408 452 418 q 505 381 492 398 q 522 340 517 363 q 521 292 527 317 l 517 267 q 496 218 511 241 q 461 178 481 195 q 418 151 441 161 q 370 140 394 140 l 313 140 q 302 134 305 140 l 301 126 l 458 126 q 476 117 470 126 q 481 97 483 109 l 460 0 q 447 -20 456 -12 q 425 -29 437 -29 l 195 -29 m 486 583 l 507 681 l 484 681 l 546 972 l 476 972 l 456 875 l 479 875 l 437 681 l 414 681 l 393 583 l 486 583 m 643 450 l 657 522 l 196 522 l 180 450 l 643 450 m 432 0 l 452 97 l 267 97 l 275 134 q 318 170 283 170 l 375 170 q 413 177 394 170 q 447 198 431 185 q 473 229 462 212 q 489 267 484 247 l 493 292 q 494 329 497 311 q 480 360 490 347 q 456 381 471 373 q 422 389 441 389 l 283 389 l 262 292 l 390 292 q 414 282 407 292 q 416 256 421 273 q 374 218 408 218 l 339 218 q 301 211 319 218 q 268 190 283 203 q 241 159 252 176 q 227 121 231 141 l 200 0 l 432 0 z "},"¾":{"ha":633,"x_min":151,"x_max":688,"o":"m 175 421 q 157 429 163 421 q 153 450 151 437 l 168 522 q 181 543 170 535 q 203 551 193 551 l 665 551 q 683 543 677 551 q 685 522 688 535 l 671 450 q 658 429 667 437 q 636 421 649 421 l 175 421 m 379 -29 q 361 -20 368 -29 q 357 0 355 -12 l 366 39 l 208 39 q 191 47 198 39 q 187 68 184 56 l 235 292 q 247 312 237 303 q 268 321 258 321 l 315 321 q 333 312 327 321 q 336 292 340 303 l 315 195 l 399 195 l 440 389 q 453 409 442 400 q 473 418 463 418 l 519 418 q 539 409 532 418 q 542 389 545 400 l 460 0 q 447 -20 456 -12 q 425 -29 437 -29 l 379 -29 m 604 681 q 584 631 598 654 q 549 591 569 608 q 505 564 529 574 q 457 554 481 554 l 318 554 q 301 563 308 554 q 296 583 294 572 l 317 681 q 330 701 320 692 q 351 710 340 710 l 479 710 q 486 717 486 710 q 487 722 488 721 q 482 724 486 724 l 401 724 q 383 732 390 724 q 379 753 376 741 l 389 802 q 402 822 392 814 q 422 831 412 831 l 504 831 q 510 833 509 831 q 513 839 511 835 q 509 846 515 846 l 380 846 q 362 854 369 846 q 358 875 355 863 l 379 972 q 392 993 382 984 q 412 1002 402 1002 l 551 1002 q 595 992 576 1002 q 628 965 615 982 q 646 924 641 947 q 646 875 651 901 l 644 869 q 590 777 632 810 q 604 681 616 744 m 576 681 q 533 778 593 754 q 616 869 602 798 l 616 875 q 617 912 621 895 q 605 944 614 930 q 580 965 595 957 q 546 972 565 972 l 407 972 l 386 875 l 514 875 q 541 839 549 875 q 498 802 532 802 l 416 802 l 407 753 l 489 753 q 514 717 522 753 q 472 681 508 681 l 345 681 l 325 583 l 463 583 q 500 591 481 583 q 535 611 519 598 q 561 643 550 625 q 576 681 572 661 m 643 450 l 657 522 l 196 522 l 180 450 l 643 450 m 432 0 l 514 389 l 468 389 l 421 165 l 282 165 l 309 292 l 262 292 l 215 68 l 400 68 l 385 0 l 432 0 z "},"¿":{"ha":679,"x_min":59,"x_max":748,"o":"m 513 652 q 495 661 501 652 q 490 681 488 669 l 528 850 q 539 871 530 863 q 561 879 549 879 l 724 879 q 741 871 734 879 q 745 850 748 863 l 708 681 q 695 661 705 669 q 675 652 686 652 l 513 652 m 285 -151 q 189 -131 230 -151 q 119 -71 149 -111 q 82 121 59 10 q 124 226 94 178 q 200 314 153 273 q 296 374 247 354 q 400 393 345 393 l 464 393 l 511 561 q 525 580 515 572 q 546 587 534 587 l 615 587 q 631 580 625 587 q 636 561 638 572 l 591 245 q 579 223 589 232 q 557 214 568 214 l 361 214 q 338 204 349 214 q 325 182 328 195 q 329 160 323 170 q 347 150 336 150 l 625 150 q 643 142 637 150 q 646 121 649 134 l 596 -122 q 583 -142 593 -134 q 561 -151 574 -151 l 285 -151 m 681 681 l 717 850 l 555 850 l 519 681 l 681 681 m 568 -122 l 618 121 l 342 121 q 321 126 330 121 q 305 139 311 131 q 297 159 299 148 q 297 182 294 170 q 308 205 300 194 q 325 225 315 216 q 346 238 334 233 q 368 243 357 243 l 564 243 l 608 558 l 539 558 l 485 364 l 393 364 q 215 293 298 364 q 148 215 174 257 q 111 121 121 172 q 109 28 100 71 q 142 -50 117 -14 q 206 -104 169 -85 q 290 -122 243 -122 l 568 -122 z "},"À":{"ha":749,"x_min":54,"x_max":869,"o":"m 555 1015 q 543 1020 550 1015 q 533 1031 536 1025 l 478 1200 q 477 1216 475 1208 q 484 1230 479 1223 q 496 1240 488 1236 q 511 1244 503 1244 l 604 1244 q 618 1239 612 1244 q 625 1226 624 1233 l 659 1055 q 651 1027 662 1040 q 625 1015 641 1015 l 555 1015 m 313 393 l 604 393 l 648 607 q 649 644 652 627 q 637 673 646 661 q 613 693 627 686 q 579 700 598 700 l 464 700 q 428 693 446 700 q 396 673 411 686 q 371 643 382 660 q 357 607 361 626 l 313 393 m 541 -29 q 524 -20 530 -29 q 519 0 517 -12 l 566 214 l 273 214 l 228 0 q 216 -20 226 -12 q 195 -29 206 -29 l 79 -29 q 61 -20 68 -29 q 57 0 54 -12 l 212 729 q 329 921 235 842 q 529 1002 422 1002 l 644 1002 q 741 982 699 1002 q 811 922 782 963 q 846 729 869 843 l 690 0 q 677 -20 687 -12 q 656 -29 668 -29 l 541 -29 m 631 1044 l 597 1215 l 505 1215 l 561 1044 l 631 1044 m 663 0 l 818 729 q 787 901 837 831 q 725 955 762 937 q 637 972 688 972 l 522 972 q 345 900 429 972 q 240 729 261 829 l 85 0 l 200 0 l 253 243 l 599 243 l 547 0 l 663 0 m 625 364 l 278 364 l 329 607 q 349 654 335 632 q 382 693 363 677 q 424 720 401 710 q 471 729 447 729 l 587 729 q 631 720 612 729 q 662 694 650 710 q 677 655 673 677 q 675 607 681 633 l 625 364 z "},"Á":{"ha":749,"x_min":54,"x_max":869,"o":"m 652 1031 q 639 1020 647 1025 q 625 1015 631 1015 l 555 1015 q 535 1027 540 1015 q 539 1055 530 1040 l 643 1226 q 657 1239 647 1233 q 673 1244 667 1244 l 765 1244 q 780 1240 774 1244 q 788 1230 786 1236 q 788 1216 790 1223 q 781 1200 787 1208 l 652 1031 m 313 393 l 604 393 l 648 607 q 649 644 652 627 q 637 673 646 661 q 613 693 627 686 q 579 700 598 700 l 464 700 q 428 693 446 700 q 396 673 411 686 q 371 643 382 660 q 357 607 361 626 l 313 393 m 541 -29 q 524 -20 530 -29 q 519 0 517 -12 l 566 214 l 273 214 l 228 0 q 216 -20 226 -12 q 195 -29 206 -29 l 79 -29 q 61 -20 68 -29 q 57 0 54 -12 l 212 729 q 329 921 235 842 q 529 1002 422 1002 l 644 1002 q 741 982 699 1002 q 811 922 782 963 q 846 729 869 843 l 690 0 q 677 -20 687 -12 q 656 -29 668 -29 l 541 -29 m 760 1215 l 667 1215 l 561 1044 l 631 1044 l 760 1215 m 663 0 l 818 729 q 787 901 837 831 q 725 955 762 937 q 637 972 688 972 l 522 972 q 345 900 429 972 q 240 729 261 829 l 85 0 l 200 0 l 253 243 l 599 243 l 547 0 l 663 0 m 625 364 l 278 364 l 329 607 q 349 654 335 632 q 382 693 363 677 q 424 720 401 710 q 471 729 447 729 l 587 729 q 631 720 612 729 q 662 694 650 710 q 677 655 673 677 q 675 607 681 633 l 625 364 z "},"Â":{"ha":749,"x_min":54,"x_max":869,"o":"m 660 1015 q 648 1019 654 1015 q 639 1028 641 1023 l 607 1096 l 547 1028 q 535 1019 543 1023 q 521 1015 526 1015 l 452 1015 q 438 1019 444 1015 q 430 1030 432 1023 q 429 1044 428 1036 q 436 1060 431 1052 l 566 1229 q 578 1240 569 1236 q 593 1244 587 1244 l 685 1244 q 697 1240 691 1244 q 705 1229 704 1236 l 762 1060 q 764 1044 765 1052 q 758 1030 762 1036 q 745 1019 753 1023 q 729 1015 738 1015 l 660 1015 m 313 393 l 604 393 l 648 607 q 649 644 652 627 q 637 673 646 661 q 613 693 627 686 q 579 700 598 700 l 464 700 q 428 693 446 700 q 396 673 411 686 q 371 643 382 660 q 357 607 361 626 l 313 393 m 541 -29 q 524 -20 530 -29 q 519 0 517 -12 l 566 214 l 273 214 l 228 0 q 216 -20 226 -12 q 195 -29 206 -29 l 79 -29 q 61 -20 68 -29 q 57 0 54 -12 l 212 729 q 329 921 235 842 q 529 1002 422 1002 l 644 1002 q 741 982 699 1002 q 811 922 782 963 q 846 729 869 843 l 690 0 q 677 -20 687 -12 q 656 -29 668 -29 l 541 -29 m 734 1044 l 679 1215 l 587 1215 l 458 1044 l 528 1044 l 618 1147 l 665 1044 l 734 1044 m 663 0 l 818 729 q 787 901 837 831 q 725 955 762 937 q 637 972 688 972 l 522 972 q 345 900 429 972 q 240 729 261 829 l 85 0 l 200 0 l 253 243 l 599 243 l 547 0 l 663 0 m 625 364 l 278 364 l 329 607 q 349 654 335 632 q 382 693 363 677 q 424 720 401 710 q 471 729 447 729 l 587 729 q 631 720 612 729 q 662 694 650 710 q 677 655 673 677 q 675 607 681 633 l 625 364 z "},"Ã":{"ha":749,"x_min":54,"x_max":869,"o":"m 794 1074 q 647 1015 726 1015 q 581 1044 616 1015 q 542 1064 557 1064 q 437 1025 485 1064 q 420 1016 429 1017 q 405 1017 412 1014 q 396 1027 399 1020 q 395 1044 393 1034 l 415 1141 q 420 1153 416 1146 q 428 1162 425 1160 q 499 1206 463 1192 q 575 1219 535 1219 q 642 1190 606 1219 q 664 1176 653 1182 q 681 1171 674 1171 q 785 1211 736 1171 q 802 1220 793 1219 q 817 1218 810 1221 q 827 1208 823 1215 q 828 1190 830 1200 l 807 1093 l 794 1074 m 313 393 l 604 393 l 648 607 q 649 644 652 627 q 637 673 646 661 q 613 693 627 686 q 579 700 598 700 l 464 700 q 428 693 446 700 q 396 673 411 686 q 371 643 382 660 q 357 607 361 626 l 313 393 m 541 -29 q 524 -20 530 -29 q 519 0 517 -12 l 566 214 l 273 214 l 228 0 q 216 -20 226 -12 q 195 -29 206 -29 l 79 -29 q 61 -20 68 -29 q 57 0 54 -12 l 212 729 q 329 921 235 842 q 529 1002 422 1002 l 644 1002 q 741 982 699 1002 q 811 922 782 963 q 846 729 869 843 l 690 0 q 677 -20 687 -12 q 656 -29 668 -29 l 541 -29 m 779 1093 l 800 1190 q 675 1141 742 1141 q 650 1148 663 1141 q 623 1166 637 1155 q 568 1190 593 1190 q 504 1179 534 1190 q 443 1141 473 1167 l 422 1044 q 549 1093 479 1093 q 573 1087 560 1093 q 602 1069 587 1081 q 629 1051 616 1058 q 654 1044 643 1044 q 779 1093 722 1044 m 663 0 l 818 729 q 787 901 837 831 q 725 955 762 937 q 637 972 688 972 l 522 972 q 345 900 429 972 q 240 729 261 829 l 85 0 l 200 0 l 253 243 l 599 243 l 547 0 l 663 0 m 625 364 l 278 364 l 329 607 q 349 654 335 632 q 382 693 363 677 q 424 720 401 710 q 471 729 447 729 l 587 729 q 631 720 612 729 q 662 694 650 710 q 677 655 673 677 q 675 607 681 633 l 625 364 z "},"Ä":{"ha":749,"x_min":54,"x_max":869,"o":"m 647 1015 q 630 1024 637 1015 q 627 1044 623 1033 l 652 1166 q 665 1187 655 1178 q 685 1196 674 1196 l 802 1196 q 819 1187 813 1196 q 822 1166 825 1178 l 798 1044 q 785 1024 794 1033 q 762 1015 775 1015 l 647 1015 m 416 1015 q 399 1024 406 1015 q 395 1044 393 1033 l 421 1166 q 433 1187 423 1178 q 454 1196 444 1196 l 570 1196 q 588 1187 582 1196 q 591 1166 595 1178 l 567 1044 q 554 1024 564 1033 q 532 1015 545 1015 l 416 1015 m 313 393 l 604 393 l 648 607 q 649 644 652 627 q 637 673 646 661 q 613 693 627 686 q 579 700 598 700 l 464 700 q 428 693 446 700 q 396 673 411 686 q 371 643 382 660 q 357 607 361 626 l 313 393 m 541 -29 q 524 -20 530 -29 q 519 0 517 -12 l 566 214 l 273 214 l 228 0 q 216 -20 226 -12 q 195 -29 206 -29 l 79 -29 q 61 -20 68 -29 q 57 0 54 -12 l 212 729 q 329 921 235 842 q 529 1002 422 1002 l 644 1002 q 741 982 699 1002 q 811 922 782 963 q 846 729 869 843 l 690 0 q 677 -20 687 -12 q 656 -29 668 -29 l 541 -29 m 770 1044 l 794 1166 l 679 1166 l 654 1044 l 770 1044 m 539 1044 l 564 1166 l 449 1166 l 422 1044 l 539 1044 m 663 0 l 818 729 q 787 901 837 831 q 725 955 762 937 q 637 972 688 972 l 522 972 q 345 900 429 972 q 240 729 261 829 l 85 0 l 200 0 l 253 243 l 599 243 l 547 0 l 663 0 m 625 364 l 278 364 l 329 607 q 349 654 335 632 q 382 693 363 677 q 424 720 401 710 q 471 729 447 729 l 587 729 q 631 720 612 729 q 662 694 650 710 q 677 655 673 677 q 675 607 681 633 l 625 364 z "},"Å":{"ha":749,"x_min":54,"x_max":857,"o":"m 665 1069 q 667 1096 669 1084 q 658 1117 665 1108 q 640 1132 651 1126 q 616 1137 629 1137 q 566 1118 588 1137 q 538 1069 544 1098 q 545 1021 531 1041 q 587 1002 559 1002 q 613 1007 600 1002 q 636 1022 626 1013 q 654 1043 647 1031 q 665 1069 662 1055 m 313 393 l 604 393 l 648 607 q 649 644 652 627 q 637 673 646 661 q 613 693 627 686 q 579 700 598 700 l 464 700 q 428 693 446 700 q 396 673 411 686 q 371 643 382 660 q 357 607 361 626 l 313 393 m 541 -29 q 524 -20 530 -29 q 519 0 517 -12 l 566 214 l 273 214 l 228 0 q 216 -20 226 -12 q 195 -29 206 -29 l 79 -29 q 61 -20 68 -29 q 57 0 54 -12 l 212 729 q 247 821 223 777 q 310 903 271 864 q 372 952 340 932 q 436 986 403 972 q 435 1069 427 1020 q 510 1193 451 1143 q 639 1244 570 1244 q 746 1193 709 1244 q 768 1069 785 1142 q 729 986 760 1025 q 784 953 762 974 q 823 903 807 932 l 822 903 q 850 821 844 864 q 846 729 857 778 l 690 0 q 677 -20 687 -12 q 656 -29 668 -29 l 541 -29 m 663 0 l 818 729 q 822 812 827 774 q 799 885 817 851 q 679 968 759 951 q 741 1069 727 1009 q 742 1126 747 1100 q 722 1173 737 1152 q 684 1204 707 1193 q 633 1215 662 1215 q 577 1204 604 1215 q 525 1173 550 1193 q 463 1069 475 1131 q 461 1015 456 1040 q 481 968 465 989 q 399 939 437 960 q 326 885 361 918 q 240 729 260 817 l 85 0 l 200 0 l 253 243 l 599 243 l 547 0 l 663 0 m 694 1069 q 679 1031 690 1049 q 653 1001 668 1014 q 618 980 637 987 q 581 972 600 972 q 546 980 561 972 q 522 1001 531 987 q 509 1031 512 1014 q 510 1069 506 1049 q 524 1107 513 1089 q 550 1138 535 1124 q 584 1159 566 1151 q 623 1166 603 1166 q 656 1159 642 1166 q 681 1138 671 1151 q 694 1107 691 1124 q 694 1069 698 1089 m 625 364 l 278 364 l 329 607 q 349 654 335 632 q 382 693 363 677 q 424 720 401 710 q 471 729 447 729 l 587 729 q 631 720 612 729 q 662 694 650 710 q 677 655 673 677 q 675 607 681 633 l 625 364 z "},"Æ":{"ha":1036,"x_min":54,"x_max":1190,"o":"m 313 393 l 604 393 l 648 607 q 649 644 652 627 q 637 673 646 661 q 613 693 627 686 q 579 700 598 700 l 464 700 q 428 693 446 700 q 396 673 411 686 q 371 643 382 660 q 357 607 361 626 l 313 393 m 772 -29 q 676 -10 717 -29 q 606 50 635 9 q 569 125 578 85 q 566 214 560 165 l 273 214 l 228 0 q 216 -20 226 -12 q 195 -29 206 -29 l 79 -29 q 61 -20 68 -29 q 57 0 54 -12 l 212 729 q 329 921 235 842 q 529 1002 422 1002 l 597 1002 q 725 964 673 1002 l 726 972 q 739 993 730 984 q 760 1002 748 1002 l 1164 1002 q 1182 993 1175 1002 q 1186 972 1190 984 l 1135 729 q 1121 709 1133 718 q 1100 700 1110 700 l 839 700 l 812 576 l 958 576 q 976 568 970 576 q 981 547 983 559 l 954 425 q 942 405 952 414 q 920 396 931 396 l 774 396 l 768 364 q 767 328 764 345 q 779 299 770 311 q 803 279 788 286 q 836 272 817 272 l 1010 272 q 1028 263 1021 272 q 1032 243 1034 254 l 979 0 q 967 -20 977 -12 q 946 -29 956 -29 l 772 -29 m 951 0 l 1004 243 l 831 243 q 786 252 806 243 q 755 278 767 262 q 739 316 743 294 q 741 364 734 338 l 753 425 l 926 425 l 953 547 l 779 547 l 818 729 l 1107 729 l 1158 972 l 753 972 l 739 904 q 676 955 713 938 q 591 972 640 972 l 522 972 q 345 900 429 972 q 240 729 261 829 l 85 0 l 200 0 l 253 243 l 599 243 q 628 71 578 142 q 778 0 682 0 l 951 0 m 625 364 l 278 364 l 329 607 q 349 654 335 632 q 382 693 363 677 q 424 720 401 710 q 471 729 447 729 l 587 729 q 631 720 612 729 q 662 694 650 710 q 677 655 673 677 q 675 607 681 633 l 625 364 z "},"Ç":{"ha":749,"x_min":96,"x_max":899,"o":"m 465 -29 l 463 -32 q 504 -78 491 -47 q 510 -146 517 -109 q 489 -195 504 -172 q 455 -235 475 -218 q 411 -262 435 -252 q 363 -272 387 -272 l 269 -272 q 249 -260 255 -272 q 252 -233 243 -249 l 271 -197 q 284 -183 275 -189 q 301 -178 294 -178 l 383 -178 q 405 -168 395 -178 q 418 -146 416 -159 q 415 -123 421 -133 q 396 -114 408 -114 l 338 -114 q 318 -104 324 -114 q 318 -79 313 -94 l 340 -29 l 310 -29 q 215 -9 255 -29 q 144 52 175 11 q 105 139 114 92 q 110 243 96 186 l 212 729 q 329 921 235 842 q 529 1002 422 1002 l 875 1002 q 893 993 886 1002 q 897 972 899 984 l 846 729 q 832 709 842 718 q 811 700 823 700 l 464 700 q 428 693 446 700 q 396 673 411 686 q 371 643 382 660 q 357 607 361 626 l 306 364 q 305 329 302 345 q 318 299 309 312 q 341 279 327 287 q 374 272 355 272 l 721 272 q 739 263 732 272 q 743 243 745 254 l 690 0 q 677 -20 687 -12 q 656 -29 668 -29 l 465 -29 m 663 0 l 714 243 l 368 243 q 326 252 345 243 q 294 278 307 262 q 277 317 282 295 q 278 364 273 339 l 329 607 q 349 654 335 632 q 382 693 363 677 q 424 720 401 710 q 471 729 447 729 l 818 729 l 869 972 l 522 972 q 345 900 429 972 q 240 729 261 829 l 138 243 q 170 72 115 144 q 232 18 195 35 q 315 0 269 0 l 380 0 l 345 -85 l 403 -85 q 423 -90 414 -85 q 438 -103 432 -94 q 446 -122 444 -111 q 446 -146 448 -134 q 437 -169 444 -158 q 420 -189 430 -180 q 399 -202 411 -197 q 376 -207 388 -207 l 296 -207 l 277 -243 l 368 -243 q 406 -235 387 -243 q 440 -215 425 -228 q 466 -184 455 -201 q 481 -146 477 -166 q 473 -86 488 -113 q 428 -52 458 -59 l 450 0 l 663 0 z "},"È":{"ha":633,"x_min":83,"x_max":784,"o":"m 498 1015 q 486 1020 492 1015 q 476 1031 479 1025 l 421 1200 q 419 1216 418 1208 q 426 1230 421 1223 q 439 1240 431 1236 q 454 1244 446 1244 l 547 1244 q 560 1239 553 1244 q 568 1226 567 1233 l 602 1055 q 593 1027 604 1040 q 568 1015 583 1015 l 498 1015 m 310 -29 q 214 -10 255 -29 q 143 50 172 9 q 110 243 83 130 l 264 972 q 276 993 266 984 q 297 1002 287 1002 l 760 1002 q 778 993 771 1002 q 782 972 784 984 l 730 729 q 717 709 727 718 q 694 700 707 700 l 376 700 l 351 576 l 554 576 q 572 568 566 576 q 576 547 578 559 l 549 425 q 537 405 547 414 q 515 396 527 396 l 313 396 l 306 364 q 305 328 302 345 q 318 299 309 311 q 341 279 327 286 q 374 272 355 272 l 606 272 q 623 263 617 272 q 627 243 629 254 l 575 0 q 562 -20 572 -12 q 541 -29 553 -29 l 310 -29 m 574 1044 l 541 1215 l 449 1215 l 504 1044 l 574 1044 m 547 0 l 599 243 l 368 243 q 325 252 344 243 q 293 278 305 262 q 277 316 281 294 q 278 364 273 338 l 290 425 l 521 425 l 549 547 l 317 547 l 355 729 l 703 729 l 753 972 l 292 972 l 138 243 q 167 71 115 142 q 315 0 219 0 l 547 0 z "},"É":{"ha":633,"x_min":83,"x_max":784,"o":"m 595 1031 q 582 1020 590 1025 q 568 1015 574 1015 l 498 1015 q 477 1027 483 1015 q 481 1055 471 1040 l 586 1226 q 600 1239 590 1233 q 616 1244 609 1244 l 708 1244 q 730 1230 726 1244 q 724 1200 735 1215 l 595 1031 m 310 -29 q 214 -10 255 -29 q 143 50 172 9 q 110 243 83 130 l 264 972 q 276 993 266 984 q 297 1002 287 1002 l 760 1002 q 778 993 771 1002 q 782 972 784 984 l 730 729 q 717 709 727 718 q 694 700 707 700 l 376 700 l 351 576 l 554 576 q 572 568 566 576 q 576 547 578 559 l 549 425 q 537 405 547 414 q 515 396 527 396 l 313 396 l 306 364 q 305 328 302 345 q 318 299 309 311 q 341 279 327 286 q 374 272 355 272 l 606 272 q 623 263 617 272 q 627 243 629 254 l 575 0 q 562 -20 572 -12 q 541 -29 553 -29 l 310 -29 m 703 1215 l 610 1215 l 504 1044 l 574 1044 l 703 1215 m 547 0 l 599 243 l 368 243 q 325 252 344 243 q 293 278 305 262 q 277 316 281 294 q 278 364 273 338 l 290 425 l 521 425 l 549 547 l 317 547 l 355 729 l 703 729 l 753 972 l 292 972 l 138 243 q 167 71 115 142 q 315 0 219 0 l 547 0 z "},"Ê":{"ha":633,"x_min":83,"x_max":784,"o":"m 602 1015 q 590 1019 597 1015 q 581 1028 583 1023 l 549 1096 l 489 1028 q 477 1019 485 1023 q 463 1015 469 1015 l 393 1015 q 380 1019 385 1015 q 372 1030 374 1023 q 371 1044 370 1036 q 378 1060 372 1052 l 507 1229 q 520 1240 511 1236 q 534 1244 529 1244 l 627 1244 q 640 1240 634 1244 q 647 1229 646 1236 l 704 1060 q 706 1044 707 1052 q 700 1030 705 1036 q 687 1019 694 1023 q 671 1015 680 1015 l 602 1015 m 310 -29 q 214 -10 255 -29 q 143 50 172 9 q 110 243 83 130 l 264 972 q 276 993 266 984 q 297 1002 287 1002 l 760 1002 q 778 993 771 1002 q 782 972 784 984 l 730 729 q 717 709 727 718 q 694 700 707 700 l 376 700 l 351 576 l 554 576 q 572 568 566 576 q 576 547 578 559 l 549 425 q 537 405 547 414 q 515 396 527 396 l 313 396 l 306 364 q 305 328 302 345 q 318 299 309 311 q 341 279 327 286 q 374 272 355 272 l 606 272 q 623 263 617 272 q 627 243 629 254 l 575 0 q 562 -20 572 -12 q 541 -29 553 -29 l 310 -29 m 676 1044 l 621 1215 l 529 1215 l 400 1044 l 469 1044 l 559 1147 l 607 1044 l 676 1044 m 547 0 l 599 243 l 368 243 q 325 252 344 243 q 293 278 305 262 q 277 316 281 294 q 278 364 273 338 l 290 425 l 521 425 l 549 547 l 317 547 l 355 729 l 703 729 l 753 972 l 292 972 l 138 243 q 167 71 115 142 q 315 0 219 0 l 547 0 z "},"Ë":{"ha":633,"x_min":83,"x_max":784,"o":"m 590 1015 q 572 1024 578 1015 q 568 1044 566 1033 l 595 1166 q 607 1187 597 1178 q 628 1196 616 1196 l 743 1196 q 762 1187 755 1196 q 765 1166 768 1178 l 741 1044 q 727 1024 737 1033 q 705 1015 717 1015 l 590 1015 m 359 1015 q 342 1024 348 1015 q 338 1044 336 1033 l 364 1166 q 376 1187 366 1178 q 397 1196 386 1196 l 513 1196 q 531 1187 524 1196 q 534 1166 538 1178 l 510 1044 q 496 1024 507 1033 q 475 1015 486 1015 l 359 1015 m 310 -29 q 214 -10 255 -29 q 143 50 172 9 q 110 243 83 130 l 264 972 q 276 993 266 984 q 297 1002 287 1002 l 760 1002 q 778 993 771 1002 q 782 972 784 984 l 730 729 q 717 709 727 718 q 694 700 707 700 l 376 700 l 351 576 l 554 576 q 572 568 566 576 q 576 547 578 559 l 549 425 q 537 405 547 414 q 515 396 527 396 l 313 396 l 306 364 q 305 328 302 345 q 318 299 309 311 q 341 279 327 286 q 374 272 355 272 l 606 272 q 623 263 617 272 q 627 243 629 254 l 575 0 q 562 -20 572 -12 q 541 -29 553 -29 l 310 -29 m 713 1044 l 737 1166 l 623 1166 l 597 1044 l 713 1044 m 481 1044 l 507 1166 l 392 1166 l 366 1044 l 481 1044 m 547 0 l 599 243 l 368 243 q 325 252 344 243 q 293 278 305 262 q 277 316 281 294 q 278 364 273 338 l 290 425 l 521 425 l 549 547 l 317 547 l 355 729 l 703 729 l 753 972 l 292 972 l 138 243 q 167 71 115 142 q 315 0 219 0 l 547 0 z "},"Ì":{"ha":403,"x_min":54,"x_max":553,"o":"m 383 1015 q 370 1020 376 1015 q 361 1031 363 1025 l 306 1200 q 304 1216 302 1208 q 310 1230 305 1223 q 323 1240 315 1236 q 339 1244 330 1244 l 432 1244 q 445 1239 438 1244 q 452 1226 452 1233 l 486 1055 q 478 1027 488 1040 q 452 1015 467 1015 l 383 1015 m 79 -29 q 61 -20 68 -29 q 57 0 54 -12 l 110 243 q 122 263 111 254 q 143 272 132 272 l 174 272 l 264 700 l 233 700 q 215 709 222 700 q 212 729 209 718 l 264 972 q 276 993 266 984 q 297 1002 287 1002 l 529 1002 q 547 993 541 1002 q 550 972 553 984 l 500 729 q 487 709 496 718 q 464 700 477 700 l 435 700 l 345 272 l 374 272 q 392 263 386 272 q 396 243 398 254 l 345 0 q 331 -20 341 -12 q 310 -29 321 -29 l 79 -29 m 458 1044 l 425 1215 l 334 1215 l 389 1044 l 458 1044 m 315 0 l 368 243 l 311 243 l 414 729 l 471 729 l 522 972 l 292 972 l 240 729 l 298 729 l 196 243 l 138 243 l 85 0 l 315 0 z "},"Í":{"ha":403,"x_min":54,"x_max":617,"o":"m 479 1031 q 466 1020 475 1025 q 452 1015 458 1015 l 383 1015 q 362 1027 368 1015 q 366 1055 356 1040 l 471 1226 q 484 1239 475 1233 q 500 1244 492 1244 l 593 1244 q 607 1240 602 1244 q 615 1230 613 1236 q 615 1216 617 1223 q 607 1200 613 1208 l 479 1031 m 79 -29 q 61 -20 68 -29 q 57 0 54 -12 l 110 243 q 122 263 111 254 q 143 272 132 272 l 174 272 l 264 700 l 233 700 q 215 709 222 700 q 212 729 209 718 l 264 972 q 276 993 266 984 q 297 1002 287 1002 l 529 1002 q 547 993 541 1002 q 550 972 553 984 l 500 729 q 487 709 496 718 q 464 700 477 700 l 435 700 l 345 272 l 374 272 q 392 263 386 272 q 396 243 398 254 l 345 0 q 331 -20 341 -12 q 310 -29 321 -29 l 79 -29 m 587 1215 l 494 1215 l 389 1044 l 458 1044 l 587 1215 m 315 0 l 368 243 l 311 243 l 414 729 l 471 729 l 522 972 l 292 972 l 240 729 l 298 729 l 196 243 l 138 243 l 85 0 l 315 0 z "},"Î":{"ha":403,"x_min":54,"x_max":591,"o":"m 486 1015 q 475 1019 482 1015 q 465 1028 467 1023 l 433 1096 l 374 1028 q 361 1019 370 1023 q 347 1015 353 1015 l 278 1015 q 264 1019 270 1015 q 256 1030 258 1023 q 256 1044 254 1036 q 262 1060 257 1052 l 392 1229 q 405 1240 395 1236 q 419 1244 414 1244 l 511 1244 q 524 1240 517 1244 q 532 1229 530 1236 l 587 1060 q 590 1044 591 1052 q 584 1030 589 1036 q 571 1019 578 1023 q 555 1015 564 1015 l 486 1015 m 79 -29 q 61 -20 68 -29 q 57 0 54 -12 l 110 243 q 122 263 111 254 q 143 272 132 272 l 174 272 l 264 700 l 233 700 q 215 709 222 700 q 212 729 209 718 l 264 972 q 276 993 266 984 q 297 1002 287 1002 l 529 1002 q 547 993 541 1002 q 550 972 553 984 l 500 729 q 487 709 496 718 q 464 700 477 700 l 435 700 l 345 272 l 374 272 q 392 263 386 272 q 396 243 398 254 l 345 0 q 331 -20 341 -12 q 310 -29 321 -29 l 79 -29 m 561 1044 l 505 1215 l 412 1215 l 285 1044 l 354 1044 l 444 1147 l 492 1044 l 561 1044 m 315 0 l 368 243 l 311 243 l 414 729 l 471 729 l 522 972 l 292 972 l 240 729 l 298 729 l 196 243 l 138 243 l 85 0 l 315 0 z "},"Ï":{"ha":403,"x_min":54,"x_max":653,"o":"m 475 1015 q 457 1024 463 1015 q 453 1044 451 1033 l 479 1166 q 491 1187 481 1178 q 513 1196 501 1196 l 628 1196 q 646 1187 640 1196 q 650 1166 653 1178 l 625 1044 q 612 1024 622 1033 q 590 1015 602 1015 l 475 1015 m 244 1015 q 225 1024 232 1015 q 222 1044 219 1033 l 248 1166 q 261 1187 251 1178 q 282 1196 271 1196 l 397 1196 q 415 1187 409 1196 q 419 1166 422 1178 l 393 1044 q 380 1024 391 1033 q 359 1015 370 1015 l 244 1015 m 79 -29 q 61 -20 68 -29 q 57 0 54 -12 l 110 243 q 122 263 111 254 q 143 272 132 272 l 174 272 l 264 700 l 233 700 q 215 709 222 700 q 212 729 209 718 l 264 972 q 276 993 266 984 q 297 1002 287 1002 l 529 1002 q 547 993 541 1002 q 550 972 553 984 l 500 729 q 487 709 496 718 q 464 700 477 700 l 435 700 l 345 272 l 374 272 q 392 263 386 272 q 396 243 398 254 l 345 0 q 331 -20 341 -12 q 310 -29 321 -29 l 79 -29 m 597 1044 l 623 1166 l 507 1166 l 481 1044 l 597 1044 m 366 1044 l 392 1166 l 277 1166 l 250 1044 l 366 1044 m 315 0 l 368 243 l 311 243 l 414 729 l 471 729 l 522 972 l 292 972 l 240 729 l 298 729 l 196 243 l 138 243 l 85 0 l 315 0 z "},"Ð":{"ha":835,"x_min":117,"x_max":955,"o":"m 734 607 q 735 643 739 626 q 723 673 732 660 q 699 693 713 686 q 667 700 684 700 l 463 700 l 437 576 l 642 576 q 659 568 652 576 q 663 547 665 559 l 636 425 q 624 405 634 414 q 603 396 613 396 l 399 396 l 374 272 l 578 272 q 613 279 596 272 q 645 299 631 286 q 670 328 660 311 q 685 364 681 345 l 734 607 m 829 243 q 787 138 816 185 q 714 50 759 90 q 616 -10 665 9 q 513 -29 567 -29 l 167 -29 q 148 -20 154 -29 q 144 0 141 -12 l 228 396 l 140 396 q 123 405 129 396 q 119 425 117 414 l 146 547 q 158 568 148 559 q 179 576 168 576 l 267 576 l 351 972 q 363 993 353 984 q 385 1002 373 1002 l 732 1002 q 897 921 838 1002 q 932 729 955 842 l 829 243 m 802 243 l 905 729 q 872 900 925 830 q 725 972 819 972 l 379 972 l 289 547 l 174 547 l 147 425 l 262 425 l 172 0 l 519 0 q 696 71 614 0 q 802 243 780 141 m 713 364 q 693 316 707 338 q 661 278 680 294 q 618 252 642 262 q 571 243 595 243 l 340 243 l 378 425 l 608 425 l 636 547 l 404 547 l 443 729 l 675 729 q 717 720 698 729 q 748 693 736 710 q 764 654 760 677 q 762 607 768 632 l 713 364 z "},"Ñ":{"ha":749,"x_min":54,"x_max":869,"o":"m 794 1074 q 647 1015 726 1015 q 581 1044 616 1015 q 542 1064 557 1064 q 437 1025 485 1064 q 420 1016 429 1017 q 405 1017 412 1014 q 396 1027 399 1020 q 395 1044 393 1034 l 415 1141 q 420 1153 416 1146 q 428 1162 425 1160 q 499 1206 463 1192 q 575 1219 535 1219 q 642 1190 606 1219 q 664 1176 653 1182 q 681 1171 674 1171 q 785 1211 736 1171 q 802 1220 793 1219 q 817 1218 810 1221 q 827 1208 823 1215 q 828 1190 830 1200 l 807 1093 l 794 1074 m 541 -29 q 524 -20 530 -29 q 519 0 517 -12 l 648 607 q 649 644 652 627 q 637 673 646 661 q 613 693 627 686 q 579 700 598 700 l 464 700 q 428 693 446 700 q 396 673 411 686 q 371 643 382 660 q 357 607 361 626 l 228 0 q 216 -20 226 -12 q 195 -29 206 -29 l 79 -29 q 61 -20 68 -29 q 57 0 54 -12 l 212 729 q 328 921 235 841 q 529 1002 420 1002 l 644 1002 q 741 982 699 1002 q 811 922 782 963 q 846 729 869 843 l 690 0 q 677 -20 687 -12 q 656 -29 668 -29 l 541 -29 m 779 1093 l 800 1190 q 675 1141 742 1141 q 650 1148 663 1141 q 623 1166 637 1155 q 568 1190 593 1190 q 504 1179 534 1190 q 443 1141 473 1167 l 422 1044 q 549 1093 479 1093 q 573 1087 560 1093 q 602 1069 587 1081 q 629 1051 616 1058 q 654 1044 643 1044 q 779 1093 722 1044 m 663 0 l 818 729 q 787 901 837 831 q 725 955 762 937 q 637 972 688 972 l 522 972 q 345 900 427 972 q 276 822 302 864 q 240 729 251 780 l 85 0 l 200 0 l 329 607 q 349 654 335 632 q 382 693 363 677 q 424 720 401 710 q 471 729 447 729 l 587 729 q 631 720 612 729 q 662 694 650 710 q 677 655 673 677 q 675 607 681 633 l 547 0 l 663 0 z "},"Ò":{"ha":749,"x_min":82,"x_max":869,"o":"m 555 1015 q 543 1020 550 1015 q 533 1031 536 1025 l 478 1200 q 477 1216 475 1208 q 484 1230 479 1223 q 496 1240 488 1236 q 511 1244 503 1244 l 604 1244 q 618 1239 612 1244 q 625 1226 624 1233 l 659 1055 q 651 1027 662 1040 q 625 1015 641 1015 l 555 1015 m 648 607 q 649 643 652 626 q 636 673 646 660 q 612 693 627 686 q 579 700 597 700 l 464 700 q 428 693 446 700 q 396 673 411 686 q 371 643 382 660 q 357 607 361 626 l 306 364 q 305 329 302 345 q 318 299 309 312 q 341 279 327 287 q 374 272 355 272 l 490 272 q 526 279 509 272 q 558 299 544 286 q 583 328 573 311 q 597 364 593 345 l 648 607 m 743 243 q 701 138 730 185 q 627 50 673 90 q 530 -10 579 9 q 425 -29 480 -29 l 310 -29 q 214 -10 255 -29 q 143 50 172 9 q 110 243 82 130 l 212 729 q 328 921 235 841 q 529 1002 420 1002 l 644 1002 q 810 921 752 1002 q 846 729 869 842 l 743 243 m 631 1044 l 597 1215 l 505 1215 l 561 1044 l 631 1044 m 714 243 l 818 729 q 786 900 837 829 q 723 954 760 936 q 637 972 686 972 l 522 972 q 345 900 427 972 q 276 822 302 864 q 240 729 251 780 l 138 243 q 167 71 114 143 q 231 18 193 35 q 315 0 269 0 l 432 0 q 525 18 481 0 q 610 71 569 35 q 714 243 693 142 m 625 364 q 606 316 619 338 q 573 278 592 294 q 531 252 554 262 q 484 243 508 243 l 368 243 q 326 252 345 243 q 294 278 307 262 q 277 317 282 295 q 278 364 273 339 l 329 607 q 349 654 335 632 q 382 693 363 677 q 424 720 401 710 q 471 729 447 729 l 587 729 q 630 720 612 729 q 661 693 649 710 q 677 654 673 677 q 675 607 681 632 l 625 364 z "},"Ó":{"ha":749,"x_min":82,"x_max":869,"o":"m 652 1031 q 639 1020 647 1025 q 625 1015 631 1015 l 555 1015 q 535 1027 540 1015 q 539 1055 530 1040 l 643 1226 q 657 1239 647 1233 q 673 1244 667 1244 l 765 1244 q 780 1240 774 1244 q 788 1230 786 1236 q 788 1216 790 1223 q 781 1200 787 1208 l 652 1031 m 648 607 q 649 643 652 626 q 636 673 646 660 q 612 693 627 686 q 579 700 597 700 l 464 700 q 428 693 446 700 q 396 673 411 686 q 371 643 382 660 q 357 607 361 626 l 306 364 q 305 329 302 345 q 318 299 309 312 q 341 279 327 287 q 374 272 355 272 l 490 272 q 526 279 509 272 q 558 299 544 286 q 583 328 573 311 q 597 364 593 345 l 648 607 m 743 243 q 701 138 730 185 q 627 50 673 90 q 530 -10 579 9 q 425 -29 480 -29 l 310 -29 q 214 -10 255 -29 q 143 50 172 9 q 110 243 82 130 l 212 729 q 328 921 235 841 q 529 1002 420 1002 l 644 1002 q 810 921 752 1002 q 846 729 869 842 l 743 243 m 760 1215 l 667 1215 l 561 1044 l 631 1044 l 760 1215 m 714 243 l 818 729 q 786 900 837 829 q 723 954 760 936 q 637 972 686 972 l 522 972 q 345 900 427 972 q 276 822 302 864 q 240 729 251 780 l 138 243 q 167 71 114 143 q 231 18 193 35 q 315 0 269 0 l 432 0 q 525 18 481 0 q 610 71 569 35 q 714 243 693 142 m 625 364 q 606 316 619 338 q 573 278 592 294 q 531 252 554 262 q 484 243 508 243 l 368 243 q 326 252 345 243 q 294 278 307 262 q 277 317 282 295 q 278 364 273 339 l 329 607 q 349 654 335 632 q 382 693 363 677 q 424 720 401 710 q 471 729 447 729 l 587 729 q 630 720 612 729 q 661 693 649 710 q 677 654 673 677 q 675 607 681 632 l 625 364 z "},"Ô":{"ha":749,"x_min":82,"x_max":869,"o":"m 660 1015 q 648 1019 654 1015 q 639 1028 641 1023 l 607 1096 l 547 1028 q 535 1019 543 1023 q 521 1015 526 1015 l 452 1015 q 438 1019 444 1015 q 430 1030 432 1023 q 429 1044 428 1036 q 436 1060 431 1052 l 566 1229 q 578 1240 569 1236 q 593 1244 587 1244 l 685 1244 q 697 1240 691 1244 q 705 1229 704 1236 l 762 1060 q 764 1044 765 1052 q 758 1030 762 1036 q 745 1019 753 1023 q 729 1015 738 1015 l 660 1015 m 648 607 q 649 643 652 626 q 636 673 646 660 q 612 693 627 686 q 579 700 597 700 l 464 700 q 428 693 446 700 q 396 673 411 686 q 371 643 382 660 q 357 607 361 626 l 306 364 q 305 329 302 345 q 318 299 309 312 q 341 279 327 287 q 374 272 355 272 l 490 272 q 526 279 509 272 q 558 299 544 286 q 583 328 573 311 q 597 364 593 345 l 648 607 m 743 243 q 701 138 730 185 q 627 50 673 90 q 530 -10 579 9 q 425 -29 480 -29 l 310 -29 q 214 -10 255 -29 q 143 50 172 9 q 110 243 82 130 l 212 729 q 328 921 235 841 q 529 1002 420 1002 l 644 1002 q 810 921 752 1002 q 846 729 869 842 l 743 243 m 734 1044 l 679 1215 l 587 1215 l 458 1044 l 528 1044 l 618 1147 l 665 1044 l 734 1044 m 714 243 l 818 729 q 786 900 837 829 q 723 954 760 936 q 637 972 686 972 l 522 972 q 345 900 427 972 q 276 822 302 864 q 240 729 251 780 l 138 243 q 167 71 114 143 q 231 18 193 35 q 315 0 269 0 l 432 0 q 525 18 481 0 q 610 71 569 35 q 714 243 693 142 m 625 364 q 606 316 619 338 q 573 278 592 294 q 531 252 554 262 q 484 243 508 243 l 368 243 q 326 252 345 243 q 294 278 307 262 q 277 317 282 295 q 278 364 273 339 l 329 607 q 349 654 335 632 q 382 693 363 677 q 424 720 401 710 q 471 729 447 729 l 587 729 q 630 720 612 729 q 661 693 649 710 q 677 654 673 677 q 675 607 681 632 l 625 364 z "},"Õ":{"ha":749,"x_min":82,"x_max":869,"o":"m 794 1074 q 647 1015 726 1015 q 581 1044 616 1015 q 542 1064 557 1064 q 437 1025 485 1064 q 420 1016 429 1017 q 405 1017 412 1014 q 396 1027 399 1020 q 395 1044 393 1034 l 415 1141 q 420 1153 416 1146 q 428 1162 425 1160 q 499 1206 463 1192 q 575 1219 535 1219 q 642 1190 606 1219 q 664 1176 653 1182 q 681 1171 674 1171 q 785 1211 736 1171 q 802 1220 793 1219 q 817 1218 810 1221 q 827 1208 823 1215 q 828 1190 830 1200 l 807 1093 l 794 1074 m 648 607 q 649 643 652 626 q 636 673 646 660 q 612 693 627 686 q 579 700 597 700 l 464 700 q 428 693 446 700 q 396 673 411 686 q 371 643 382 660 q 357 607 361 626 l 306 364 q 305 329 302 345 q 318 299 309 312 q 341 279 327 287 q 374 272 355 272 l 490 272 q 526 279 509 272 q 558 299 544 286 q 583 328 573 311 q 597 364 593 345 l 648 607 m 743 243 q 701 138 730 185 q 627 50 673 90 q 530 -10 579 9 q 425 -29 480 -29 l 310 -29 q 214 -10 255 -29 q 143 50 172 9 q 110 243 82 130 l 212 729 q 328 921 235 841 q 529 1002 420 1002 l 644 1002 q 810 921 752 1002 q 846 729 869 842 l 743 243 m 779 1093 l 800 1190 q 675 1141 742 1141 q 650 1148 663 1141 q 623 1166 637 1155 q 568 1190 593 1190 q 504 1179 534 1190 q 443 1141 473 1167 l 422 1044 q 549 1093 479 1093 q 573 1087 560 1093 q 602 1069 587 1081 q 629 1051 616 1058 q 654 1044 643 1044 q 779 1093 722 1044 m 714 243 l 818 729 q 786 900 837 829 q 723 954 760 936 q 637 972 686 972 l 522 972 q 345 900 427 972 q 276 822 302 864 q 240 729 251 780 l 138 243 q 167 71 114 143 q 231 18 193 35 q 315 0 269 0 l 432 0 q 525 18 481 0 q 610 71 569 35 q 714 243 693 142 m 625 364 q 606 316 619 338 q 573 278 592 294 q 531 252 554 262 q 484 243 508 243 l 368 243 q 326 252 345 243 q 294 278 307 262 q 277 317 282 295 q 278 364 273 339 l 329 607 q 349 654 335 632 q 382 693 363 677 q 424 720 401 710 q 471 729 447 729 l 587 729 q 630 720 612 729 q 661 693 649 710 q 677 654 673 677 q 675 607 681 632 l 625 364 z "},"Ö":{"ha":749,"x_min":82,"x_max":869,"o":"m 416 1015 q 399 1024 406 1015 q 395 1044 393 1033 l 421 1166 q 433 1187 423 1178 q 454 1196 444 1196 l 570 1196 q 588 1187 582 1196 q 591 1166 595 1178 l 567 1044 q 554 1024 564 1033 q 532 1015 545 1015 l 416 1015 m 647 1015 q 630 1024 637 1015 q 627 1044 623 1033 l 652 1166 q 665 1187 655 1178 q 685 1196 674 1196 l 802 1196 q 819 1187 813 1196 q 822 1166 825 1178 l 798 1044 q 785 1024 794 1033 q 762 1015 775 1015 l 647 1015 m 648 607 q 649 643 652 626 q 636 673 646 660 q 612 693 627 686 q 579 700 597 700 l 464 700 q 428 693 446 700 q 396 673 411 686 q 371 643 382 660 q 357 607 361 626 l 306 364 q 305 329 302 345 q 318 299 309 312 q 341 279 327 287 q 374 272 355 272 l 490 272 q 526 279 509 272 q 558 299 544 286 q 583 328 573 311 q 597 364 593 345 l 648 607 m 743 243 q 701 138 730 185 q 627 50 673 90 q 530 -10 579 9 q 425 -29 480 -29 l 310 -29 q 214 -10 255 -29 q 143 50 172 9 q 110 243 82 130 l 212 729 q 328 921 235 841 q 529 1002 420 1002 l 644 1002 q 810 921 752 1002 q 846 729 869 842 l 743 243 m 770 1044 l 794 1166 l 679 1166 l 654 1044 l 770 1044 m 539 1044 l 564 1166 l 449 1166 l 422 1044 l 539 1044 m 714 243 l 818 729 q 786 900 837 829 q 723 954 760 936 q 637 972 686 972 l 522 972 q 345 900 427 972 q 276 822 302 864 q 240 729 251 780 l 138 243 q 167 71 114 143 q 231 18 193 35 q 315 0 269 0 l 432 0 q 525 18 481 0 q 610 71 569 35 q 714 243 693 142 m 625 364 q 606 316 619 338 q 573 278 592 294 q 531 252 554 262 q 484 243 508 243 l 368 243 q 326 252 345 243 q 294 278 307 262 q 277 317 282 295 q 278 364 273 339 l 329 607 q 349 654 335 632 q 382 693 363 677 q 424 720 401 710 q 471 729 447 729 l 587 729 q 630 720 612 729 q 661 693 649 710 q 677 654 673 677 q 675 607 681 632 l 625 364 z "},"×":{"ha":596,"x_min":113,"x_max":663,"o":"m 503 180 q 481 172 493 172 q 464 180 469 172 l 364 315 l 210 180 q 189 172 200 172 q 170 180 177 172 l 119 250 q 116 271 113 258 q 127 292 118 283 l 283 425 l 184 558 q 181 579 179 567 q 193 600 184 591 l 273 669 q 295 678 283 678 q 314 669 308 678 l 412 536 l 568 669 q 588 678 576 678 q 607 669 600 678 l 657 600 q 661 579 663 591 q 648 558 659 567 l 493 425 l 591 292 q 596 271 598 283 q 583 250 594 258 l 503 180 m 568 271 l 453 425 l 633 579 l 583 648 l 403 494 l 289 648 l 208 579 l 322 425 l 142 271 l 193 201 l 374 355 l 488 201 l 568 271 z "},"Ø":{"ha":749,"x_min":6,"x_max":947,"o":"m 309 375 l 597 697 q 589 699 594 699 q 579 700 585 700 l 464 700 q 428 693 446 700 q 396 673 411 686 q 371 643 382 660 q 357 607 361 626 l 309 375 m 646 596 l 354 275 q 365 272 361 273 q 374 272 370 272 l 490 272 q 526 279 509 272 q 558 299 544 286 q 583 328 573 311 q 597 364 593 345 l 646 596 m 850 821 q 846 729 854 777 l 743 243 q 701 138 730 185 q 627 50 673 90 q 530 -10 579 9 q 425 -29 480 -29 l 310 -29 q 149 45 203 -29 l 92 -17 q 72 -29 83 -27 q 53 -24 60 -31 l 14 14 q 7 32 6 21 q 17 53 7 43 l 104 150 q 110 243 97 194 l 212 729 q 328 921 235 841 q 529 1002 420 1002 l 644 1002 q 807 928 749 1002 l 863 989 q 882 1001 871 1000 q 901 996 894 1003 l 940 958 q 947 940 947 951 q 937 918 946 928 l 850 821 m 920 936 l 880 972 l 800 880 q 637 972 747 972 l 522 972 q 345 900 427 972 q 276 822 302 864 q 240 729 251 780 l 138 243 q 131 194 132 217 q 135 147 130 170 l 35 36 l 74 0 l 155 92 q 315 0 206 0 l 432 0 q 525 18 481 0 q 610 71 569 35 q 714 243 693 142 l 818 729 q 823 778 822 754 q 819 825 825 802 l 920 936 m 644 710 l 281 307 q 276 335 277 321 q 278 364 275 349 l 329 607 q 349 654 335 632 q 382 693 363 677 q 424 720 401 710 q 471 729 447 729 l 587 729 q 617 725 603 729 q 644 710 631 720 m 625 364 q 606 316 619 338 q 573 278 592 294 q 531 252 554 262 q 484 243 508 243 l 368 243 q 311 262 335 243 l 675 665 q 675 607 684 637 l 625 364 z "},"Ù":{"ha":749,"x_min":82,"x_max":899,"o":"m 555 1015 q 543 1020 550 1015 q 533 1031 536 1025 l 478 1200 q 477 1216 475 1208 q 484 1230 479 1223 q 496 1240 488 1236 q 511 1244 503 1244 l 604 1244 q 618 1239 612 1244 q 625 1226 624 1233 l 659 1055 q 651 1027 662 1040 q 625 1015 641 1015 l 555 1015 m 743 243 q 701 138 730 185 q 627 50 673 90 q 530 -10 579 9 q 425 -29 480 -29 l 310 -29 q 214 -10 255 -29 q 143 50 172 9 q 110 243 82 130 l 264 972 q 276 993 266 984 q 297 1002 287 1002 l 412 1002 q 432 993 425 1002 q 435 972 438 984 l 306 364 q 305 329 302 345 q 318 299 309 312 q 341 279 327 287 q 374 272 355 272 l 490 272 q 526 279 509 272 q 558 299 544 286 q 583 328 573 311 q 597 364 593 345 l 726 972 q 739 993 730 984 q 760 1002 748 1002 l 875 1002 q 893 993 886 1002 q 897 972 899 984 l 743 243 m 631 1044 l 597 1215 l 505 1215 l 561 1044 l 631 1044 m 714 243 l 869 972 l 753 972 l 625 364 q 606 316 619 338 q 573 278 592 294 q 531 252 554 262 q 484 243 508 243 l 368 243 q 326 252 345 243 q 294 278 307 262 q 277 317 282 295 q 278 364 273 339 l 407 972 l 292 972 l 138 243 q 167 71 114 143 q 231 18 193 35 q 315 0 269 0 l 432 0 q 525 18 481 0 q 610 71 569 35 q 714 243 693 142 z "},"Ú":{"ha":749,"x_min":82,"x_max":899,"o":"m 652 1031 q 639 1020 647 1025 q 625 1015 631 1015 l 555 1015 q 535 1027 540 1015 q 539 1055 530 1040 l 643 1226 q 657 1239 647 1233 q 673 1244 667 1244 l 765 1244 q 780 1240 774 1244 q 788 1230 786 1236 q 788 1216 790 1223 q 781 1200 787 1208 l 652 1031 m 743 243 q 701 138 730 185 q 627 50 673 90 q 530 -10 579 9 q 425 -29 480 -29 l 310 -29 q 214 -10 255 -29 q 143 50 172 9 q 110 243 82 130 l 264 972 q 276 993 266 984 q 297 1002 287 1002 l 412 1002 q 432 993 425 1002 q 435 972 438 984 l 306 364 q 305 329 302 345 q 318 299 309 312 q 341 279 327 287 q 374 272 355 272 l 490 272 q 526 279 509 272 q 558 299 544 286 q 583 328 573 311 q 597 364 593 345 l 726 972 q 739 993 730 984 q 760 1002 748 1002 l 875 1002 q 893 993 886 1002 q 897 972 899 984 l 743 243 m 760 1215 l 667 1215 l 561 1044 l 631 1044 l 760 1215 m 714 243 l 869 972 l 753 972 l 625 364 q 606 316 619 338 q 573 278 592 294 q 531 252 554 262 q 484 243 508 243 l 368 243 q 326 252 345 243 q 294 278 307 262 q 277 317 282 295 q 278 364 273 339 l 407 972 l 292 972 l 138 243 q 167 71 114 143 q 231 18 193 35 q 315 0 269 0 l 432 0 q 525 18 481 0 q 610 71 569 35 q 714 243 693 142 z "},"Û":{"ha":749,"x_min":82,"x_max":899,"o":"m 660 1015 q 648 1019 654 1015 q 639 1028 641 1023 l 607 1096 l 547 1028 q 535 1019 543 1023 q 521 1015 526 1015 l 452 1015 q 438 1019 444 1015 q 430 1030 432 1023 q 429 1044 428 1036 q 436 1060 431 1052 l 566 1229 q 578 1240 569 1236 q 593 1244 587 1244 l 685 1244 q 697 1240 691 1244 q 705 1229 704 1236 l 762 1060 q 764 1044 765 1052 q 758 1030 762 1036 q 745 1019 753 1023 q 729 1015 738 1015 l 660 1015 m 743 243 q 701 138 730 185 q 627 50 673 90 q 530 -10 579 9 q 425 -29 480 -29 l 310 -29 q 214 -10 255 -29 q 143 50 172 9 q 110 243 82 130 l 264 972 q 276 993 266 984 q 297 1002 287 1002 l 412 1002 q 432 993 425 1002 q 435 972 438 984 l 306 364 q 305 329 302 345 q 318 299 309 312 q 341 279 327 287 q 374 272 355 272 l 490 272 q 526 279 509 272 q 558 299 544 286 q 583 328 573 311 q 597 364 593 345 l 726 972 q 739 993 730 984 q 760 1002 748 1002 l 875 1002 q 893 993 886 1002 q 897 972 899 984 l 743 243 m 734 1044 l 679 1215 l 587 1215 l 458 1044 l 528 1044 l 618 1147 l 665 1044 l 734 1044 m 714 243 l 869 972 l 753 972 l 625 364 q 606 316 619 338 q 573 278 592 294 q 531 252 554 262 q 484 243 508 243 l 368 243 q 326 252 345 243 q 294 278 307 262 q 277 317 282 295 q 278 364 273 339 l 407 972 l 292 972 l 138 243 q 167 71 114 143 q 231 18 193 35 q 315 0 269 0 l 432 0 q 525 18 481 0 q 610 71 569 35 q 714 243 693 142 z "},"Ü":{"ha":749,"x_min":82,"x_max":899,"o":"m 416 1015 q 399 1024 406 1015 q 395 1044 393 1033 l 421 1166 q 433 1187 423 1178 q 454 1196 444 1196 l 570 1196 q 588 1187 582 1196 q 591 1166 595 1178 l 567 1044 q 554 1024 564 1033 q 532 1015 545 1015 l 416 1015 m 647 1015 q 630 1024 637 1015 q 627 1044 623 1033 l 652 1166 q 665 1187 655 1178 q 685 1196 674 1196 l 802 1196 q 819 1187 813 1196 q 822 1166 825 1178 l 798 1044 q 785 1024 794 1033 q 762 1015 775 1015 l 647 1015 m 743 243 q 701 138 730 185 q 627 50 673 90 q 530 -10 579 9 q 425 -29 480 -29 l 310 -29 q 214 -10 255 -29 q 143 50 172 9 q 110 243 82 130 l 264 972 q 276 993 266 984 q 297 1002 287 1002 l 412 1002 q 432 993 425 1002 q 435 972 438 984 l 306 364 q 305 329 302 345 q 318 299 309 312 q 341 279 327 287 q 374 272 355 272 l 490 272 q 526 279 509 272 q 558 299 544 286 q 583 328 573 311 q 597 364 593 345 l 726 972 q 739 993 730 984 q 760 1002 748 1002 l 875 1002 q 893 993 886 1002 q 897 972 899 984 l 743 243 m 770 1044 l 794 1166 l 679 1166 l 654 1044 l 770 1044 m 539 1044 l 564 1166 l 449 1166 l 422 1044 l 539 1044 m 714 243 l 869 972 l 753 972 l 625 364 q 606 316 619 338 q 573 278 592 294 q 531 252 554 262 q 484 243 508 243 l 368 243 q 326 252 345 243 q 294 278 307 262 q 277 317 282 295 q 278 364 273 339 l 407 972 l 292 972 l 138 243 q 167 71 114 143 q 231 18 193 35 q 315 0 269 0 l 432 0 q 525 18 481 0 q 610 71 569 35 q 714 243 693 142 z "},"Ý":{"ha":749,"x_min":146,"x_max":899,"o":"m 652 1031 q 639 1020 647 1025 q 625 1015 631 1015 l 555 1015 q 535 1027 540 1015 q 539 1055 530 1040 l 643 1226 q 657 1239 647 1233 q 673 1244 667 1244 l 765 1244 q 780 1240 774 1244 q 788 1230 786 1236 q 788 1216 790 1223 q 781 1200 787 1208 l 652 1031 m 804 534 q 763 429 791 477 q 688 342 734 382 q 604 287 646 306 q 515 264 562 268 l 460 0 q 447 -20 456 -12 q 425 -29 437 -29 l 310 -29 q 293 -20 299 -29 q 289 0 287 -12 l 345 264 q 266 287 300 268 q 207 342 231 306 q 171 534 146 422 l 264 972 q 276 993 266 984 q 297 1002 287 1002 l 412 1002 q 432 993 425 1002 q 435 972 438 984 l 368 656 q 367 620 364 637 q 379 591 370 604 q 403 571 389 578 q 436 564 418 564 l 551 564 q 588 571 570 564 q 620 590 606 578 q 645 620 635 603 q 660 656 656 636 l 726 972 q 739 993 730 984 q 760 1002 748 1002 l 875 1002 q 893 993 886 1002 q 897 972 899 984 l 804 534 m 760 1215 l 667 1215 l 561 1044 l 631 1044 l 760 1215 m 777 534 l 869 972 l 753 972 l 686 656 q 667 608 681 630 q 635 570 654 586 q 593 544 616 553 q 546 534 570 534 l 431 534 q 388 544 407 534 q 356 570 368 553 q 339 609 343 587 q 340 656 334 631 l 407 972 l 292 972 l 199 534 q 196 441 188 484 q 229 363 204 398 q 378 292 283 292 l 315 0 l 432 0 l 493 292 q 586 309 542 292 q 672 363 630 327 q 777 534 755 433 z "},"Þ":{"ha":749,"x_min":54,"x_max":825,"o":"m 551 425 q 544 469 556 451 q 507 488 531 488 l 332 488 l 306 364 l 481 364 q 505 369 493 364 q 526 382 516 374 q 542 402 535 391 q 551 425 549 413 m 787 456 q 746 351 776 399 q 669 264 716 304 q 471 183 578 183 l 267 183 l 228 0 q 216 -20 226 -12 q 195 -29 206 -29 l 79 -29 q 61 -20 68 -29 q 57 0 54 -12 l 264 972 q 276 993 266 984 q 297 1002 287 1002 l 412 1002 q 432 993 425 1002 q 435 972 438 984 l 396 789 l 599 789 q 764 708 706 789 q 800 517 825 629 l 787 456 m 760 456 l 772 517 q 741 688 793 616 q 678 741 714 723 q 593 760 642 760 l 363 760 l 407 972 l 292 972 l 85 0 l 200 0 l 245 212 l 476 212 q 569 231 525 212 q 656 285 613 249 q 760 456 737 355 m 579 425 q 565 390 576 406 q 540 361 555 374 q 508 342 526 349 q 473 335 490 335 l 271 335 l 310 517 l 513 517 q 544 509 530 517 q 567 489 558 502 q 580 460 576 477 q 579 425 583 444 z "},"ß":{"ha":749,"x_min":28,"x_max":869,"o":"m 743 243 q 701 139 730 186 q 625 52 671 92 q 425 -29 534 -29 l 310 -29 q 293 -20 299 -29 q 289 0 287 -12 l 342 243 q 353 263 344 254 q 374 272 363 272 l 461 272 q 485 277 473 272 q 506 290 496 281 q 523 310 516 299 q 532 335 530 321 q 532 358 534 347 q 524 378 530 370 q 509 391 518 387 q 488 396 500 396 l 400 396 q 383 405 389 396 q 379 425 377 414 l 406 547 q 417 568 408 559 q 439 576 427 576 l 526 576 q 550 581 538 576 q 571 594 562 586 q 588 614 581 603 q 597 637 595 625 q 598 662 600 650 q 590 682 596 673 q 573 695 583 690 q 551 700 564 700 l 436 700 q 412 695 424 700 q 391 682 400 690 q 374 662 381 673 q 364 637 367 650 l 203 -122 q 190 -142 199 -134 q 170 -151 181 -151 l 53 -151 q 35 -142 42 -151 q 32 -122 28 -134 l 212 729 q 328 922 235 842 q 425 982 376 963 q 529 1002 474 1002 l 644 1002 q 810 921 752 1002 q 846 729 869 842 l 842 717 q 813 634 833 673 q 758 558 792 595 l 760 558 q 718 518 740 536 q 672 486 696 500 q 741 385 723 448 q 743 243 759 321 m 714 243 q 720 323 723 285 q 704 394 718 362 q 666 450 690 426 q 607 486 642 473 q 679 520 645 498 q 741 575 712 543 q 788 642 770 606 q 814 717 806 678 l 818 729 q 786 900 837 829 q 723 954 760 936 q 637 972 686 972 l 522 972 q 345 901 426 972 q 276 823 302 866 q 240 729 251 781 l 60 -122 l 175 -122 l 336 637 q 350 673 340 656 q 376 702 361 690 q 408 722 391 715 q 443 729 425 729 l 558 729 q 590 722 576 729 q 614 702 604 715 q 627 673 623 690 q 627 637 630 656 q 612 602 623 618 q 586 574 601 586 q 554 554 572 562 q 519 547 537 547 l 432 547 l 406 425 l 493 425 q 524 418 510 425 q 548 398 538 410 q 560 370 557 386 q 559 335 564 353 q 546 299 556 316 q 521 270 535 283 q 490 250 507 258 q 456 243 473 243 l 368 243 l 315 0 l 432 0 q 610 72 527 0 q 714 243 692 142 z "},"à":{"ha":749,"x_min":96,"x_max":832,"o":"m 529 895 q 516 899 523 895 q 509 908 510 903 l 452 1079 q 450 1095 449 1087 q 456 1109 452 1103 q 469 1119 461 1115 q 485 1122 476 1122 l 578 1122 q 591 1116 585 1122 q 599 1104 597 1110 l 632 935 q 631 920 633 927 q 624 907 629 912 q 612 898 619 901 q 597 895 605 895 l 529 895 m 624 486 q 612 552 632 526 q 554 578 592 578 l 439 578 q 403 571 420 578 q 371 551 386 564 q 346 522 357 539 q 332 486 336 505 l 306 364 q 305 329 302 345 q 318 299 309 312 q 341 279 327 287 q 374 272 355 272 l 490 272 q 526 279 509 272 q 558 299 544 287 q 583 329 573 312 q 597 364 593 345 l 624 486 m 541 -29 q 525 -23 531 -29 q 519 -5 519 -16 q 473 -24 498 -18 q 425 -29 449 -29 l 310 -29 q 215 -9 255 -29 q 144 52 175 11 q 105 139 114 92 q 110 243 96 186 l 186 607 q 227 712 197 665 q 304 800 257 760 q 503 879 397 879 l 618 879 q 714 860 673 879 q 785 802 755 842 q 824 713 815 761 q 819 607 832 666 l 690 0 q 677 -20 687 -12 q 656 -29 668 -29 l 541 -29 m 606 924 l 571 1093 l 479 1093 l 536 924 l 606 924 m 663 0 l 791 607 q 761 781 813 710 q 698 833 735 817 q 612 850 661 850 l 497 850 q 318 779 401 850 q 251 701 277 743 q 214 607 224 658 l 138 243 q 170 72 115 144 q 232 18 195 35 q 315 0 269 0 l 432 0 q 471 4 452 0 q 510 20 491 9 q 564 82 555 43 l 547 0 l 663 0 m 625 364 q 606 317 619 339 q 573 278 592 295 q 531 252 554 262 q 484 243 508 243 l 368 243 q 326 252 345 243 q 294 278 307 262 q 277 317 282 295 q 278 364 273 339 l 304 486 q 323 533 309 511 q 356 572 337 555 q 398 597 375 588 q 444 607 420 607 l 559 607 q 604 598 585 607 q 635 572 623 589 q 652 534 648 556 q 650 486 656 512 l 625 364 z "},"á":{"ha":749,"x_min":96,"x_max":832,"o":"m 627 908 q 613 899 622 903 q 597 895 605 895 l 529 895 q 508 907 513 895 q 511 935 503 919 l 616 1104 q 631 1116 622 1110 q 646 1122 640 1122 l 739 1122 q 762 1108 756 1122 q 754 1079 767 1095 l 627 908 m 624 486 q 612 552 632 526 q 554 578 592 578 l 439 578 q 403 571 420 578 q 371 551 386 564 q 346 522 357 539 q 332 486 336 505 l 306 364 q 305 329 302 345 q 318 299 309 312 q 341 279 327 287 q 374 272 355 272 l 490 272 q 526 279 509 272 q 558 299 544 287 q 583 329 573 312 q 597 364 593 345 l 624 486 m 541 -29 q 525 -23 531 -29 q 519 -5 519 -16 q 473 -24 498 -18 q 425 -29 449 -29 l 310 -29 q 215 -9 255 -29 q 144 52 175 11 q 105 139 114 92 q 110 243 96 186 l 186 607 q 227 712 197 665 q 304 800 257 760 q 503 879 397 879 l 618 879 q 714 860 673 879 q 785 802 755 842 q 824 713 815 761 q 819 607 832 666 l 690 0 q 677 -20 687 -12 q 656 -29 668 -29 l 541 -29 m 733 1093 l 640 1093 l 536 924 l 606 924 l 733 1093 m 663 0 l 791 607 q 761 781 813 710 q 698 833 735 817 q 612 850 661 850 l 497 850 q 318 779 401 850 q 251 701 277 743 q 214 607 224 658 l 138 243 q 170 72 115 144 q 232 18 195 35 q 315 0 269 0 l 432 0 q 471 4 452 0 q 510 20 491 9 q 564 82 555 43 l 547 0 l 663 0 m 625 364 q 606 317 619 339 q 573 278 592 295 q 531 252 554 262 q 484 243 508 243 l 368 243 q 326 252 345 243 q 294 278 307 262 q 277 317 282 295 q 278 364 273 339 l 304 486 q 323 533 309 511 q 356 572 337 555 q 398 597 375 588 q 444 607 420 607 l 559 607 q 604 598 585 607 q 635 572 623 589 q 652 534 648 556 q 650 486 656 512 l 625 364 z "},"â":{"ha":749,"x_min":96,"x_max":832,"o":"m 633 895 q 622 898 628 895 q 614 907 616 901 l 581 975 l 521 907 q 508 898 517 901 q 494 895 498 895 l 425 895 q 411 899 417 895 q 403 909 406 903 q 402 922 401 915 q 411 937 404 930 l 539 1108 q 552 1118 543 1114 q 567 1122 560 1122 l 659 1122 q 671 1118 664 1122 q 681 1108 678 1114 l 736 937 q 737 922 739 930 q 730 909 735 915 q 718 899 726 903 q 703 895 711 895 l 633 895 m 624 486 q 612 552 632 526 q 554 578 592 578 l 439 578 q 403 571 420 578 q 371 551 386 564 q 346 522 357 539 q 332 486 336 505 l 306 364 q 305 329 302 345 q 318 299 309 312 q 341 279 327 287 q 374 272 355 272 l 490 272 q 526 279 509 272 q 558 299 544 287 q 583 329 573 312 q 597 364 593 345 l 624 486 m 541 -29 q 525 -23 531 -29 q 519 -5 519 -16 q 473 -24 498 -18 q 425 -29 449 -29 l 310 -29 q 215 -9 255 -29 q 144 52 175 11 q 105 139 114 92 q 110 243 96 186 l 186 607 q 227 712 197 665 q 304 800 257 760 q 503 879 397 879 l 618 879 q 714 860 673 879 q 785 802 755 842 q 824 713 815 761 q 819 607 832 666 l 690 0 q 677 -20 687 -12 q 656 -29 668 -29 l 541 -29 m 710 924 l 653 1093 l 559 1093 l 432 924 l 501 924 l 591 1025 l 640 924 l 710 924 m 663 0 l 791 607 q 761 781 813 710 q 698 833 735 817 q 612 850 661 850 l 497 850 q 318 779 401 850 q 251 701 277 743 q 214 607 224 658 l 138 243 q 170 72 115 144 q 232 18 195 35 q 315 0 269 0 l 432 0 q 471 4 452 0 q 510 20 491 9 q 564 82 555 43 l 547 0 l 663 0 m 625 364 q 606 317 619 339 q 573 278 592 295 q 531 252 554 262 q 484 243 508 243 l 368 243 q 326 252 345 243 q 294 278 307 262 q 277 317 282 295 q 278 364 273 339 l 304 486 q 323 533 309 511 q 356 572 337 555 q 398 597 375 588 q 444 607 420 607 l 559 607 q 604 598 585 607 q 635 572 623 589 q 652 534 648 556 q 650 486 656 512 l 625 364 z "},"ã":{"ha":749,"x_min":96,"x_max":832,"o":"m 768 951 q 697 908 734 922 q 621 895 661 895 q 555 924 589 895 q 534 938 543 933 q 517 943 524 943 q 412 903 459 943 q 396 894 404 895 q 381 896 387 892 q 371 906 374 899 q 370 924 368 913 l 390 1021 q 395 1031 390 1024 q 403 1042 399 1038 q 549 1099 471 1099 q 616 1069 579 1099 q 638 1055 628 1060 q 656 1050 648 1050 q 709 1060 684 1050 q 760 1090 734 1071 q 777 1099 768 1097 q 792 1097 785 1100 q 801 1087 798 1094 q 802 1069 804 1080 l 782 972 l 768 951 m 624 486 q 612 552 632 526 q 554 578 592 578 l 439 578 q 403 571 420 578 q 371 551 386 564 q 346 522 357 539 q 332 486 336 505 l 306 364 q 305 329 302 345 q 318 299 309 312 q 341 279 327 287 q 374 272 355 272 l 490 272 q 526 279 509 272 q 558 299 544 287 q 583 329 573 312 q 597 364 593 345 l 624 486 m 541 -29 q 525 -23 531 -29 q 519 -5 519 -16 q 473 -24 498 -18 q 425 -29 449 -29 l 310 -29 q 215 -9 255 -29 q 144 52 175 11 q 105 139 114 92 q 110 243 96 186 l 186 607 q 227 712 197 665 q 304 800 257 760 q 503 879 397 879 l 618 879 q 714 860 673 879 q 785 802 755 842 q 824 713 815 761 q 819 607 832 666 l 690 0 q 677 -20 687 -12 q 656 -29 668 -29 l 541 -29 m 753 972 l 774 1069 q 648 1021 716 1021 q 625 1027 638 1021 q 597 1044 612 1033 q 569 1063 583 1057 q 543 1069 555 1069 q 478 1058 509 1069 q 418 1021 446 1046 l 397 924 q 457 961 426 949 q 522 972 489 972 q 576 947 546 972 q 628 924 606 924 q 693 935 663 924 q 753 972 724 947 m 663 0 l 791 607 q 761 781 813 710 q 698 833 735 817 q 612 850 661 850 l 497 850 q 318 779 401 850 q 251 701 277 743 q 214 607 224 658 l 138 243 q 170 72 115 144 q 232 18 195 35 q 315 0 269 0 l 432 0 q 471 4 452 0 q 510 20 491 9 q 564 82 555 43 l 547 0 l 663 0 m 625 364 q 606 317 619 339 q 573 278 592 295 q 531 252 554 262 q 484 243 508 243 l 368 243 q 326 252 345 243 q 294 278 307 262 q 277 317 282 295 q 278 364 273 339 l 304 486 q 323 533 309 511 q 356 572 337 555 q 398 597 375 588 q 444 607 420 607 l 559 607 q 604 598 585 607 q 635 572 623 589 q 652 534 648 556 q 650 486 656 512 l 625 364 z "},"ä":{"ha":749,"x_min":96,"x_max":832,"o":"m 621 895 q 604 903 610 895 q 600 924 598 912 l 627 1044 q 639 1065 629 1057 q 660 1074 649 1074 l 775 1074 q 794 1065 787 1074 q 798 1044 801 1057 l 772 924 q 759 903 769 912 q 736 895 749 895 l 621 895 m 390 895 q 372 903 378 895 q 370 924 366 912 l 395 1044 q 408 1065 398 1057 q 429 1074 418 1074 l 545 1074 q 563 1065 556 1074 q 567 1044 569 1057 l 541 924 q 528 903 538 912 q 505 895 517 895 l 390 895 m 624 486 q 612 552 632 526 q 554 578 592 578 l 439 578 q 403 571 420 578 q 371 551 386 564 q 346 522 357 539 q 332 486 336 505 l 306 364 q 305 329 302 345 q 318 299 309 312 q 341 279 327 287 q 374 272 355 272 l 490 272 q 526 279 509 272 q 558 299 544 287 q 583 329 573 312 q 597 364 593 345 l 624 486 m 541 -29 q 525 -23 531 -29 q 519 -5 519 -16 q 473 -24 498 -18 q 425 -29 449 -29 l 310 -29 q 215 -9 255 -29 q 144 52 175 11 q 105 139 114 92 q 110 243 96 186 l 186 607 q 227 712 197 665 q 304 800 257 760 q 503 879 397 879 l 618 879 q 714 860 673 879 q 785 802 755 842 q 824 713 815 761 q 819 607 832 666 l 690 0 q 677 -20 687 -12 q 656 -29 668 -29 l 541 -29 m 743 924 l 770 1044 l 654 1044 l 628 924 l 743 924 m 513 924 l 539 1044 l 422 1044 l 397 924 l 513 924 m 663 0 l 791 607 q 761 781 813 710 q 698 833 735 817 q 612 850 661 850 l 497 850 q 318 779 401 850 q 251 701 277 743 q 214 607 224 658 l 138 243 q 170 72 115 144 q 232 18 195 35 q 315 0 269 0 l 432 0 q 471 4 452 0 q 510 20 491 9 q 564 82 555 43 l 547 0 l 663 0 m 625 364 q 606 317 619 339 q 573 278 592 295 q 531 252 554 262 q 484 243 508 243 l 368 243 q 326 252 345 243 q 294 278 307 262 q 277 317 282 295 q 278 364 273 339 l 304 486 q 323 533 309 511 q 356 572 337 555 q 398 597 375 588 q 444 607 420 607 l 559 607 q 604 598 585 607 q 635 572 623 589 q 652 534 648 556 q 650 486 656 512 l 625 364 z "}}}
